<svg id="Calque_1" data-name="Calque 1" xmlns="http://www.w3.org/2000/svg" xmlns:xlink="http://www.w3.org/1999/xlink" viewBox="0 0 841.89 595.28"><defs><style>.cls-1{fill:none;}.cls-2{clip-path:url(#clip-path);}.cls-3{clip-path:url(#clip-path-2);}.cls-4{fill:#fff;}</style><clipPath id="clip-path"><rect class="cls-1" width="841.89" height="595.28"/></clipPath><clipPath id="clip-path-2"><rect class="cls-1" y="0.69" width="841.89" height="593.89"/></clipPath></defs><title>Plan de travail 4</title><g class="cls-2"><g class="cls-3"><path d="M16.78,596.1h-77V301.5C-53.55,278.88-47.52,256-40,233.7c11.82-35.24,29.15-67.6,50.38-97.26C48.12,83.65,95.07,43.21,154.5,21.05c14.21-5.3,29-9.78,43.92-11.65,15.81-2,32-.34,48.05-.42,22.19-.12,42.81,5.75,62.88,15.93,25.14,12.75,45.22,31.49,61,55.31,20.43,30.85,31,66.23,38.47,102.73.48,2.38-.77,5.16-1.21,7.75l-8.79,1.41c-1.5-3.92-3-7.6-4.33-11.34-8.82-24.61-18.77-48.56-32.87-70.44C333.05,66,293.62,40,243.9,33.45c-42.33-5.56-82.77,4.33-120.64,24.83-58,31.38-100.79,79.28-132,139.49-29,55.94-44,116.12-46.88,179.7-1.41,31.07-1.35,62.21,4.21,93,.51,2.84,1.22,5.64,1.84,8.46l2.46-.07a83.08,83.08,0,0,0,.32-8.63c-1-16.38-3.1-32.76-3.1-49.13,0-76.7,14.52-149.5,51.21-216.59,20.34-37.19,45.71-69.56,77.32-96,30.16-25.27,63.4-43.87,102-51.09,28.13-5.27,55.8-5.76,83.13,2.75,32,9.94,59,28.53,80.25,56.12,16.68,21.63,29,46.08,40.7,70.93,3.09,6.52,5.11,11.8-2.75,15.67-7.52-.52-8.51-8-11.46-12.9-13.82-22.83-29-44.55-47.87-62.82C265.13,71.52,191.21,68.7,128,101.94,60,137.74,15.78,197.07-11.5,271.32c-22.41,61-28.3,124.55-22.87,189.47,3.56,42.6,13.69,83.56,28.29,123.31,1.13,3.07,3.61,5.59,5.46,8.36l2-1.46c-1-3.09-1.84-6.21-2.93-9.25a445.1,445.1,0,0,1-26-143.82c-1.29-72.64,12.81-141.63,48-204.84,21.23-38.16,48.32-70.36,83.24-94.89,29.72-20.88,61.82-34,97.73-35.69,36.41-1.66,69.48,8.94,99.38,30.8C325,151,343.9,174.18,361.55,198.77c4.71,6.57,9.85,12.34,2.06,20.06-.26.26-.13,1-.18,1.48-3.56-3.32-7.38-6.35-10.61-10-17.68-19.91-36.5-38.29-58.75-52.44C277,147,259.17,138.41,239.6,134.27c-47.87-10.13-91.51,1.64-131.58,29.87C59.66,198.2,27.68,246.25,8,303.4c-28.58,83.2-27.85,167.5-4.35,251.94,3.83,13.75,8.71,27.18,13.1,40.76"/><path class="cls-4" d="M471.76,596.1H447.51c-10.84-16.31-17.29-34.69-21.92-53.85-8.51-35.22-5.8-70.62-1.1-106,.73-5.51,3.33-11.36-2.62-15.59l2.77-1.7h41.49c0-.65,0-1.3,0-1.95-4.19,0-8.4.26-12.57-.05-19.12-1.41-35.84-8.63-49.24-23.62-25.06-28-15.56-68.35,18.91-80.32-3.79,3-7.68,5.93-11.37,9.1-18.63,16-22.55,39.1-10.29,60.92,7.92,14.1,19.75,23,34.17,28.17,13.85,4.94,31.06,5.8,39.21,1.7-5.37-.56-10.77-.32-16.15-.61-17.2-.92-32.5-6.93-44.81-20.16-22.59-24.24-15.61-63.48,13.64-77-4.55,5.13-9.46,10-13.58,15.47-11.33,15.15-12.05,35.33-2.39,51.72,13.6,23.1,44.19,33.83,72.73,26,4.75-1.31,9.06-4.42,13.58-6.7l22-14.83c.6,1.79.75,4,1.85,5.31,20.31,24.17,42.19,46.41,68.44,63.4q59.21,38.31,126,19.35c53.3-15.09,92.27-51.07,123.51-97.87,14.81-22.19,25.73-46.54,34.82-71.92,18.17-50.73,24.26-103.36,21.28-157.25-2.5-45.23-11.91-89-26.72-131.46-2.09-6-2.94-13.78-10.86-15.48h14.26c.17,3.46-.54,7.31.65,10.32a462.57,462.57,0,0,1,29.39,113.77c10.14,81.9.63,160.59-35.75,234.31-28.33,57.41-68.44,102.39-125.39,128.24C711.78,500.93,680.86,506,648.78,501c-37.91-5.9-69.41-25.32-96.12-53.64-13.09-13.87-24.6-29.44-36.78-44.29-2.41-2.94-4.4-6.16-8.67-2.63-3.55,2.94-4.51,5.49-1.94,10.13,15.46,28,32.57,54.46,55.56,76.27,44.33,42,96,52.47,152.24,38.24,42.3-10.7,78-35.12,108.53-67.88,39.48-42.33,66.64-92.59,82.35-149.59,14.46-52.45,19.75-106.2,14.16-160.7-2.26-22.06-6.63-43.88-9.92-65.84-.4-2.64-.05-5.41-.05-8.12l3-.12c2.49,10.35,5.27,20.62,7.4,31a460.07,460.07,0,0,1,5,158.38c-10.46,73.1-35.69,139.47-82.18,195.31-43.72,52.5-96.42,88.09-163.83,94-45.31,3.94-85.5-9.88-120-41.38-24.39-22.25-41.5-50.4-55.86-80.61l-8.84-18.57c-10.12,3.23-11.46,5-9,12.19,9.5,27.27,19.39,54.24,35.12,78.5,19.17,29.59,43.44,52.14,75,65,32.46,13.23,65.87,15.76,100.12,8.75,23.51-4.81,46-12.5,67.05-24.44,30.2-17.11,56.54-39.41,80.07-66.06,35.68-40.39,60.71-87.17,77.32-139.31,5.25-16.49,9.33-33.4,13.94-50.12v39.48c-1,2-2.22,3.85-2.81,5.94-16.7,59.25-43.15,112.79-82.76,158.39-31,35.71-66.93,64.41-110,81.75-14.82,6-30.29,10.12-45.46,15.11h-77a55.47,55.47,0,0,0-5.31-1.94c-51.3-13-88-45.62-111.84-95.16-11.22-23.31-18.43-48.18-24.1-73.58-1-4.62-3.08-6.29-7.62-5-4.12,1.19-6.19,2.94-5.23,7.93,4.16,21.52,6.83,43.46,12.46,64.52,7.67,28.68,20.35,55.12,40.58,76.39,9.22,9.69,19.79,17.93,29.74,26.83H508.84a31,31,0,0,0-3.07-4.05c-12.86-12.3-22.88-26.92-30.93-43.11-15.5-31.15-22-64.81-24.19-99.64-.38-6-.88-12.11-.78-18.15.12-6.48-5-7.08-8.51-9.57-1.62,3-4.06,5.78-4.67,9-1,5.39-1,11-1.26,16.59-1.64,37.89.29,75.37,15.5,110.43,5.82,13.39,13.82,25.71,20.83,38.52"/><path d="M932.44,295.43c-4.61,16.72-8.68,33.63-13.94,50.12-16.61,52.14-41.64,98.92-77.32,139.31-23.53,26.65-49.87,48.95-80.07,66.06-21.06,11.94-43.54,19.63-67.05,24.44-34.25,7-67.66,4.48-100.12-8.75-31.56-12.87-55.83-35.42-75-65-15.73-24.26-25.62-51.23-35.11-78.5-2.51-7.2-1.17-9,8.95-12.19l8.84,18.57c14.36,30.21,31.47,58.36,55.86,80.61,34.53,31.5,74.72,45.32,120,41.38,67.41-5.86,120.12-41.45,163.83-94,46.49-55.84,71.72-122.21,82.18-195.31a460.06,460.06,0,0,0-5-158.38c-2.13-10.42-4.91-20.69-7.4-31l-3,.12c0,2.71-.35,5.48.05,8.12,3.29,22,7.66,43.78,9.92,65.84,5.59,54.5.31,108.25-14.16,160.7-15.71,57-42.87,107.26-82.35,149.59C791,489.92,755.37,514.34,713.07,525c-56.25,14.23-107.91,3.79-152.24-38.24-23-21.81-40.1-48.29-55.56-76.27-2.57-4.64-1.6-7.19,1.94-10.13,4.27-3.53,6.26-.31,8.67,2.63,12.18,14.85,23.69,30.42,36.78,44.29,26.71,28.32,58.21,47.74,96.12,53.64,32.08,5,63,0,92.66-13.49,56.95-25.86,97.06-70.83,125.39-128.24,36.38-73.72,45.89-152.41,35.75-234.31A462.57,462.57,0,0,0,873.19,11.15c-1.19-3-.48-6.87-.65-10.33h59.9Z"/><path class="cls-4" d="M812.64.83h20L826.8,3.41c.48,1.79.72,3,1.14,4.17C847.63,60.82,856.83,115.84,853,173.13c-3.87,58-20.65,110.91-54.61,156.84-22.21,30-50.08,52.36-84.46,64.48-35.78,12.62-71.81,11.6-107-1.93-22.66-8.72-44.33-20.33-67-30.88-6.79,7.19-6.71,8.85,2.1,15.34,8,5.89,15.88,12,24.15,17.45,20,13.16,40.67,25,63.88,30.72,52.81,13,100.64,2.16,143.44-33.64,28.53-23.87,49.57-53.75,65.75-88.18,19.28-41,28.25-84.59,30.44-129.93,2.72-56.43-7.4-110.67-26-163.35C842,4.79,839.5,1.25,834,.83h21.4c-4.28,1-5.39,2.67-3.69,7.82,6.76,20.5,13.92,41,18.88,62,15.1,64,15.66,128.23-.92,192.12C854.5,321.36,827,372,781.53,409.91,727.44,455.06,668.25,465.25,604.28,436c-26.75-12.23-49.36-31.11-71.15-51.22-2.69-2.48-5.12-5.85-9-2.07.75-2.65,1.1-5.54,2.35-7.89,2-3.87,4.65-7.38,7-11q3.16-8.36,6.34-16.72l3.68-3,1,1.43c2.25,2.41,4.1,5.81,6.83,7.08,24.08,11.25,48.38,21.42,74.64,26.29,35,6.5,68.19,3,100.48-13.33,28-14.17,50-35.46,67.77-61.84,25.8-38.22,39.44-81.31,44.13-128,5.22-51.86-.38-102.37-15.73-151.72C820.09,16,816,8.53,812.64.83"/><path class="cls-4" d="M76.68,596.1H63.85c-3.16-11.36-6.57-22.65-9.44-34.1-15.72-62.65-17.48-125.22,2-187.41,16-51.24,43.24-93.87,87.53-121.87C176.79,231.93,212.57,225,250.76,231c27.56,4.34,53.22,14.4,78.72,25.53,3,1.31,6.75.65,10.14.91a2,2,0,0,1,.87-.61l2.07-.29c-1.15,1.75-2.2,3.6-3.48,5.23C335.72,266,333,270.3,336.19,276l-1.29,10.41L330.07,296c-3-1-5.73-2.45-8.57-2.7-13.23-1.17-26.47-2.23-39.73-2.9-35.75-1.79-69.94,4.36-101.57,23.19-35.62,21.2-58.69,53.79-73.42,93.34C94.45,440,90.44,474.7,92.21,510.26c1.46,29.46,6,58.18,15.85,85.84H93.8a309,309,0,0,1-16.43-77.39c-4.07-46.63-.11-92.12,18.37-135C122.64,321.22,167,282.53,232.27,274c30.84-4.05,61.11,1.13,91.22,7.64,3.56.77,6.43,1.67,7.6-3.51,1-4.33,1.7-7.89-3.68-9.37-22-6-43.73-14-66.08-17.87-27.89-4.84-55.63-1.67-82.72,8.69C149.5,270.66,126,289.4,106.89,314.68,80.21,350,64.86,390.63,59.62,435.6A361.59,361.59,0,0,0,76.68,596.1"/><path class="cls-4" d="M407.61,190.7c.44-2.59,1.69-5.37,1.21-7.75-7.47-36.5-18-71.88-38.47-102.73-15.78-23.82-35.86-42.56-61-55.31C289.28,14.73,268.66,8.86,246.47,9c-16,.09-32.24-1.55-48.05.43-14.88,1.87-29.71,6.35-43.92,11.65C95.07,43.21,48.12,83.65,10.35,136.44c-21.23,29.66-38.56,62-50.39,97.26-7.48,22.31-13.51,45.18-20.2,67.8V266.57c1.2-2.71,2.74-5.31,3.54-8.15,11.09-39.2,26.23-76.44,47-111C27.51,85.23,76.76,37.7,140.57,8c2.91-1.35,5.83-2.67,8.74-4-.1-.78-.2-1.57-.31-2.35-8.15,0-16.37-.68-24.43.2-7.38.8-15.3,1.81-21.71,5.34-10.25,5.65-19.8,13-29,20.44a380.14,380.14,0,0,0-61.37,62c-21.94,28.16-41.07,58.19-55.37,91.56-5.71,13.31-11.55,26.57-17.33,39.85V202.79a55.41,55.41,0,0,0,3.47-5.64c11.7-24.76,22-50.44,35.3-74.16A371.53,371.53,0,0,1,71.74,13.74c4.13-3.29,8.2-6.65,13.07-10.6L78.11.83H337.69L317.24,2.68c.95,1.49,1.12,2.05,1.48,2.28,1.42.91,2.88,1.76,4.35,2.57,38.2,21.17,64.81,53.75,79,96.54,8,24.13,12,49.79,17.68,74.8.86,3.81,1,7.82,6.24,7.09,4.75-.66,7.11-3.09,6.52-8.61-2.34-22.3-3.78-44.73-6.91-66.9A167.43,167.43,0,0,0,394,33.53c-10.65-14.36-20.57-31-40.61-32.7h52.77l-8.56,2.56c2,2.66,3.39,4.64,4.92,6.49,19.38,23.56,31.12,51.25,37.2,81.49,5.34,26.55,5.57,53.64,4.4,80.74-.19,4.3,1.69,8.7,2.43,13.09.06.33-1.32.94-2.29,1.59l6.15.9-.07-.14c-1.35.65-2.72,1.9-4.05,1.85-9.54-.32-19.08-.91-28.62-1.38-.68,0-1.88,0-2,.32-1.67,5.36-5.45,1.66-8.19,2.25l.12.11"/><path d="M524.09,382.71c3.92-3.78,6.35-.41,9,2.07,21.79,20.11,44.4,39,71.15,51.22,64,29.25,123.16,19.06,177.25-26.09C827,372,854.5,321.36,869.7,262.76c16.58-63.89,16-128.12.92-192.12-5-21-12.12-41.49-18.88-62-1.7-5.15-.59-6.83,3.69-7.83h2.85c7.92,1.71,8.77,9.5,10.86,15.49,14.8,42.43,24.22,86.22,26.72,131.46,3,53.89-3.11,106.52-21.28,157.25-9.09,25.38-20,49.73-34.82,71.92-31.24,46.8-70.21,82.78-123.51,97.87q-66.71,18.9-126-19.35c-26.25-17-48.13-39.23-68.44-63.4-1.1-1.31-1.25-3.52-1.86-5.3l4.14-4.05"/><path class="cls-4" d="M314.87,596.1h-20c-7.21-25.82-7.17-52-1.93-78,7.17-35.61,23.47-66.4,45.83-93.71,8.39-10.25,16.83-20.44,25.17-30.57-5.46-9.66-7.51-10.52-13.35-4.73-14.41,14.27-29.58,27.86-42.68,43.41-28.82,34.23-45.72,74.28-45.27,121,.14,14.24,3.34,28.45,5.13,42.67h-20c-.77-3.7-1.67-7.37-2.27-11.09-9.25-56.79,3-107.27,38.85-151,17.34-21.13,37.69-38.46,59.27-54.28,3.73-2.73,6.27-5,3.31-10.27s-6.19-4-10.1-1.76C312.68,381.79,289.32,397,269,417.25c-33.39,33.3-52.28,73.59-52.24,122.52,0,18.78,3.51,37.56,5.41,56.33H203.62c-1.92-10.91-4.49-21.74-5.66-32.75-5.9-55.91,7.92-105.24,44.76-146.31,19-21.13,41.87-36.38,66.52-48.86,10.68-5.4,21.29-10.95,31.92-16.43,2.14,4.42,1.79,10.66,7.89,12.16l14.44,24.63,2.12-1.58,11.31,11.75c-.24.51-.49,1-.73,1.55-1.94,1.29-4.43,2.13-5.74,3.94C354.77,425.75,338.73,447,328,472.14c-10.19,23.9-18.21,48.48-17.46,75.06.45,16.33,2.8,32.6,4.3,48.9"/><path d="M38.18,596.1H25.34c-4.94-15.27-10.73-30.3-14.65-45.86a433,433,0,0,1-12.9-128.4C.55,368,13.21,317,38.94,270.43c10.11-18.3,23.06-35,36-51.31,17.35-21.84,39-38.08,63.45-50.11,21.22-10.45,43.42-15.38,66.84-15.93a143.84,143.84,0,0,1,63,12.38c28.87,13,54,32.45,77.63,54.29,5.47,5.06,8.7,9.45,3.44,16.49-3.41-1.21-7.11-1.88-10.19-3.72-20.25-12.11-39.58-26.34-60.68-36.36-48.5-23-97.19-20.87-144.18,5.71-40.36,22.82-69.07,58-89.53,101A320.46,320.46,0,0,0,15.36,407.65C11.15,447.42,11.59,487,20,526.05c5.09,23.59,12.05,46.72,18.17,70.05"/><path d="M834,.83c5.48.42,8,4,9.82,9.22,18.56,52.68,28.68,106.92,26,163.35-2.18,45.34-11.16,88.91-30.44,129.93-16.18,34.43-37.22,64.31-65.75,88.18-42.8,35.8-90.63,46.63-143.44,33.64-23.21-5.71-43.85-17.56-63.88-30.72C558,389,550.15,382.87,542.15,377c-8.81-6.49-8.89-8.15-2.1-15.34,22.62,10.55,44.29,22.16,67,30.88,35.14,13.53,71.17,14.55,107,1.93C748.33,382.33,776.2,360,798.41,330c34-45.93,50.74-98.88,54.61-156.84,3.82-57.29-5.38-112.31-25.08-165.55-.42-1.15-.66-2.38-1.14-4.17L832.61.83Z"/><path d="M339.63,257.4c-3.4-.25-7.16.41-10.15-.9C304,245.37,278.32,235.31,250.76,231c-38.19-6-74,1-106.87,21.75-44.29,28-71.52,70.63-87.53,121.87-19.43,62.19-17.67,124.76-2,187.41,2.87,11.44,6.28,22.74,9.44,34.1H49.59c-6-22.55-13.07-44.86-17.89-67.7-8.78-41.63-8.57-83.91-2-125.75C36.16,361.2,50,322.41,72.83,287.55c24.3-37,55.63-64,96.18-77.78,33.39-11.34,67.31-10,100.11,1.73,20.52,7.32,39.69,18.88,59.47,28.53,7,3.41,13.12,7.44,11,17.37"/><path d="M812.64.83C816,8.53,820.09,16,822.58,24c15.35,49.35,20.95,99.86,15.73,151.72-4.69,46.66-18.33,89.75-44.13,128-17.81,26.38-39.76,47.67-67.77,61.84-32.29,16.34-65.45,19.83-100.48,13.33-26.26-4.87-50.56-15-74.64-26.29-2.73-1.27-4.58-4.67-6.83-7.08,3.36-8.31,8.9-7.09,15.51-4.78,24.42,8.54,49.36,14.67,75.18,15.77,29,1.24,57-3.76,82.75-18,40.66-22.55,68.5-58,85.37-102.9,27.1-72.07,24.58-144.66,1.07-217.2-1.64-5.07-3.3-10.14-5-15.48l7.63-2Z"/><path d="M76.68,596.1A361.59,361.59,0,0,1,59.62,435.6c5.24-45,20.59-85.57,47.27-120.92,19.07-25.28,42.61-44,71.72-55.15,27.09-10.36,54.83-13.53,82.72-8.69,22.35,3.87,44.06,11.83,66.08,17.87,5.38,1.48,4.66,5,3.68,9.37-1.17,5.18-4,4.28-7.6,3.51-30.11-6.51-60.38-11.69-91.22-7.64C167,282.53,122.64,321.22,95.74,383.68c-18.48,42.91-22.44,88.4-18.37,135A309,309,0,0,0,93.8,596.1Z"/><path class="cls-4" d="M349.28,236.24c5.26-7,2-11.43-3.45-16.49-23.61-21.84-48.75-41.32-77.62-54.29a143.84,143.84,0,0,0-63-12.38c-23.42.55-45.62,5.48-66.85,15.93-24.43,12-46.09,28.27-63.44,50.11-12.93,16.29-25.88,33-36,51.31C13.21,317,.55,368-2.21,421.84a433,433,0,0,0,12.9,128.4c3.92,15.56,9.71,30.59,14.65,45.86H16.78c-4.39-13.58-9.27-27-13.1-40.76C-19.82,470.9-20.56,386.6,8,303.4c19.65-57.15,51.63-105.2,100-139.26,40.07-28.23,83.71-40,131.58-29.87,19.57,4.14,37.4,12.75,54.46,23.61,22.26,14.15,41.08,32.53,58.76,52.44,3.23,3.64,7.05,6.67,10.6,10l-.09-.1q-6.51,8-13,15.95l-1,.08"/><path d="M772.7.83h10c2,3,4.71,5.65,5.82,9,16.58,49.37,22.71,100,15.89,152.19-5,38.22-17.29,73.25-38.87,104.5-22.15,32.07-51,54-86.82,65-17.65,5.45-35.8,6-54.24,5.73-23-.35-45.35-4.29-67.59-9.67-2.46-.59-4.49-3.16-6.72-4.81,1.33-7.56,4.93-9.24,12.43-8.41,28.15,3.13,56.37,4,84.41-1.9,46.42-9.77,82.79-35.58,108.42-77.84C775.89,200.82,784.9,163,787,123.25c2-38.83-3.85-76.63-15.8-113.37-1.09-3.36-2.82-6.78,1.55-9"/><path d="M108.06,596.1c-9.85-27.66-14.39-56.38-15.85-85.84C90.44,474.7,94.45,440,106.78,406.9c14.73-39.55,37.8-72.14,73.42-93.34,31.63-18.83,65.82-25,101.57-23.19,13.26.67,26.5,1.73,39.73,2.9,2.84.25,5.59,1.72,8.57,2.7l4.83-9.55-.12-.13c.15,1.21.3,2.41.47,3.82.53-.39.8-.48.88-.66.7-1.59,1.37-3.19,2-4.8,6.17-15,15.39-27.29,28.83-35.33,31.1-18.61,64.29-1.52,69.07,38.61l0-.15-1.46,0-1-2.83c-1.25-3-2.39-6-3.75-9-5.19-11.17-12.29-20.53-23.54-25.05-34-13.68-65.22,20.2-68.7,48.44q-1.32,7-2.63,14c-.88,5.07-1.75,10.15-2.62,15.18l-1.88-2.77.06.2c.5-7.87,1-15.74,1.4-21.75-5,.94-10.68,2.86-16.43,3-25.23.44-50.31,1.93-74.79,9.06-47.06,13.71-83.34,42.41-105.57,89.05-29.58,62-28.22,126.1-8.6,190.88Z"/><path class="cls-4" d="M424.69.83h37.09c-3.4,1.67-5.09,3.42-2.68,7.92,17.26,32.25,23,67.36,19.63,103.78-2.14,22.74-7.21,45.18-11.31,67.68-.85,4.69-.81,7.77,4.08,9.27s7.39-.42,8.91-5.5c2.94-9.85,6.37-19.53,9.55-29.3,13.13-40.44,18-81.54,7-123.41C494,20.22,492.34,7.82,481.74.83h97c-3.06.27-6.11.72-9.17.79-9.68.23-10.29,1.18-7.67,11.07,9.55,36,7.62,71.52-4.64,106.46-10.49,29.91-26.67,56.26-44.94,81.34-1.94,2.67-2.4,6.58-3.55,9.91l.11-.1c-.41,1.1-.81,2.21-1.22,3.32l-15.88-11.89c-2.15-.88-4.59-1.33-6.42-2.7-10.54-7.86-23.1-8.52-35-11.48l.07.14c6-2.94,6.38-8.87,7.23-14.78,3.62-25,6.05-49.91,4.56-75.36C460.68,71.66,455.67,47,443.82,24.4c-4.73-9-7.49-20.6-19.13-23.57M510,2.21c.85,3.53,1.2,5.72,1.89,7.77,11.92,35.32,14.28,71.41,4.06,107.29-6.86,24.08-16.71,47.21-25.39,70.7-1.58,4.25-3.47,7.72,1.89,10.69s7.88.29,10.2-4.23c1.58-3.11,3.36-6.1,5.14-9.09C527.67,152,543.41,116.92,546.9,76.76a182.33,182.33,0,0,0-7.06-68.11c-.73-2.48-3.25-6-5.17-6.15-7.88-.7-15.85-.29-24.68-.29"/><path class="cls-4" d="M349.28,236.24l1.05-.08c-1.22,3.07-2.25,6.25-3.68,9.21-1.89,3.9-4.09,7.63-6.16,11.43a2,2,0,0,0-.87.61c2.09-9.94-4-14-11-17.38-19.78-9.65-38.95-21.21-59.47-28.53-32.8-11.7-66.72-13.07-100.11-1.73-40.55,13.77-71.88,40.76-96.18,77.78C50,322.41,36.16,361.2,29.68,402.65c-6.55,41.84-6.76,84.12,2,125.76,4.82,22.83,11.85,45.14,17.89,67.69H38.18C32.06,572.77,25.1,549.64,20,526.05c-8.42-39-8.86-78.63-4.65-118.4A320.46,320.46,0,0,1,44.7,302.84c20.46-43,49.17-78.15,89.53-101,47-26.58,95.68-28.74,144.18-5.71,21.1,10,40.43,24.25,60.68,36.36,3.08,1.84,6.78,2.51,10.19,3.72"/><path d="M737.05.83h11.41c2.36,2.53,5.34,4.69,6.92,7.69,1.81,3.44,2.35,7.64,3.5,11.49a278.78,278.78,0,0,1,7.85,128.74c-5.24,30.83-16.67,59-34.6,83.87-12.36,17.17-27.26,31.45-45.07,42.23a166.25,166.25,0,0,1-57.24,22c-23.92,4.28-47.81,7.7-72.09,5-2.62-.3-5.08-2.14-7.61-3.26,1.92-3.61-.66-9.92,6.69-10.32,9.92-.54,19.8-2.11,29.66-3.59,25.57-3.84,50.37-11.07,73-24.25,57.93-33.73,84.71-88,88.62-156.62a263.86,263.86,0,0,0-11.55-93.39c-.86-2.82.28-6.34.5-9.53"/><path class="cls-4" d="M550.15,322.74c2.23,1.65,4.27,4.22,6.72,4.81,22.24,5.38,44.57,9.32,67.59,9.67,18.44.28,36.59-.28,54.24-5.73,35.82-11.06,64.67-32.95,86.82-65,21.58-31.25,33.88-66.29,38.87-104.5,6.82-52.18.69-102.82-15.89-152.19-1.11-3.3-3.84-6-5.81-8.95h24.24l-7.63,2c1.74,5.34,3.4,10.41,5,15.48,23.51,72.54,26,145.13-1.07,217.2-16.87,44.86-44.71,80.35-85.37,102.9-25.77,14.29-53.79,19.29-82.75,18-25.82-1.1-50.76-7.23-75.18-15.77-6.61-2.31-12.15-3.53-15.51,4.78-.33-.48-.66-1-1-1.43l6.78-21.25Z"/><path d="M162.26,596.1h-20c-11.77-39.81-16.17-80-8.92-121.62,7.45-42.78,25.11-78.78,56.24-107.38,17.79-16.35,38.3-27,60.22-34.65,23.08-8.1,47.18-10.84,71.27-13.39,5.68-.6,8.52,1.09,9.49,6.84l-.06-.2c.3,7.3-5.26,6.76-9.39,7.64-25.69,5.49-51,12.63-74.27,25.59-64.52,35.92-94.77,93.95-93.19,170.53.46,22.27,5.59,44.43,8.58,66.64"/><path d="M700,.83h14.27c2.29,4.87,5.33,9.5,6.75,14.64,11.67,42.12,12.9,84.33,1.81,127-11.28,43.35-35.5,76.16-70.75,99.67-28.35,18.89-60.51,27.21-93,33.75-3.31.66-6.86-.05-10.3-.12.76-4.1-4.07-9.48,2.88-12.18,17.36-6.73,35-12.88,51.85-20.79,24.78-11.63,46.69-28.08,64.27-50.26,19.73-24.9,31.64-53.73,36.49-85.91,5-33.31,1.94-65.95-7-98.09-1.06-3.83-1-6.24,2.71-7.71"/><path class="cls-4" d="M550.12,298.53c2.53,1.12,5,3,7.61,3.26,24.28,2.72,48.17-.7,72.09-5a166.25,166.25,0,0,0,57.24-22c17.81-10.78,32.71-25.06,45.07-42.23,17.93-24.89,29.36-53,34.6-83.87A278.91,278.91,0,0,0,758.89,20c-1.16-3.85-1.7-8-3.51-11.49-1.58-3-4.56-5.16-6.92-7.69H772.7c-4.37,2.27-2.64,5.69-1.55,9.05C783.1,46.62,789,84.42,787,123.25c-2.05,39.7-11.06,77.57-31.54,111.34-25.63,42.26-62,68.07-108.42,77.84-28,5.89-56.26,5-84.41,1.9-7.5-.83-11.1.85-12.43,8.41l.11.05c-.68-3-2-6.09-1.9-9.1.17-5.1,1.22-10.18,1.9-15.26Z"/><path d="M658.6.83h14.26C675,4,678.39,6.89,679,10.36c3.13,17.54,7.19,35.16,7.9,52.89,2.29,57-17.27,104.61-58.22,141.62-22.63,20.45-49.26,33.77-76.38,46.09-5.92,2.69-10.52,4.51-13.46-3.53a5.22,5.22,0,0,0-1.21.2l-.27,2.23q.68,6.54,1.36,13.06c1.63,18.24,0,35.75-9.34,51.81-12.76,21.95-35.84,30.73-56.3,20-7.73-4.05-14.19-10.81-21.23-16.33l-1.56-1.75,3.67-.35,3.13,1.8c20,21.18,49.13,20.15,66-2.61,10.51-14.18,14-30.7,12.18-48.43-.79-8-2.47-15.82-3.75-23.73,6-2.37,12.19-4.16,17.79-7.25,7.77-4.29,15.15-9.41,22.56-14.42,30.33-20.5,56.16-45.81,72.48-80.44,19.86-42.11,22-86.15,10.55-131.23-1.17-4.61-1.38-7.84,3.68-9.17"/><path d="M341.17,351.74c-10.64,5.49-21.25,11-31.93,16.44-24.65,12.48-47.57,27.74-66.52,48.86-36.84,41.07-50.66,90.39-44.76,146.31,1.17,11,3.74,21.84,5.66,32.75H179.38a54.76,54.76,0,0,0-.75-6.69c-8.93-38.27-9.92-76.42,1-114.53,10.33-36,29.72-65.25,58.14-87.41,24.77-19.32,52.77-31.71,82.07-40.88,5.9-1.84,12-6.3,18,0l3.36,5.2"/><path class="cls-4" d="M330.59,325.9c-1-5.75-3.81-7.44-9.49-6.84-24.09,2.55-48.19,5.29-71.27,13.39-21.92,7.7-42.43,18.3-60.22,34.65-31.13,28.61-48.79,64.61-56.24,107.38-7.25,41.59-2.85,81.81,8.92,121.62H126.6c-19.62-64.78-21-128.83,8.6-190.88,22.23-46.64,58.51-75.34,105.57-89.05,24.48-7.13,49.56-8.62,74.79-9.06,5.75-.1,11.46-2,16.43-3-.39,6-.9,13.88-1.4,21.75"/><path class="cls-4" d="M548.74,275.77c3.43.07,7,.78,10.29.11,32.5-6.53,64.66-14.85,93-33.75,35.25-23.5,59.47-56.31,70.75-99.66,11.09-42.67,9.86-84.88-1.81-127-1.42-5.14-4.46-9.77-6.75-14.65h22.82c-.22,3.2-1.36,6.72-.5,9.54a263.83,263.83,0,0,1,11.55,93.39c-3.91,68.59-30.69,122.89-88.62,156.62-22.64,13.18-47.44,20.41-73,24.25-9.86,1.48-19.74,3.05-29.66,3.59-7.35.4-4.77,6.71-6.69,10.32l.14-.1c-.86-2.12-2.43-4.24-2.44-6.36,0-5.47.64-10.95,1-16.43Z"/><path d="M-60.24,155.72V.83H-16L15.55,2.92C6.66,18.2-7.22,28.35-13.77,43.94L-11,46.61c1.52-2.5,2.73-5.29,4.59-7.46Q8,22.4,22.7,5.93C27.56.51,37.65-.16,43.89,4.1a4,4,0,0,1-.57,1.34A456.42,456.42,0,0,0-45.81,127.36c-3.47,6.87-6.86,13.82-9.87,20.93-1.19,2.82,1.08,7.74-4.56,7.43"/><path class="cls-4" d="M376.19,400.26c.24-.52.49-1,.73-1.55,8.47,9.66,20.87,11,31.27,16.59,1.87,1,5.42,3.7,6.43-1.65l10,5.29-2.77,1.7c-6.78-.12-9.45,3.74-10.61,10.61-3.62,21.56-9,42.87-11.41,64.56a184.52,184.52,0,0,0,11.71,88.91c2.14,5.45,5,9.45,10.28,11.38H393.32c-.83-2.89-1.51-5.84-2.5-8.67-9.83-27.82-12-56.51-8.43-85.8,3.15-26.22,10.31-51.31,18.95-76,1.45-4.11,3.26-7.94-2.41-10.57-5.51-2.55-7.8.25-9.8,5-5.76,13.55-12.13,26.83-17.37,40.61-16.79,44.23-21.59,89.31-7,135.44H343.4A186.6,186.6,0,0,1,340,510.05c6.22-32.24,19.94-60.84,35.54-88.69,3.9-7,10.34-13.7.68-21.1"/><path class="cls-4" d="M337.81,346.54c-6-6.25-12.07-1.79-18,0-29.3,9.17-57.3,21.56-82.07,40.88-28.42,22.16-47.81,51.39-58.14,87.41-10.92,38.11-9.93,76.25-1,114.53a54.76,54.76,0,0,1,.75,6.69H162.26c-3-22.21-8.12-44.37-8.58-66.64-1.58-76.58,28.67-134.61,93.19-170.53,23.28-13,48.58-20.1,74.27-25.59,4.13-.88,9.69-.34,9.39-7.64l1.88,2.77c.87-5,1.74-10.11,2.62-15.18q1.39,16.62,2.78,33.25"/><path d="M222.16,596.1c-1.91-18.77-5.4-37.55-5.41-56.33,0-48.93,18.85-89.22,52.24-122.52,20.33-20.28,43.69-35.46,67.91-49.51,3.91-2.27,7.11-3.56,10.09,1.76s.43,7.54-3.3,10.27c-21.58,15.82-41.93,33.15-59.27,54.28-35.85,43.69-48.1,94.17-38.86,151,.61,3.72,1.51,7.39,2.28,11.09Z"/><path class="cls-4" d="M537.37,249.86l.27-2.23c.45-.08,1.18-.29,1.21-.2,2.94,8,7.54,6.22,13.46,3.53,27.12-12.32,53.75-25.64,76.38-46.1,40.95-37,60.51-84.61,58.22-141.61-.71-17.73-4.77-35.35-7.9-52.89-.62-3.47-4-6.37-6.15-9.53H700c-3.69,1.47-3.77,3.88-2.71,7.71,8.91,32.14,12,64.78,7,98.09-4.85,32.18-16.76,61-36.5,85.91-17.57,22.18-39.48,38.63-64.26,50.26-16.87,7.91-34.49,14.06-51.85,20.79-7,2.7-2.12,8.08-2.88,12.18l.11-.13L545.11,274l.13.06c.47-9.2-3.79-16.66-7.87-24.19"/><path d="M617.24.83h5.7c11.52,2.27,12,2.19,14,14.84a346.91,346.91,0,0,1,4.35,39.73c1.56,40.71-10.68,76.71-33.74,109-16.9,23.67-38.34,41.83-61,58.53-5.27,3.89-9.91,10.64-17.89,9-4.71-6.64-2.15-10.51,3.25-15.72,14-13.54,28-27.38,40.32-42.64,35.25-43.68,49.64-94,39.59-151.38-1.1-6.33-2.37-12.61-3.61-19.18l9-2.18"/><path d="M691.41,596.1c15.17-5,30.64-9.15,45.46-15.11,43.07-17.34,79-46,110-81.75,39.61-45.6,66.06-99.14,82.76-158.39.59-2.09,1.86-4,2.81-5.94v42.52c-.52,1.12-1.14,2.21-1.56,3.38-18.27,51.66-44.45,98.14-80.09,138.37-18.93,21.38-39.52,40.74-63.06,56.28-10.63,7-21.42,13.77-32.14,20.64Z"/><path d="M267.8,596.1c-1.79-14.22-5-28.43-5.13-42.67-.45-46.68,16.45-86.73,45.27-121,13.1-15.55,28.27-29.14,42.68-43.41,5.84-5.79,7.89-4.93,13.35,4.73-8.34,10.13-16.78,20.32-25.17,30.57-22.36,27.31-38.66,58.1-45.83,93.71-5.24,26-5.28,52.21,1.93,78Z"/><path class="cls-4" d="M528.64,231.93c8,1.67,12.62-5.08,17.89-9,22.63-16.69,44.08-34.85,61-58.52,23.06-32.32,35.3-68.32,33.74-109a346.91,346.91,0,0,0-4.35-39.73c-2-12.65-2.44-12.57-14-14.84H658.6c-5.06,1.33-4.85,4.56-3.68,9.17,11.49,45.08,9.31,89.12-10.55,131.23-16.32,34.63-42.15,59.94-72.48,80.44-7.41,5-14.79,10.13-22.56,14.42-5.6,3.09-11.84,4.88-17.79,7.25-.72-1.3-1.46-2.59-2.18-3.89l-3-6.37,2.27-1.15"/><path d="M508.76,210.4c1.15-3.33,1.6-7.24,3.55-9.91,18.27-25.08,34.45-51.43,44.94-81.34,12.26-34.94,14.19-70.44,4.64-106.46-2.62-9.89-2-10.84,7.67-11.07,3.06-.07,6.11-.52,9.17-.79h1.43c2.71,2,7.19,3.53,7.89,6.17,10.52,39.57,8.77,78.41-6.94,116.34-13.33,32.22-34,58.64-56.55,83.85-5.13,5.74-9.34,8.67-15.8,3.21"/><path d="M543.07,596.1c-10-8.9-20.52-17.14-29.74-26.83-20.23-21.27-32.91-47.71-40.58-76.39-5.63-21.06-8.3-43-12.46-64.52-1-5,1.11-6.74,5.23-7.93,4.54-1.3,6.59.37,7.62,5,5.67,25.4,12.88,50.27,24.11,73.58,23.84,49.54,60.53,82.11,111.83,95.16a55.47,55.47,0,0,1,5.31,1.94Z"/><path d="M-60.24,221c5.78-13.28,11.62-26.54,17.33-39.85,14.3-33.37,33.43-63.4,55.37-91.56a380.14,380.14,0,0,1,61.37-62c9.23-7.47,18.78-14.79,29-20.44,6.41-3.53,14.33-4.54,21.71-5.34,8.06-.88,16.28-.2,24.43-.2.11.78.21,1.57.31,2.35-2.91,1.33-5.83,2.65-8.74,4C76.76,37.7,27.51,85.23-9.75,147.4c-20.72,34.58-35.86,71.82-46.95,111-.8,2.84-2.34,5.44-3.54,8.15Z"/><path d="M353.38.83c20,1.69,30,18.34,40.61,32.7a167.43,167.43,0,0,1,31.62,76.92c3.13,22.17,4.57,44.6,6.91,66.9.59,5.52-1.77,8-6.52,8.61-5.22.73-5.38-3.28-6.24-7.09-5.68-25-9.67-50.67-17.68-74.8-14.2-42.79-40.8-75.37-79-96.54-1.47-.81-2.93-1.66-4.35-2.57-.36-.23-.53-.79-1.48-2.28L337.69.83Z"/><path d="M376.19,400.26c9.66,7.4,3.22,14.13-.68,21.1-15.6,27.85-29.32,56.45-35.54,88.69a186.6,186.6,0,0,0,3.43,86.05H314.87c-1.5-16.3-3.85-32.57-4.3-48.91-.75-26.57,7.27-51.15,17.46-75.05,10.7-25.11,26.74-46.39,42.42-67.94,1.31-1.81,3.8-2.65,5.74-3.94"/><path class="cls-4" d="M508.76,210.4c6.46,5.46,10.67,2.53,15.8-3.21,22.51-25.21,43.22-51.63,56.55-83.85C596.82,85.41,598.57,46.57,588.05,7c-.7-2.64-5.18-4.14-7.89-6.17h37.08l-9,2.18c1.24,6.56,2.51,12.85,3.61,19.18,10.05,57.34-4.34,107.7-39.59,151.38-12.31,15.26-26.3,29.1-40.32,42.64-5.4,5.21-8,9.08-3.25,15.72l-2.27,1.15q-8.75-11.4-17.5-22.78Z"/><path d="M481.74.83c10.6,7,12.3,19.39,15.21,30.45,11,41.86,6.14,83-7,123.4-3.17,9.77-6.6,19.45-9.55,29.3-1.51,5.08-3.95,7-8.9,5.5s-4.93-4.58-4.08-9.27c4.09-22.5,9.17-44.94,11.31-67.68C482.15,76.11,476.36,41,459.1,8.75c-2.41-4.5-.72-6.25,2.68-7.92Z"/><path d="M424.69.83c11.64,3,14.4,14.54,19.13,23.57C455.67,47,460.68,71.67,462.19,97.55c1.48,25.45-.94,50.38-4.56,75.36-.85,5.91-1.22,11.84-7.23,14.78l-6.14-.9c1-.65,2.34-1.26,2.28-1.59-.74-4.39-2.62-8.79-2.43-13.09,1.17-27.1.94-54.19-4.4-80.74-6.08-30.24-17.82-57.93-37.2-81.49C401,8,399.6,6.05,397.59,3.39L406.15.83Z"/><path d="M364.79,596.1c-14.62-46.13-9.82-91.21,7-135.44,5.24-13.78,11.61-27.06,17.37-40.61,2-4.73,4.29-7.53,9.8-5,5.67,2.63,3.86,6.46,2.41,10.57-8.64,24.68-15.8,49.77-18.95,76-3.53,29.29-1.4,58,8.43,85.8,1,2.83,1.67,5.78,2.5,8.67Z"/><path d="M471.76,596.1c-7-12.81-15-25.13-20.83-38.52-15.21-35.06-17.14-72.54-15.5-110.43.24-5.55.22-11.2,1.26-16.59.61-3.2,3.05-6,4.67-9,3.52,2.49,8.63,3.09,8.51,9.57-.1,6,.4,12.11.78,18.15,2.17,34.83,8.69,68.49,24.19,99.64,8.05,16.19,18.07,30.81,30.93,43.11a31,31,0,0,1,3.07,4.05Z"/><path d="M421.84,596.1c-5.25-1.93-8.14-5.93-10.28-11.38a184.52,184.52,0,0,1-11.71-88.91c2.4-21.69,7.79-43,11.41-64.56,1.15-6.87,3.83-10.73,10.61-10.61,5.95,4.23,3.35,10.08,2.62,15.59-4.7,35.4-7.41,70.8,1.1,106,4.63,19.16,11.08,37.54,21.92,53.85Z"/><path d="M78.11.83l6.7,2.31c-4.87,4-8.94,7.31-13.07,10.6A371.53,371.53,0,0,0-21.47,123c-13.33,23.72-23.6,49.4-35.3,74.16a55.41,55.41,0,0,1-3.47,5.64V163.31c1.53-1.56,3.65-2.83,4.49-4.73,12.66-28.43,27.8-55.44,46.31-79.77C7.2,56.93,26.22,37.07,44.62,16.75,52.47,8.08,60.93-.47,73.83.83Z"/><path d="M932.44,403.24v31.89c-6,11.74-11.69,23.66-18,35.19-17.91,32.61-38.61,63-64.53,89-12.57,12.61-25.77,24.53-38.68,36.76h-27.1c1.19-1.15,2.3-2.41,3.57-3.44,11.91-9.6,24.21-18.71,35.72-28.82,47.55-41.79,81.13-94.46,105.3-154.39.9-2.23,2.48-4.14,3.74-6.21"/><path class="cls-4" d="M932.44,403.24c-1.26,2.07-2.84,4-3.74,6.21C904.53,469.38,871,522.05,823.4,563.84c-11.51,10.11-23.81,19.22-35.72,28.82-1.27,1-2.38,2.29-3.57,3.44H755.59c10.72-6.87,21.51-13.62,32.14-20.64,23.54-15.54,44.13-34.9,63.06-56.28,35.64-40.23,61.82-86.71,80.09-138.37.42-1.17,1-2.26,1.56-3.38Z"/><path d="M849.72,596.1h-20c4.22-4.7,8.25-9.62,12.7-14.06,29-28.9,53.12-61.82,73-98.36,5.54-10.18,11.31-20.22,17-30.32v27.33c-1.13,1.92-2.33,3.79-3.39,5.75-16.75,31.17-36.26,60.18-59.38,86.38-6.76,7.66-13.31,15.52-19.95,23.28"/><path class="cls-4" d="M73.83.83C60.93-.47,52.47,8.08,44.62,16.75,26.22,37.07,7.2,56.93-9.44,78.81c-18.51,24.33-33.65,51.34-46.31,79.77-.84,1.9-3,3.17-4.49,4.73v-7.59c5.64.31,3.37-4.61,4.56-7.43,3-7.11,6.4-14.06,9.87-20.93A456.42,456.42,0,0,1,43.32,5.44a4,4,0,0,0,.57-1.34C37.65-.16,27.56.51,22.7,5.93Q8,22.35-6.39,39.15c-1.86,2.17-3.07,5-4.59,7.47l-2.79-2.68c6.56-15.59,20.43-25.74,29.32-41L-16,.83Z"/><path class="cls-4" d="M932.44,453.36c-5.67,10.1-11.44,20.14-17,30.32-19.89,36.54-44,69.46-73,98.36-4.45,4.44-8.48,9.36-12.7,14.06H811.21c12.91-12.23,26.11-24.15,38.68-36.76,25.92-26,46.62-56.41,64.53-89,6.33-11.53,12-23.45,18-35.19Z"/><path class="cls-4" d="M382,202.84c7.86-3.87,5.84-9.15,2.75-15.67-11.75-24.85-24-49.3-40.7-70.93-21.28-27.59-48.28-46.18-80.25-56.12-27.33-8.51-55-8-83.13-2.75-38.59,7.22-71.83,25.82-102,51.09-31.62,26.48-57,58.85-77.32,96-36.69,67.09-51.2,139.89-51.21,216.59,0,16.37,2.09,32.75,3.1,49.13a83.08,83.08,0,0,1-.32,8.63l-2.46.07c-.62-2.82-1.33-5.62-1.84-8.46-5.56-30.78-5.62-61.92-4.21-93,2.89-63.58,17.9-123.76,46.88-179.7,31.19-60.21,74-108.11,132-139.49,37.87-20.5,78.31-30.39,120.64-24.83C293.62,40,333.05,66,361.62,110.33c14.1,21.88,24.05,45.83,32.87,70.44,1.34,3.74,2.83,7.42,4.33,11.34l8.79-1.41-.12-.11c4.88,1.06,9.76,2.94,14.66,3,23.1.45,42.46,9.28,55.63,29.72C495,250,484,281,456,293.61c2.23-1.93,4.08-3.49,5.89-5.11,25.21-22.5,26.14-53.83,2-76.3-16.26-15.12-35.9-19-56.64-17-5.32.52-10.34,4.51-15.5,6.91V202c-3,4.55-6.42,2.46-9.82.71Z"/><path class="cls-4" d="M363.33,220.21l.09.1c.06-.5-.07-1.22.19-1.48,7.79-7.72,2.65-13.49-2.06-20.06C343.9,174.17,325,151,300.8,133.31c-29.9-21.86-63-32.46-99.38-30.8-35.91,1.64-68,14.81-97.73,35.69-34.92,24.53-62,56.73-83.24,94.89-35.17,63.21-49.28,132.2-48,204.84a445.1,445.1,0,0,0,26,143.82c1.09,3,2,6.16,2.93,9.25l-2,1.46c-1.85-2.77-4.33-5.29-5.46-8.36-14.6-39.75-24.73-80.71-28.29-123.31-5.43-64.92.46-128.46,22.87-189.47C15.78,197.07,60,137.74,128,101.94c63.17-33.24,137.09-30.42,194.61,25.18,18.9,18.27,34.05,40,47.86,62.82,3,4.87,3.95,12.38,11.47,12.9l-.13-.12c-1.59,2.37-3,4.91-4.79,7.09-2.37,2.89-5,5.5-7.58,8.23Z"/><path d="M424.64,418.94l-10-5.29c-1,5.35-4.56,2.66-6.43,1.65-10.4-5.57-22.8-6.93-31.27-16.59L365.62,387l-6.5-8.68a68.91,68.91,0,0,0-1.95-7.21,89.13,89.13,0,0,1-6.42-36.21c1.63-40.76,35.9-61.86,69.84-43,2.61,1.45,5.66,2,8.51,3-3.35,3.12-5.89,6.43-2.08,11.71-2.89.89-5.56,1.8-8.26,2.55-14.78,4-27.6,11-34.56,26.54-8.2,18.28-3.13,43.45,11.95,59.31,7.59,8,15.77,15.11,26,18.42-7.43-6.2-15.51-11.67-22.13-18.7-26.76-28.36-18.42-69,16.78-82.78,1.77-.69,4.24.67,6.39,1.07v0c-34.47,12-44,52.31-18.91,80.32,13.4,15,30.12,22.21,49.24,23.62,4.17.31,8.38.05,12.57.05,0,.65,0,1.3,0,1.95Zm-36-16.93c-18.24-21.58-29.91-45.23-18.24-74.55,9.21-23.13,28.75-27.09,49.89-26.55a44,44,0,0,0-7.64-2c-24.81-4-45.54,12-49.34,38.46-3.86,26.92,7.35,47.38,25.33,64.63m11.83,3.18c-16.32-15.5-27.69-33.5-25.08-58,2.83-26.55,20.47-36.92,42.66-41.82-24.39-.74-40.83,11.74-46.2,35.15-3.52,15.37.48,29.67,8,42.77,5.12,8.92,11.35,17,20.63,21.86m-34.86-26.55c-8.73-20.63-12.13-41.35-1.16-62,11.73-22.09,30.76-25.53,52.4-21.3a38.66,38.66,0,0,0-47.43,6.75c-17.81,18.8-19.75,53.21-3.81,76.55"/><path d="M524.09,382.71,520,386.76l-22,14.83-4.65.09c-2.33.45-4.67.87-7,1.35-20.55,4.26-39.83,1.88-56.28-13.18-23.1-21.14-16.7-52.9-.92-68.74-1.08,3.27-1.91,6.67-3.29,9.78-4.61,10.33-7,21-4.41,32.33,4.75,20.85,21.68,35.14,44.23,37.57,13.6,1.47,26.24-1.83,38.13-8.68-12,4.1-24,7.45-36.85,5.53-24.51-3.66-41.78-20.88-42-44.37-.1-9.3,3.48-18.63,5.2-28,.22-1.22-.71-2.68-1.11-4,0-1,0-2,0-3l1.49-1.56c1.39,2.57,2.79,5.14,4.18,7.72l.08-.2c-13.69,28.14-1.16,58.9,27.25,67.23,17.09,5,33,1.26,48-7.49,5.36-3.13,9.68-8.29,14.48-12.52l9-7.63c-2.37,3.67-5,7.18-7,11.05-1.25,2.35-1.6,5.24-2.35,7.89"/><path d="M430.46,316.66,429,318.22c-22.4,20-24.48,51.47-4.83,71.84,17.89,18.53,49,21.23,69.17,11.62l4.65-.09c-4.52,2.27-8.83,5.38-13.58,6.69-28.54,7.84-59.13-2.89-72.73-26-9.66-16.39-8.94-36.57,2.39-51.72,4.12-5.51,9-10.34,13.58-15.47l-.11.14,2.95,1.42"/><path d="M423.22,313v0l4.28,2.28.11-.14c-29.25,13.54-36.23,52.78-13.64,77,12.31,13.23,27.61,19.24,44.81,20.16,5.38.29,10.78.05,16.15.61-8.15,4.1-25.36,3.24-39.21-1.7-14.42-5.14-26.25-14.07-34.17-28.17-12.26-21.82-8.34-44.91,10.29-60.92,3.69-3.17,7.58-6.08,11.37-9.1"/><path d="M537.37,249.86c4.08,7.53,8.34,15,7.87,24.19-.33,2.74-.84,5.47-1,8.22-1.09,21.79-7.33,41.22-23.31,55.87-18.66,17.09-42.2,16.26-59.68-2-3.84-4-7.2-8.52-12.07-14.34C463.37,354,491.32,363.67,516,347c22.75-15.33,32.62-50.73,29.1-73.05l3.73,1.65c-.38,5.48-1.05,11-1,16.43,0,2.12,1.58,4.24,2.44,6.36-.68,5.08-1.73,10.15-1.9,15.26-.09,3,1.22,6.06,1.9,9.1L543.48,344l-3.68,3q-7.23,9.07-14.47,18.16a75.28,75.28,0,0,0-6.76,3.88c-10.68,7.63-22.22,12.1-35.25,12.2-31.26.24-54-35-41.43-64.64h8.41l1.56,1.75c2.75,3.71,5.13,7.85,8.32,11.06,12.52,12.61,26.79,18.34,44.11,12.31,26.31-9.15,42.26-43.92,34.44-78.86q-.68-6.53-1.36-13.06m-96.28,73.31.94-.55a60.59,60.59,0,0,0,0,6.74c2.11,18.76,8.36,34.67,26,42.83,27.09,12.54,62.29-7.84,73.55-38.53a35.18,35.18,0,0,0-2.42,3.08c-6.8,8-12.72,17.19-20.63,23.65-21.69,17.73-50.21,14.93-64.62-6.61-6-8.92-8.65-20.33-12.83-30.61m103.84-11.94c-.58,1.63-1.12,3.27-1.74,4.88-6.28,16-15.16,29.74-29.83,38.37-22.57,13.28-45.63,7.1-59.39-16l-6.13-10.3c3.51,20.85,19.56,36.29,37.45,37.36,27.53,1.64,53.77-21.69,59.64-54.35"/><path d="M525.33,365.22q7.24-9.08,14.47-18.16-3.18,8.35-6.34,16.72l-9,7.62a74.54,74.54,0,0,1-36.25,18.05c-24.36,4.79-48.5-9.18-53.58-33.05-2.18-10.2-.06-21.45.1-32.22l-.08.2c.75-1.13,1.51-2.25,3.38-5-.45,6.74-.8,11.68-1.11,16.62-1.17,18.66,8,36.5,22.5,43.93,20.84,10.65,50.36,4.08,65.92-14.67"/><path d="M363.33,220.21l6.15-2.17L384.63,211c14.56-4.71,29.08-6.15,44-1.08C455.3,219,467.73,246,457.36,273.55c-2,5.35-4.62,10.45-6.95,15.66,0,.76-.05,1.53-.07,2.29l-9-1.17c0-4.18,0-8.16,0-12.14-.29-29.24-14-47.26-39.13-50.19-17.15-2-32.31,4.25-44.86,16.62-4.87,4.81-8.45,11.11-12.62,16.73L336.19,276c-3.16-5.71-.47-10,2.89-14.27,1.28-1.63,2.33-3.48,3.48-5.23l-2.07.29c2.07-3.8,4.27-7.53,6.16-11.43,1.43-3,2.46-6.14,3.68-9.21q6.5-8,13-15.95m86.29,63.94c1-2.52,2.07-5,2.93-7.56,7.88-23.45,1.79-45.14-16.48-57.21a51.71,51.71,0,0,0-40.39-7.58c-10,2.11-19.81,5.22-27.79,12.51,50-29.42,100.06,7.25,81.73,59.84m-96-41.48c17.48-16,37.2-24.89,60.16-18,25.38,7.58,32.22,28.74,31.43,54.4,5.52-20.89.27-39.28-13.92-50.46-21.91-17.26-60.93-10.37-77.67,14.09"/><path d="M336.19,276l8.58-14.66c9.68-12.54,20.82-23.12,36-27.3,35-9.68,57.25,12.46,59.65,49.66.16,2.37.28,6.45-4.26,4.07l-.05.15c5.06-21.78-15.69-49-38.4-50.39-23.24-1.41-46.22,13.8-57,37.62-1.73,3.83-3.91,7.43-5.88,11.13l.12.13Z"/><path d="M391.67,202.15c5.16-2.4,10.18-6.39,15.5-6.91,20.74-2,40.38,1.84,56.64,17,24.17,22.47,23.24,53.8-2,76.3-1.81,1.62-3.66,3.18-5.89,5.11C484,281,495,250,477.78,223.35c-13.17-20.44-32.53-29.27-55.63-29.72-4.9-.1-9.78-2-14.66-3,2.74-.6,6.52,3.11,8.19-2.25.1-.31,1.3-.35,2-.32,9.54.47,19.08,1.06,28.62,1.38,1.33,0,2.7-1.2,4.05-1.85,11.92,3,24.48,3.62,35,11.48,1.83,1.37,4.27,1.82,6.42,2.69l11.32,12.36A56.34,56.34,0,0,0,506,220c8.23,12.84,13.43,26.74,13.25,42.52-.35,29.37-19.54,49.05-46.93,48-5-.19-9.92-1-14.88-1.47l.12.15-.24-3.34c4.27.2,8.55.6,12.81.55,21.67-.24,37.87-13,43.06-33.76,5.86-23.45-7.06-56-27.35-68.81.1.45.07,1,.31,1.27a32,32,0,0,0,2.5,2.7C499.91,218.69,507,232.06,510,248c4.76,24.57-8.81,48.09-31.74,54-6.87,1.78-13.95,2.66-20.93,3.95,1.63-1.41,3.07-3.36,4.93-4.09,3.09-1.22,6.48-1.51,9.69-2.43,24.34-7,36.81-27.08,32.65-53.07-3.88-24.26-18.38-39.75-38-50.74-3.64-2-7.63-3.34-11.46-5,6.22,4.5,12.89,7.85,18.91,12.22,13.4,9.75,23,22.75,26.27,40,5.95,31-13.18,53.4-43.77,57.81.72-1.31,1.43-2.58,2.13-3.86,27.52-5.09,43.41-32.07,35-59.81-5-16.43-15.35-28.41-29.36-36.57-6.61-3.85-13.95-6.27-21-9.33-.28.68-.55,1.37-.83,2,16.51,5,30.48,13.86,40.43,29.1,13.79,21.1,10.93,46.83-7.61,63.13-5.06,4.44-11,7.73-16.57,11.54l-6.64-1.34c1.06-2.72,1.76-4.53,2.46-6.35l-.1.19c1.24-.69,2.7-1.13,3.71-2.1,26.61-25.56,20.21-59.06-3.2-76.44-19.61-14.56-41.15-15-63.4-8.72"/><path d="M337.81,346.54q-1.4-16.64-2.78-33.25,1.32-7,2.63-14c4.1-7.93,7.47-16.43,12.45-23.68,18.31-26.7,56.11-36,78.43,2.17a86.12,86.12,0,0,0,5.11,7.1c.33.94.67,1.89,1,2.83L430,292.38l-2.35-.78c-9.39-18.37-35.19-27.57-53.34-18.54-21.15,10.53-29.86,30-31.63,53.45-.68,9-2,18.73,4.37,26.71q1,5.34,2,10.69c-6.1-1.5-5.75-7.74-7.89-12.16q-1.67-2.61-3.35-5.21m.52-16.94c3.13-23.94,5.17-30.76,13.41-43.48,17.62-27.23,47.76-30.42,69.85-7.41,2,2.09,4,4.17,6.05,6.26a27.48,27.48,0,0,0-5.7-9.94c-16.39-19.46-40-22.17-59.4-6.11-18.54,15.34-25.05,36.56-24.21,60.68"/><path d="M427.63,291.6l2.35.78-.93,2.53c-2.44-1.53-4.92-3-7.31-4.61-31-20.75-62.29-8.24-71.56,29.08-5.18,20.81-.61,40.41,8.94,58.92l6.5,8.68c-.72.51-1.42,1-2.13,1.56l-14.44-24.63q-1-5.34-2-10.69a71.76,71.76,0,0,1,4.8-51.47c11.74-23.92,33.78-33.37,55.45-23.77,7.29,3.23,13.59,9,20.35,13.62"/><path class="cls-4" d="M429.05,294.91l.93-2.53,4.67-4.63,1.46,0c4.55,2.38,4.42-1.7,4.27-4.07-2.4-37.2-24.62-59.34-59.65-49.66-15.14,4.18-26.28,14.76-36,27.3,4.17-5.62,7.75-11.92,12.62-16.73C369.94,232.25,385.1,226,402.25,228c25.17,2.93,38.84,20.95,39.13,50.19,0,4,0,8,0,12.14l9,1.17,4.32-2.28c-.7,1.82-1.4,3.63-2.46,6.35l6.64,1.34-.09-.11c-.7,1.28-1.41,2.55-2.13,3.86,30.58-4.41,49.72-26.85,43.77-57.81-3.31-17.24-12.87-30.24-26.28-40-6-4.37-12.68-7.72-18.91-12.22,3.84,1.65,7.83,3,11.47,5,19.59,11,34.09,26.48,38,50.74,4.16,26-8.31,46.1-32.65,53.07-3.21.92-6.6,1.21-9.69,2.43-1.86.73-3.3,2.68-4.93,4.09l-.09-.1c.09,1.11.17,2.22.25,3.34l-4.41,3c.28,1.38.57,2.76.85,4.14l-3.67.35h-8.41c-12.54,29.66,10.17,64.88,41.43,64.64,13-.1,24.57-4.57,35.25-12.2a75.28,75.28,0,0,1,6.76-3.88c-15.56,18.75-45.08,25.32-65.92,14.67-14.52-7.43-23.67-25.27-22.5-43.93.31-4.94.66-9.88,1.11-16.62-1.87,2.79-2.63,3.91-3.38,5-1.39-2.58-2.79-5.15-4.18-7.72l-2.95-1.42L423.23,313c-2.15-.4-4.62-1.76-6.39-1.07-35.2,13.79-43.54,54.42-16.78,82.78,6.62,7,14.7,12.5,22.13,18.7-10.27-3.31-18.45-10.44-26-18.42-15.08-15.86-20.15-41-11.95-59.31,7-15.5,19.78-22.49,34.56-26.54,2.7-.75,5.37-1.66,8.26-2.55-3.81-5.28-1.27-8.59,2.08-11.7l-.05.06"/><path class="cls-4" d="M334.78,286.29c2-3.7,4.15-7.3,5.88-11.13,10.79-23.82,33.77-39,57-37.62,22.71,1.37,43.46,28.61,38.4,50.39-4.78-40.13-38-57.22-69.07-38.61-13.44,8-22.66,20.37-28.83,35.33-.67,1.61-1.34,3.21-2,4.8-.08.18-.35.27-.88.66-.17-1.41-.32-2.61-.47-3.82"/><path class="cls-4" d="M433.65,284.92a86.12,86.12,0,0,1-5.11-7.1c-22.32-38.2-60.12-28.87-78.43-2.17-5,7.25-8.35,15.75-12.45,23.68,3.48-28.24,34.69-62.12,68.7-48.44,11.25,4.52,18.35,13.88,23.54,25.05,1.36,2.94,2.5,6,3.75,9"/><path d="M510,2.21c8.83,0,16.8-.41,24.68.29,1.92.17,4.44,3.67,5.17,6.15a182.33,182.33,0,0,1,7.06,68.11c-3.49,40.16-19.23,75.19-39.12,108.58-1.78,3-3.56,6-5.14,9.09-2.32,4.52-4.88,7.17-10.2,4.23S489,192.22,490.55,188c8.68-23.49,18.53-46.62,25.39-70.7,10.22-35.88,7.86-72-4.06-107.29-.69-2.05-1-4.24-1.89-7.77"/><path d="M454,316.31c-.28-1.38-.57-2.76-.85-4.14l2.87-.87c.35.66.56,1.56,1.09,1.93,19.51,13.53,49,15.78,65-13,12.74-22.88,8.85-57.25-9-80.06l-5.42-6.54,1.22-3.32q8.75,11.38,17.5,22.78c1,2.12,2,4.25,3,6.37.39,3.45.94,6.9,1.14,10.37.68,11.75,3,23.79,1.48,35.21-5.09,37.12-37.36,53.71-68.46,36.25-2.08-1.17-4.27-2.12-6.41-3.17l-3.13-1.8"/><path d="M507.65,213.62l5.42,6.54c1.14,2.46,2.16,5,3.42,7.38,9,17.07,13,35.06,8.6,54.49-7.46,33.22-39.34,46.7-69.1,29.27l-2.87.87,4.41-3-.12-.15c4.29,1.31,8.51,3,12.88,3.86,25.42,4.93,46.18-9.83,51-36.87,4.26-23.87-3-44.33-18.19-62l-11.32-12.36,15.88,11.9"/><path class="cls-4" d="M457.1,318.11c2.14,1.05,4.33,2,6.41,3.17,31.1,17.46,63.37.87,68.46-36.25,1.57-11.42-.8-23.46-1.48-35.21-.2-3.47-.75-6.92-1.14-10.37.73,1.3,1.47,2.59,2.19,3.89,1.28,7.91,3,15.77,3.75,23.73,1.78,17.73-1.67,34.25-12.18,48.43-16.88,22.76-46,23.79-66,2.61"/><path class="cls-4" d="M538.73,262.92c7.82,34.94-8.13,69.71-34.44,78.86-17.32,6-31.59.3-44.11-12.31-3.19-3.21-5.57-7.35-8.32-11.06,7,5.52,13.5,12.28,21.23,16.33,20.46,10.72,43.54,1.94,56.3-20,9.34-16.06,11-33.57,9.34-51.81"/><path class="cls-4" d="M545.11,274c3.52,22.32-6.35,57.72-29.1,73.05-24.69,16.63-52.64,6.94-66.8-25.2,4.87,5.82,8.23,10.34,12.07,14.34,17.48,18.22,41,19.05,59.68,2,16-14.65,22.22-34.08,23.31-55.87.13-2.75.64-5.48,1-8.22l-.13-.06"/><path d="M454.66,289.22l-4.32,2.28c0-.76.05-1.53.07-2.29,18-18.24,20.11-48.33,4.35-66-14.93-16.73-33.64-21.75-54.53-18.1-5.35.94-10.4,3.84-15.6,5.84L369.48,218c2.54-2.73,5.21-5.34,7.58-8.23,1.79-2.18,3.21-4.72,4.79-7.09,3.4,1.75,6.82,3.84,9.83-.71,2.35,0,4.7-.08,7.05,0,10.61.19,21.48-1.09,31.79.91a49.93,49.93,0,0,1,40.4,50.34c-.5,14.54-8.07,25.59-16.36,36.19Z"/><path class="cls-4" d="M454.56,289.41c8.29-10.6,15.86-21.65,16.36-36.19a49.93,49.93,0,0,0-40.4-50.34c-10.31-2-21.18-.72-31.79-.91-2.35,0-4.7,0-7.05,0v.14c22.25-6.3,43.79-5.84,63.4,8.72,23.41,17.38,29.81,50.88,3.2,76.44a16.63,16.63,0,0,1-3.71,2.1"/><path class="cls-4" d="M429.05,294.91l.05-.06c-2.85-1-5.9-1.52-8.51-3-33.94-18.86-68.21,2.24-69.84,43a89.13,89.13,0,0,0,6.42,36.21,68.91,68.91,0,0,1,1.95,7.21c-9.55-18.52-14.12-38.11-8.94-58.92,9.27-37.32,40.58-49.83,71.56-29.08,2.39,1.61,4.87,3.08,7.31,4.61"/><path class="cls-4" d="M388.66,402c-18-17.25-29.19-37.71-25.33-64.63,3.8-26.42,24.53-42.44,49.34-38.46a44,44,0,0,1,7.64,2c-21.14-.54-40.68,3.42-49.89,26.55-11.67,29.32,0,53,18.24,74.55"/><path class="cls-4" d="M400.49,405.19c-9.28-4.82-15.51-12.94-20.63-21.86-7.51-13.1-11.51-27.4-8-42.77,5.37-23.41,21.81-35.89,46.2-35.15-22.19,4.9-39.83,15.27-42.66,41.82-2.61,24.46,8.76,42.46,25.08,58"/><path class="cls-4" d="M365.63,378.64c-15.94-23.34-14-57.75,3.81-76.55a38.66,38.66,0,0,1,47.43-6.75c-21.64-4.23-40.67-.79-52.4,21.3-11,20.65-7.57,41.37,1.16,62"/><path class="cls-4" d="M434.72,324.18c-.16,10.77-2.28,22-.1,32.22,5.08,23.87,29.22,37.84,53.58,33.05a74.5,74.5,0,0,0,36.25-18.05c-4.8,4.23-9.12,9.39-14.48,12.52-15,8.75-30.91,12.5-48,7.49-28.41-8.33-40.94-39.09-27.25-67.23"/><path class="cls-4" d="M429,321.26c.4,1.35,1.33,2.81,1.11,4-1.72,9.35-5.3,18.68-5.2,28,.25,23.49,17.52,40.71,42,44.37,12.88,1.92,24.87-1.43,36.85-5.53-11.89,6.85-24.53,10.15-38.13,8.68-22.55-2.43-39.48-16.72-44.23-37.57-2.58-11.32-.2-22,4.41-32.33a103,103,0,0,0,3.29-9.78l-.13.15"/><path class="cls-4" d="M493.31,401.68c-20.18,9.61-51.28,6.91-69.17-11.62-19.65-20.37-17.57-51.82,4.83-71.84,0,1,0,2,0,3l.13-.15c-15.78,15.84-22.18,47.6.93,68.74,16.45,15.06,35.72,17.44,56.27,13.18,2.33-.48,4.67-.9,7-1.35"/><path class="cls-4" d="M441.09,323.17c4.18,10.28,6.86,21.69,12.83,30.61,14.41,21.54,42.93,24.34,64.62,6.61,7.9-6.46,13.83-15.66,20.63-23.65a35.18,35.18,0,0,1,2.42-3.08c-11.26,30.69-46.46,51.07-73.55,38.53-17.62-8.16-23.87-24.07-26-42.83a60.59,60.59,0,0,1,0-6.74l-.94.55"/><path class="cls-4" d="M544.93,311.23c-5.87,32.66-32.11,56-59.64,54.35-17.89-1.07-33.94-16.51-37.45-37.36l6.13,10.3c13.76,23.06,36.82,29.24,59.39,16,14.67-8.63,23.55-22.35,29.83-38.37.62-1.61,1.16-3.25,1.74-4.88"/><path class="cls-4" d="M449.62,284.15c18.33-52.59-31.77-89.26-81.73-59.84,8-7.29,17.78-10.4,27.79-12.51a51.72,51.72,0,0,1,40.39,7.58c18.27,12.07,24.36,33.76,16.48,57.21-.86,2.56-1.95,5-2.93,7.56"/><path class="cls-4" d="M353.65,242.67c16.74-24.46,55.76-31.35,77.67-14.09,14.19,11.18,19.44,29.57,13.92,50.46.79-25.66-6.05-46.82-31.43-54.4-23-6.86-42.68,2.05-60.16,18"/><path class="cls-4" d="M384.63,211c5.19-2,10.25-4.9,15.6-5.84,20.89-3.65,39.6,1.37,54.53,18.1,15.76,17.68,13.63,47.76-4.35,66,2.33-5.21,4.94-10.31,6.95-15.66C467.73,246,455.3,219,428.59,209.87c-14.88-5.07-29.4-3.63-44,1.08"/><path class="cls-4" d="M503.08,214.08c15.16,17.63,22.45,38.09,18.2,62-4.81,27-25.57,41.8-51,36.87-4.37-.84-8.59-2.55-12.88-3.86,5,.51,9.91,1.28,14.88,1.47,27.39,1,46.58-18.66,46.93-48,.18-15.78-5-29.68-13.25-42.52a58.46,58.46,0,0,1-2.89-5.89"/><path class="cls-4" d="M457.37,306c7-1.29,14.06-2.17,20.93-3.95,22.93-5.94,36.5-29.46,31.74-54-3.08-15.92-10.13-29.29-21.42-40.17a32,32,0,0,1-2.5-2.7c-.24-.28-.21-.82-.31-1.27,20.29,12.81,33.21,45.36,27.35,68.81-5.19,20.76-21.39,33.52-43.06,33.76-4.26,0-8.54-.35-12.81-.55,0,0,.08.1.08.1"/><path class="cls-4" d="M458.84,296.91c5.55-3.81,11.51-7.1,16.57-11.54,18.54-16.3,21.4-42,7.61-63.13-9.95-15.24-23.92-24.1-40.43-29.1.28-.69.55-1.37.83-2,7,3.06,14.35,5.49,21,9.33,14,8.16,24.37,20.14,29.36,36.57,8.42,27.74-7.47,54.72-35,59.81l.09.11"/><path class="cls-4" d="M427.63,291.6c-6.76-4.62-13.06-10.39-20.35-13.62-21.67-9.6-43.71-.15-55.45,23.77a71.76,71.76,0,0,0-4.8,51.47c-6.34-8-5-17.67-4.37-26.71,1.77-23.48,10.48-42.92,31.63-53.45,18.14-9,43.95.17,53.34,18.54"/><path class="cls-4" d="M338.33,329.6c-.84-24.12,5.67-45.34,24.21-60.68,19.42-16.06,43-13.35,59.4,6.11a27.48,27.48,0,0,1,5.7,9.94c-2-2.09-4-4.17-6.05-6.26-22.09-23-52.23-19.82-69.85,7.41-8.24,12.72-10.28,19.54-13.41,43.48"/><path class="cls-4" d="M456,311.3c29.76,17.43,61.64,3.95,69.1-29.27,4.36-19.43.43-37.42-8.6-54.49-1.26-2.39-2.28-4.92-3.42-7.38,17.9,22.81,21.79,57.18,9,80.06-16,28.79-45.53,26.54-65,13-.53-.37-.74-1.27-1.09-1.93"/></g></g></svg>