<svg id="Calque_1" data-name="Calque 1" xmlns="http://www.w3.org/2000/svg" xmlns:xlink="http://www.w3.org/1999/xlink" viewBox="0 0 841.89 595.28"><defs><style>.cls-1{fill:none;}.cls-2{clip-path:url(#clip-path);}.cls-3{clip-path:url(#clip-path-2);}.cls-4{fill:#fff;}</style><clipPath id="clip-path"><rect class="cls-1" width="841.89" height="595.28"/></clipPath><clipPath id="clip-path-2"><rect class="cls-1" width="841.89" height="595.28"/></clipPath></defs><title>Plan de travail 12</title><g class="cls-2"><g class="cls-3"><path d="M0,430.85V367.73c1.86,7.37,4.39,14.65,5.48,22.12C16.18,463.47,45.76,529.29,92.8,587.8c3.52,4.37,9.84,6.64,14.86,9.88l3.14-3.89c-4.5-5.71-9-11.39-13.49-17.14-55.13-71.4-85.46-151.83-85.19-240.78.42-136.41,58-246.25,172-327.59,3.22-2.3,5.77-5.5,8.63-8.28h22.67c-4,3.09-7.7,6.49-11.91,9.21C96.68,78.29,36.05,174.81,25.06,298.5,15.36,407.79,48.67,505.09,122,589c3.63,4.15,10.69,5.49,18.82,9.44-19.59-27.67-38.23-50.77-53.31-75.88-52.41-87.25-66.8-181.25-42.7-278.9,25.15-101.95,85-181,179.41-234.32,4.14-2.34,7.36-6.2,11-9.35H263.6c-3.44,2.27-6.65,5-10.36,6.73a368.32,368.32,0,0,0-94.85,63.94C102.91,121.78,69.89,184.88,53.1,256.41,38.86,317,43,377.48,60.71,436.63,77.9,494,108.24,544.91,150.89,588.42c4.33,4.42,11.81,6,17.82,8.84C155.87,577.71,141,561.82,128,544.54,70,467.06,45.62,379.63,59.48,285.55c18.26-124,85.86-216.42,204-271.73C273,9.35,282.45,4.61,291.94,0h42.51c-4.28,1.71-8.41,4-12.86,5.05-51,12.17-96.6,35.57-135.06,69.4C92.73,157,54.66,260.53,71.55,381.91c11.35,81.62,50,150.67,111.19,207.7,4.54,4.23,12.07,5.45,18.22,8.07C82.23,478.82,42.73,345.31,110.88,190.34,154,92.31,254.68,27.07,333.12,15c-3.54,1.8-5.52,3-7.64,3.86C189.62,74,116.23,200.29,138.93,339.89c20.94,128.79,138.75,224.78,273.57,222C554.93,559,657.27,444,652.57,323.69c-3.38-86.62-61.42-164.8-146-191.36C401.14,99.21,288.24,160,268.72,261.9c-2.75,14.38-2.49,29.3-3.63,44l4,.51c8-37.09,25.73-68.12,56.85-92,56.93-43.62,152.52-33.31,186.41,39.47C533.44,299.1,509.1,356.77,462.13,369c-31.51,8.17-63.46-9.86-67.05-37.83-2.46-19.21,11.86-30.42,30.36-23.76-5.14,7.57-10.21,16.7-2.19,23.56,6.27,5.35,16.19,8.9,24.63,9.18,15.95.55,31.61-13.94,37.11-31.08,14.31-44.53-29-92.25-81.07-89.24C345.41,223.15,301.06,269.46,300,328.26,298.94,389.88,344.31,444.79,409,460.15c4.43,1.05,8.84,2.17,13.25,3.26-49.35,6-92.46-7.15-128.35-39.1-91-81-77.86-218.2,20.33-289.77C424.34,54.28,568.43,90.08,639.77,189.9c96.62,135.19,35.62,316.55-120.22,381.32-147.21,61.18-309.22-2.34-381.61-135.83-2.63-4.86-5.2-9.74-7.64-14.69-2.36-4.79-4.51-9.68-8.2-17.66,0,5.1-.31,6.52,0,7.76,21.68,76.26,67.07,136.21,134,181,5.59,3.74,14,3.58,21.05,5.23,0-.71,0-1.41,0-2.11l-69.63-54.26,2.28-2.61c12,8,23.45,17,36.07,23.93,36.76,20.26,74.5,36.78,118.78,34.52,33.9-1.74,68-.17,102-.36,7,0,14.29-.41,21-2.26C636.2,552.56,720,411.17,691.15,277.59,668.07,170.78,574.63,87.94,463.54,80.75c-120.79-7.82-228.24,75.19-240.62,191C211.5,378.49,299.47,484,416.13,476.74c30.08-1.87,57.59-10.24,81.43-28.58-6.68.36-13,2.06-19.35,3.22-40.25,7.27-77.85,1.79-111.95-21.5C301.2,385.44,292,301.87,347,252.41c42.36-38.15,109.69-25.73,128,23.62,9.81,26.37-8.29,56.91-33.62,55.7-5.27-.25-12-3.8-14.83-7.91-1.76-2.6,2.58-9.08,4.18-13.82,12.58,4.57,16.11-3.3,17.34-12.62,1.67-12.78-7.17-25.09-22-32.17-25.84-12.37-60.45,2.39-74.72,31.87-26.79,55.34,20.29,122.12,86.32,125.54,70.88,3.68,125.84-51,134.88-109.11,4-25.47.84-50.23-6.36-74.93a12.41,12.41,0,0,1,4.13,4c42.18,61.79,35.26,146-16.61,202.23-75,81.3-209.25,85.27-291.07,10.05C169.71,369.4,162,229.32,252.29,132.22c95.58-102.8,249.08-111.83,360.56-29.3,118.38,87.63,150.33,235.83,82.56,364.18-8.67,16.42-19.16,31.93-30.77,51.09,4.81-3.88,7-5.26,8.66-7,49.72-51.93,80.66-113,87.79-183.34,10.85-107.25-22.24-200.54-103.05-276C637.78,32.93,614.35,17.19,592.38,0h22.68c6.72,5.46,13.39,11,20.16,16.38,85.39,68.06,135.38,154.34,138.31,262.4,3.4,125.61-50.74,223.31-159.75,291.87-14,8.82-29.45,15.56-44.87,23.6,17.1,3.37,21.35,2.89,37.81-6.47,93.07-52.94,152.07-129.7,172.1-233.06C799.28,249.11,773,154,705.09,70.31c-21-25.95-48.5-47-73-70.31H651.9c4.45,4.58,8.54,9.55,13.4,13.68C744.07,80.51,789.43,165,795.52,265.51c7.85,129.75-44.4,234.93-152.49,313.13-7.67,5.55-16.12,10.08-24.2,15.09l2.35,4.6c9.06-3.58,19.14-5.73,27-11,78.72-52.32,129.38-125,149.49-214,29.94-132.68-6.59-249.45-103.59-348-8.34-8.48-16.8-16.86-25.2-25.29h17c3.43,4.25,6.72,8.61,10.33,12.71,17.43,19.79,37.16,38.07,52,59.5,53.38,76.88,77.85,161.66,68.19,254.62-9.49,91.27-47.56,169.35-116.09,233-12.95,12-27,23-40.54,34.44l2.07,3.6c6.48-2.65,13.94-4.09,19.3-8.13A362,362,0,0,0,783.56,470.55c53-98.91,59.26-201.52,24.38-306.92C786.88,100,748.62,46.77,700.09,0h17c7.71,8.56,15.67,16.92,23.07,25.71,60.55,72,95.47,153.67,100.13,247,4.09,82-17.81,157.32-61.26,227.2-22.29,35.86-51.42,66.17-82.8,95.57,6.35-.23,13.42-.45,17.37-4,56.1-49.82,96.16-109.58,119.66-180,16.48-49.39,14.79-100,15.09-150.72.21-35.31-7.51-69-18.78-102.09C809.13,98.67,775.05,46.48,731.27,0h17c4.63,6.31,9.5,12.46,13.84,19,18.87,28.28,39,55.88,55.85,85.28,12,21.07,19.48,44.6,29,67,.63-13.74.6-28-4.86-39.9A836.53,836.53,0,0,0,799.83,51.1C789.08,33.11,775,17,762.44,0h14.18L848,106.53c-.47-9.63-1.2-20.08-6.11-28.13C825.66,51.8,807.93,26.07,790.79,0H805l41,60.52,4.15-1.75c-2.7-7.76-4.37-16.06-8.32-23.16C835,23.35,826.76,11.83,819.13,0h31.18V598.25H0v-24.7c4.5,5.58,8.48,11.68,13.68,16.55,3.33,3.13,8.46,4.47,12.78,6.6l2.26-3.53Q14.35,572.4,0,551.6V526.9C2.79,531,5.76,535,8.34,539.24c10.05,16.49,19.55,33.32,30.23,49.41,2.72,4.09,9,5.94,13.69,8.82C37.64,566.37,21.71,538,5.66,509.61c-1.51-2.67-3.75-4.95-5.66-7.41V469.27c2.16,3.91,4.38,7.8,6.48,11.74C25,515.82,43.39,550.75,62.3,585.38c3.89,7.13,9.36,14.26,20.86,9-2.27-3.18-4.33-6.11-6.44-9-23.51-32.16-45-65.36-57.9-103.12C12.9,465,6.29,448,0,430.85M115.09,242.32a26.51,26.51,0,0,1,.28,4.44C101.31,358.45,137.08,451.9,227.72,522.87,342,612.38,499.46,602.7,603.38,501.92c78-75.61,93.82-199.83,37.17-291.37-59.65-96.36-178.49-134.4-281-89.94C262,162.92,217.91,271.41,261.08,363.76c17.16,36.7,45.72,62.41,80.52,78.53-12.38-17.05-28.17-34.27-38.7-54.11-31.1-58.66-8.75-132.68,47.71-164.41,55.68-31.28,122.75-10.67,144.1,44.29,11.21,28.87-1,62.85-27.88,77.42-14.66,7.95-32.57,6.94-43.88-2-12.46-9.8-13.43-21.12-3.51-34.73-13.57,2.73-16.21,10.55-15.14,19.93,1.93,16.84,17.4,30,35.9,31.34,35.8,2.51,66.13-25.66,68.67-62.32,4-57-48.36-102.7-108.75-98.63-69.57,4.69-121.62,60.69-121.35,128.59.08,18.79,4.38,37.57,6.54,54.77-45.63-56.16-40-148.21,14-205.91,76.1-81.39,209-85.71,290.87-9.43,87.76,81.74,98.63,209,25.12,304.4-85.68,111.2-248.55,138.2-373.66,48.7-129.29-92.48-155.2-262-68.18-393.56,5.77-8.72,12.15-17.06,18.24-25.58C138.85,145.79,97.55,224.61,91.42,291.31c-11,120.09,29.94,220,125.31,298.22,5.15,4.22,13,5.38,19.55,8C91.36,482,83.23,325,115.09,242.32M561.72,393.13c-41.49,88.78-156.34,121.18-248,70.93-119.2-65.34-136.37-223.61-42.5-320.44,104-107.29,274.77-93.11,368.92,12.3,103.58,116,86,294.62-38.07,390.37-24,18.52-51.08,33.29-80.3,52.08,12.53-2.89,22.55-3.41,30.8-7.37C662,538.49,738.16,414.55,714.1,281.54,685.55,123.76,524.16,24.35,369,71.24,252,106.61,181.81,222,204.07,332.09c21.11,104.45,119.5,178.08,226,164.3,66.48-8.61,115.35-42.88,143.42-102.8,12.35-26.38,16.38-57.72,10.52-79.07-1.49,5.72-2.59,10-3.73,14.33-20.12,75.54-96.14,119.77-170.62,98.68-66-18.67-101.2-96.61-58.45-149.7,24.4-30.32,68.07-36,94.14-11.14,10.94,10.43,14.36,22.67,10.54,36.3-3.67,13.12-15.25,15.1-30,13.18,10.85,10.25,19.71,9.64,28.59,2.9,14.89-11.32,17.54-32.52,6.42-49.56-15.59-23.89-45.51-34.51-74.19-26.33-49.75,14.18-76.86,67.25-60.25,117.92,22.68,69.19,108.07,104.1,176.86,70.66,21.49-10.45,40.14-26.35,58.42-38.63M728,593.67l2.65,4.48c6-3.22,13.06-5.34,17.74-9.82,36.27-34.72,64.37-75.14,85.82-119.77,9.2-19.16,18.65-38.79,12-63.31C823.09,479,785.21,542.08,728,593.67M846.94,470.79c-13.6,22.35-25.43,44.08-39.53,64.33-14.37,20.63-31,39.81-46.58,59.62,7.07,0,14.53-1.79,18.2-6.39,18.13-22.7,36.32-45.5,52.33-69.6,9.08-13.66,20.79-27.81,15.58-48m.24,47.05c-19.36,26.32-38,51.64-56.54,76.91,17.87,2.28,58.77-52.27,56.54-76.91m-29.65,77.35c18.74.73,32.57-17.84,28.64-37l-28.64,37"/><path class="cls-4" d="M430.73,310c-1.6,4.74-5.94,11.22-4.18,13.82,2.79,4.11,9.56,7.66,14.83,7.91,25.33,1.21,43.43-29.33,33.62-55.7-18.35-49.34-85.68-61.77-128-23.62-54.93,49.46-45.76,133,19.3,177.47,34.1,23.29,71.69,28.77,112,21.5,6.38-1.16,12.67-2.86,19.35-3.22-23.84,18.34-51.35,26.71-81.43,28.58-116.66,7.25-204.63-98.25-193.21-205,12.38-115.79,119.83-198.8,240.62-191,111.09,7.19,204.53,90,227.61,196.84C720,411.17,636.2,552.56,487.6,593.84c-6.67,1.85-14,2.22-21,2.26-34,.19-68.08-1.38-102,.35-44.28,2.27-82-14.25-118.78-34.51C233.26,555,221.8,546,209.81,538l-2.28,2.61,69.63,54.26c0,.7,0,1.4,0,2.11-7.09-1.65-15.46-1.49-21.05-5.23-66.92-44.75-112.3-104.7-134-181-.35-1.24,0-2.66,0-7.76,3.69,8,5.84,12.87,8.2,17.66,2.44,4.95,5,9.83,7.64,14.69,72.39,133.49,234.4,197,381.61,135.83C675.39,506.45,736.39,325.09,639.77,189.9,568.43,90.08,424.34,54.28,314.2,134.54,216,206.11,202.87,343.33,293.87,424.31c35.89,31.95,79,45.07,128.35,39.1-4.41-1.09-8.82-2.21-13.25-3.26-64.66-15.36-110-70.27-108.94-131.89,1-58.8,45.38-105.11,103.89-108.49,52-3,95.38,44.72,81.07,89.25-5.5,17.14-21.16,31.63-37.11,31.08-8.44-.28-18.36-3.83-24.63-9.18-8-6.86-2.95-16,2.19-23.56l-.41.25c3.72-11.85-3.64-21.48-16.1-17.93-10,2.85-21.26,9.18-26.83,17.28-17.54,25.48-2.13,62.14,30.43,76.81,56.46,25.43,125-19.88,129-83.1,4.85-76.09-63.37-134.48-133.88-133.06-18.17.36-36.28,3.78-53.78,5.73,19.29-14.82,46-24.77,71.79-27.85,101.49-12.1,192.54,63.45,203.57,162.29,15.44,138.33-107.62,245.53-246,232.13C235,525.54,143.62,396,157.19,266.25c19.23-183.8,214-295.15,392.74-232.41a348.49,348.49,0,0,1,93.52,49.73c-1.31-2.93-2.92-5.59-5.27-7.29-24.44-17.79-48.47-36.16-73.73-52.8C550.27,14.14,534,7.73,518.69,0H544.2c2.69,1.76,5.2,3.89,8.1,5.22C628,40.1,682,95.36,715.81,169.18c6.73,14.69,10.86,30.5,16.18,45.8-4-1.49-5.12-4-6.3-6.43C672.87,99.12,585.89,35,460.1,28,298,19,165.81,144.58,167.07,292.71,168.22,426.88,282,534.43,413.77,530.28c123.05-3.88,219.52-107.85,204.14-224.93C607,222.11,535.72,158.16,449.7,154.62c-6.4-.26-12.86,1-19.29,1.49C486,171,521.6,197.39,541.92,240.61c27.82,59.19,2.12,127.11-58.17,153.78-40.5,17.92-88.57,3.42-111.11-33.5-18.39-30.12-4.29-71.74,26.89-79.4C422,276,435.6,288.62,430.6,310.38Z"/><path class="cls-4" d="M425.44,307.36c-18.5-6.66-32.82,4.55-30.36,23.76,3.59,28,35.54,46,67.05,37.83,47-12.18,71.31-69.85,50.25-115.06C478.49,181.12,382.9,170.8,326,214.42c-31.12,23.84-48.89,54.87-56.85,92l-4-.51c1.14-14.67.88-29.59,3.63-44C288.24,160,401.14,99.21,506.59,132.33c84.56,26.56,142.6,104.74,146,191.36C657.27,444,554.93,559,412.5,561.93c-134.83,2.74-252.63-93.25-273.57-222C116.23,200.29,189.62,74,325.48,18.82c2.12-.86,4.1-2.06,7.64-3.86C254.68,27.07,154,92.31,110.88,190.34,42.73,345.31,82.23,478.82,201,597.68c-6.15-2.62-13.68-3.84-18.22-8.07-61.21-57-99.84-126.08-111.19-207.7C54.66,260.53,92.73,157,186.53,74.45c38.46-33.83,84-57.23,135.06-69.4C326,4,330.17,1.71,334.46,0H476.17l17.47,7.76c-3.45.23-4.86.53-6.21.38-76.53-8.71-147,6.75-211.53,48.21-115.09,74-161.07,212.12-109.69,336.46,53.72,130,203.67,190.56,328.51,142.56,135-51.89,188.45-205.75,111.21-318.25-50-72.8-160.3-113-253.15-56.76a151.91,151.91,0,0,0-62.2,71.4c19.1-20.36,41.13-36.23,67.76-46.11,70.72-26.24,150.44,11.36,169.53,80.16,13,46.95-12.5,95.84-58.15,111.36-31.18,10.6-64.83-1.16-79.48-27.78-10.38-18.87-5.44-40.27,11.42-49.47,10.23-5.58,17.89-3.06,23.38,7.69Z"/><path class="cls-4" d="M592.38,0c22,17.19,45.4,32.93,65.66,51.84,80.81,75.43,113.9,168.72,103.05,276C754,398.2,723,459.22,673.3,511.15c-1.7,1.78-3.85,3.16-8.66,7,11.61-19.16,22.1-34.67,30.77-51.09,67.76-128.35,35.82-276.55-82.56-364.18-111.48-82.53-265-73.5-360.56,29.3C162,229.32,169.71,369.4,262.65,454.83c81.82,75.21,216.09,71.24,291.07-10.06,51.87-56.23,58.79-140.44,16.61-202.23a12.41,12.41,0,0,0-4.13-4c7.2,24.7,10.32,49.46,6.36,74.93-9,58.15-64,112.79-134.88,109.11-66-3.42-113.11-70.2-86.32-125.54,14.27-29.48,48.88-44.24,74.72-31.88,14.82,7.09,23.66,19.4,22,32.18-1.23,9.32-4.76,17.19-17.34,12.62l-.13.38c11.37-8.73,12.56-17.52,3.72-27.57-13.1-14.9-35.16-16.38-53.74-3.6-34.48,23.7-35.66,74-2.49,105.68,38,36.32,102.08,36.23,142.39-.19,56-50.61,58-134.51,4.35-187.8-5.49-5.45-11.06-10.83-16.58-16.24C580.83,209,621.48,288.79,605,365.82c-26.88,125.52-169.68,189.35-291,134.08C215.8,455.21,165.46,359.19,181,254.6c17-114.29,122-207.48,241.21-216,164-11.7,295,105.81,314.56,248.28,4.07,29.64.59,60.25.59,90.41a181.82,181.82,0,0,0,13-46.18C767.49,205.48,699.82,73.22,586.88,10.29,581.76,7.44,577.3,3.46,572.54,0Z"/><path d="M572.54,0c4.77,3.46,9.22,7.44,14.34,10.29C699.82,73.22,767.49,205.48,750.41,331.13a181.85,181.85,0,0,1-13,46.18c0-30.16,3.48-60.77-.59-90.41C717.22,144.43,586.18,26.92,422.2,38.62,303,47.12,198,140.31,181,254.6c-15.54,104.59,34.8,200.61,132.94,245.3C435.31,555.17,578.11,491.34,605,365.82c16.49-77-24.16-156.79-96.74-185.16,5.52,5.41,11.09,10.79,16.58,16.24,53.61,53.29,51.66,137.19-4.35,187.8-40.31,36.42-104.4,36.51-142.4.19-33.16-31.7-32-82,2.5-105.68,18.58-12.78,40.64-11.3,53.74,3.6,8.84,10.05,7.65,18.84-3.72,27.57,5-21.76-8.59-34.41-31.06-28.89-31.19,7.66-45.29,49.28-26.91,79.4,22.55,36.92,70.62,51.42,111.12,33.5,60.29-26.67,86-94.59,58.17-153.78C521.6,197.39,486,171,430.41,156.11c6.43-.53,12.89-1.75,19.29-1.49,86,3.54,157.27,67.49,168.21,150.73,15.38,117.08-81.09,221-204.14,224.93-131.83,4.15-245.55-103.4-246.7-237.57C165.81,144.58,298,19,460.1,28c125.79,7,212.77,71.09,265.59,180.52,1.18,2.45,2.29,4.94,6.3,6.43-5.32-15.3-9.45-31.11-16.18-45.8C682,95.36,628,40.1,552.3,5.22c-2.9-1.33-5.41-3.46-8.1-5.22Z"/><path d="M425,307.61c-5.48-10.75-13.14-13.27-23.37-7.69-16.86,9.2-21.8,30.6-11.42,49.47,14.65,26.62,48.3,38.38,79.48,27.78,45.65-15.52,71.17-64.41,58.15-111.36-19.09-68.8-98.81-106.4-169.53-80.16-26.63,9.88-48.66,25.75-67.76,46.11a151.91,151.91,0,0,1,62.2-71.4c92.85-56.21,203.16-16,253.15,56.76,77.24,112.5,23.76,266.36-111.21,318.25-124.84,48-274.79-12.58-328.51-142.56C114.83,268.47,160.81,130.3,275.9,56.35,340.42,14.89,410.9-.57,487.43,8.14c1.35.15,2.76-.15,6.21-.38L476.17,0h42.52C534,7.73,550.27,14.13,564.45,23.48c25.26,16.64,49.29,35,73.74,52.8,2.34,1.7,3.95,4.36,5.26,7.29a348.49,348.49,0,0,0-93.52-49.73C371.15-28.9,176.42,82.45,157.19,266.25,143.62,396,235,525.54,383.29,539.91c138.36,13.4,261.42-93.8,246-232.13-11-98.84-102.08-174.39-203.57-162.29-25.76,3.08-52.5,13-71.79,27.85,17.5-2,35.61-5.37,53.78-5.73,70.52-1.42,138.73,57,133.88,133.06-4,63.22-72.58,108.53-129.05,83.1C380,369.1,364.56,332.44,382.1,307c5.57-8.1,16.86-14.43,26.84-17.28,12.45-3.55,19.81,6.08,16.09,17.93"/><path class="cls-4" d="M291.94,0C282.45,4.61,273,9.35,263.47,13.82,145.34,69.13,77.74,161.51,59.48,285.55,45.62,379.63,70,467.06,128,544.54c12.94,17.28,27.86,33.17,40.7,52.72-6-2.88-13.49-4.42-17.82-8.84-42.65-43.51-73-94.42-90.18-151.8C43,377.48,38.86,317,53.1,256.41c16.79-71.53,49.81-134.63,105.29-185.74A368.32,368.32,0,0,1,253.24,6.73C257,5,260.16,2.27,263.6,0Z"/><path class="cls-4" d="M632.06,0c24.53,23.3,52,44.36,73,70.31C773,154,799.28,249.11,778.82,354.72c-20,103.36-79,180.12-172.1,233.06-16.46,9.36-20.71,9.84-37.81,6.47,15.42-8,30.84-14.77,44.87-23.6,109-68.56,163.15-166.25,159.75-291.87C770.6,170.71,720.61,84.44,635.22,16.38,628.45,11,621.78,5.46,615.06,0Z"/><path class="cls-4" d="M668.91,0c8.4,8.43,16.86,16.81,25.2,25.29,97,98.57,133.53,215.34,103.59,348C777.59,462.4,726.93,535,648.21,587.36c-7.89,5.24-18,7.39-27,11l-2.35-4.6c8.08-5,16.53-9.54,24.2-15.09,108.09-78.2,160.34-183.38,152.49-313.13C789.43,165,744.07,80.51,665.3,13.67,660.44,9.55,656.35,4.58,651.9,0Z"/><path class="cls-4" d="M235.25,0c-3.65,3.15-6.87,7-11,9.35C129.87,62.68,70,141.72,44.83,243.67c-24.1,97.65-9.71,191.65,42.7,278.9,15.08,25.11,33.72,48.21,53.31,75.88-8.13-4-15.19-5.29-18.82-9.44-73.35-83.92-106.66-181.22-97-290.51C36.05,174.81,96.68,78.29,203.5,9.21c4.21-2.72,7.95-6.12,11.91-9.21Z"/><path class="cls-4" d="M700.09,0c48.53,46.77,86.79,100,107.85,163.63,34.88,105.4,28.66,208-24.38,306.92A362,362,0,0,1,681.22,589.77c-5.36,4-12.82,5.48-19.3,8.13l-2.07-3.6c13.54-11.45,27.59-22.4,40.55-34.44,68.52-63.68,106.59-141.76,116.08-233,9.66-93-14.81-177.74-68.19-254.62-14.88-21.43-34.61-39.71-52-59.5-3.61-4.1-6.9-8.47-10.33-12.71Z"/><path class="cls-4" d="M192.74,0c-2.86,2.78-5.41,6-8.63,8.28-114,81.34-171.57,191.18-172,327.59-.27,88.95,30.06,169.38,85.18,240.78,4.45,5.75,9,11.43,13.5,17.14l-3.14,3.89c-5-3.24-11.34-5.51-14.86-9.88-47-58.51-76.62-124.33-87.32-197.95C4.39,382.38,1.86,375.1,0,367.73V304.61c2-11.09,4.23-22.14,5.88-33.28,11.89-80.5,45.82-151.2,102.59-210.92C129.11,38.69,153.21,20.05,175.73,0Z"/><path class="cls-4" d="M731.27,0c43.78,46.48,77.86,98.67,98.3,158.63,11.27,33.09,19,66.78,18.78,102.09-.3,50.74,1.39,101.33-15.09,150.72-23.5,70.44-63.56,130.2-119.66,180-4,3.52-11,3.74-17.37,4,31.38-29.4,60.51-59.71,82.8-95.57,43.45-69.88,65.35-145.22,61.26-227.2-4.66-93.28-39.58-175-100.13-246.95C732.76,16.91,724.8,8.56,717.09,0Z"/><path d="M175.73,0c-22.52,20.05-46.62,38.69-67.26,60.41C51.7,120.13,17.77,190.83,5.88,271.33,4.23,282.47,2,293.52,0,304.61V230.52c2.24-4.34,5.24-8.46,6.59-13C28.29,143.83,66.69,80,125.13,28,135.48,18.73,145.64,9.32,155.89,0Z"/><path class="cls-4" d="M155.89,0c-10.25,9.32-20.41,18.73-30.76,28C66.69,80,28.29,143.83,6.59,217.48c-1.35,4.58-4.35,8.7-6.59,13V192.1c2.87-5,5.87-9.95,8.59-15,14.69-27.4,28-55.6,44.27-82.07,22.51-36.61,53.54-66.56,86-95Z"/><path d="M138.88,0c-32.48,28.44-63.51,58.39-86,95-16.28,26.47-29.58,54.67-44.27,82.07-2.72,5.08-5.72,10-8.59,15V161.91c1.81-1.91,4.32-3.54,5.34-5.79A437,437,0,0,1,110.25,11.77C113.83,8.51,116.14,4,119,0Z"/><path class="cls-4" d="M119,0c-2.9,4-5.21,8.51-8.79,11.77A437,437,0,0,0,5.34,156.12c-1,2.25-3.53,3.88-5.34,5.79v-24.7c2.22-2.72,4.63-5.33,6.63-8.2C29,97,50.72,64.63,73.78,33.14,82.63,21.06,94.42,11,104.87,0Z"/><path class="cls-4" d="M762.44,0C775,17,789.08,33.11,799.83,51.1a836.53,836.53,0,0,1,42.25,80.27c5.46,11.92,5.49,26.16,4.86,39.9-9.5-22.44-16.93-46-29-67-16.8-29.4-37-57-55.85-85.28C757.77,12.46,752.9,6.31,748.27,0Z"/><path class="cls-4" d="M0,430.85C6.29,448,12.9,465,18.82,482.28c12.93,37.76,34.39,71,57.9,103.12,2.11,2.9,4.17,5.83,6.44,9-11.5,5.23-17-1.9-20.86-9C43.39,550.75,25,515.82,6.48,481c-2.1-3.94-4.32-7.83-6.48-11.74Z"/><path d="M104.87,0C94.42,11,82.64,21.06,73.78,33.14,50.72,64.63,29,97,6.63,129c-2,2.87-4.41,5.48-6.63,8.2V112.52c2-1.84,4.31-3.41,5.85-5.54,18.33-25.31,36.23-50.93,55-76C69,20.08,78.79,10.3,87.87,0Z"/><path class="cls-4" d="M87.87,0C78.79,10.3,69,20.08,60.8,31c-18.72,25-36.62,50.65-54.95,76C4.31,109.11,2,110.68,0,112.52v-22c1.47-1,3.31-1.7,4.35-3Q39.11,43.84,73.69,0Z"/><path class="cls-4" d="M790.79,0c17.14,26.07,34.87,51.8,51.08,78.4,4.91,8,5.64,18.5,6.11,28.13L776.62,0Z"/><path d="M73.69,0Q39.06,43.8,4.35,87.55c-1,1.31-2.88,2-4.35,3V71.35L56.69,0Z"/><path d="M0,52.14V0H42.52L0,52.14"/><path class="cls-4" d="M0,502.2c1.91,2.46,4.15,4.74,5.66,7.41,16.05,28.35,32,56.76,46.6,87.86-4.66-2.88-11-4.73-13.69-8.82-10.68-16.09-20.18-32.92-30.23-49.41C5.76,535,2.79,531,0,526.9Z"/><path class="cls-4" d="M0,52.14,42.52,0H56.69L0,71.35Z"/><path class="cls-4" d="M819.13,0C826.76,11.83,835,23.35,841.8,35.61c4,7.1,5.62,15.4,8.32,23.16L846,60.52,805,0Z"/><path class="cls-4" d="M0,551.6q14.36,20.79,28.72,41.57l-2.26,3.53c-4.32-2.13-9.45-3.47-12.78-6.6-5.2-4.87-9.18-11-13.68-16.55Z"/><path class="cls-4" d="M115.09,242.32C83.23,325,91.36,482,236.28,597.5c-6.58-2.59-14.4-3.75-19.55-8C121.36,511.33,80.38,411.4,91.42,291.31c6.13-66.7,47.43-145.52,100.25-190.23-6.09,8.52-12.47,16.86-18.24,25.58-87,131.52-61.11,301.09,68.18,393.56,125.11,89.5,288,62.5,373.66-48.7,73.51-95.41,62.64-222.66-25.12-304.4-81.89-76.28-214.77-72-290.87,9.43-53.94,57.7-59.6,149.75-14,205.91-2.16-17.2-6.46-36-6.54-54.77-.27-67.9,51.78-123.9,121.35-128.59,60.39-4.07,112.72,41.61,108.75,98.63-2.54,36.66-32.87,64.83-68.67,62.32-18.5-1.3-34-14.5-35.9-31.34-1.07-9.38,1.57-17.2,15.14-19.93-9.92,13.61-8.95,24.93,3.51,34.73,11.31,8.91,29.22,9.92,43.89,2,26.85-14.57,39.08-48.55,27.87-77.42-21.35-55-88.42-75.57-144.1-44.29C294.15,255.5,271.8,329.52,302.9,388.18c10.53,19.84,26.32,37.06,38.7,54.11-34.8-16.12-63.36-41.83-80.52-78.53-43.17-92.35.9-200.84,98.46-243.15,102.52-44.46,221.36-6.42,281,89.94,56.65,91.54,40.8,215.76-37.17,291.37C499.46,602.7,342,612.38,227.72,522.87c-90.64-71-126.41-164.41-112.35-276.11a26.51,26.51,0,0,0-.28-4.44"/><path class="cls-4" d="M561.72,393.14c-18.28,12.27-36.93,28.17-58.42,38.62-68.79,33.44-154.18-1.47-176.86-70.66-16.61-50.67,10.5-103.74,60.25-117.92,28.68-8.18,58.6,2.44,74.19,26.34,11.11,17,8.47,38.23-6.42,49.55-8.88,6.74-17.74,7.35-28.59-2.9,14.79,1.92,26.36-.06,30-13.18,3.82-13.63.4-25.87-10.54-36.3-26.07-24.85-69.74-19.18-94.14,11.14-42.75,53.09-7.51,131,58.45,149.7,74.48,21.09,150.5-23.14,170.62-98.68,1.14-4.3,2.24-8.61,3.73-14.33,5.86,21.35,1.83,52.69-10.52,79.07-28.07,59.92-76.94,94.19-143.43,102.8-106.5,13.78-204.89-59.85-226-164.3C181.81,222,252,106.61,369,71.24c155.13-46.89,316.52,52.52,345.07,210.3,24.06,133-52.14,257-161.54,309.46-8.25,4-18.27,4.48-30.8,7.38,29.22-18.8,56.31-33.57,80.3-52.09,124.05-95.75,141.65-274.4,38.08-390.37C546,50.51,375.22,36.34,271.21,143.62c-93.87,96.83-76.7,255.1,42.5,320.44,91.67,50.25,206.52,17.85,248-70.92"/><path class="cls-4" d="M728,593.67C785.21,542.08,823.09,479,846.2,405.25c6.68,24.52-2.77,44.15-12,63.31-21.45,44.63-49.55,85.05-85.82,119.77-4.68,4.48-11.76,6.6-17.74,9.82L728,593.67"/><path class="cls-4" d="M846.94,470.79c5.21,20.15-6.5,34.3-15.58,48-16,24.1-34.2,46.9-52.33,69.6-3.67,4.6-11.13,6.36-18.2,6.39,15.62-19.81,32.21-39,46.58-59.62,14.09-20.25,25.93-42,39.53-64.33"/><path class="cls-4" d="M847.18,517.84c2.23,24.64-38.67,79.19-56.54,76.91,18.58-25.27,37.18-50.59,56.54-76.91"/><path class="cls-4" d="M817.53,595.19l28.64-37c3.93,19.14-9.9,37.71-28.64,37"/></g></g></svg>