<svg id="Calque_1" data-name="Calque 1" xmlns="http://www.w3.org/2000/svg" xmlns:xlink="http://www.w3.org/1999/xlink" viewBox="0 0 841.89 595.28"><defs><style>.cls-1,.cls-3,.cls-4,.cls-5{fill:none;}.cls-2{clip-path:url(#clip-path);}.cls-3{stroke:#000;}.cls-3,.cls-4{stroke-width:2px;}.cls-4,.cls-5{stroke:#fff;}</style><clipPath id="clip-path"><rect class="cls-1" width="841.89" height="595.28"/></clipPath></defs><title>Plan de travail 3</title><g class="cls-2"><polygon points="231.97 0 76.75 595.28 766.56 595.28 611.34 0 231.97 0"/><g class="cls-2"><polygon class="cls-3" points="607.16 -16.01 236.15 -16.01 50.64 695.39 236.15 1406.79 607.16 1406.79 792.67 695.39 607.16 -16.01"/><path class="cls-4" d="M320.73,356.63a9.16,9.16,0,1,0-9.16-9.15A9.15,9.15,0,0,0,320.73,356.63Z"/><path class="cls-4" d="M521.16,356.63a9.16,9.16,0,1,0-9.15-9.15A9.16,9.16,0,0,0,521.16,356.63Z"/></g><line class="cls-5" x1="330.88" y1="346.98" x2="511.01" y2="346.98"/></g></svg>