<svg id="Calque_1" data-name="Calque 1" xmlns="http://www.w3.org/2000/svg" xmlns:xlink="http://www.w3.org/1999/xlink" viewBox="0 0 841.89 595.28"><defs><style>.cls-1,.cls-3,.cls-5{fill:none;}.cls-2{clip-path:url(#clip-path);}.cls-3,.cls-5{stroke:#020202;}.cls-4{fill:#fff;}.cls-5{stroke-width:2px;}</style><clipPath id="clip-path"><rect class="cls-1" width="841.89" height="595.28"/></clipPath></defs><title>Plan de travail 21</title><g class="cls-2"><line class="cls-3" x1="257.95" y1="269.43" x2="322.02" y2="178.73"/><line class="cls-3" x1="322.16" y1="177.25" x2="412.53" y2="115"/><line class="cls-3" x1="257.54" y1="269.72" x2="382.68" y2="269.72"/><line class="cls-3" x1="257.54" y1="270.22" x2="257.54" y2="395.29"/><line class="cls-3" x1="258.04" y1="396.71" x2="382.68" y2="396.71"/><line class="cls-3" x1="382.68" y1="270.22" x2="382.68" y2="396.71"/><line class="cls-3" x1="257.54" y1="272.84" x2="320.36" y2="364.12"/><line class="cls-3" x1="322.42" y1="178.44" x2="322.42" y2="301.72"/><line class="cls-3" x1="322.92" y1="178.44" x2="448.06" y2="178.44"/><line class="cls-3" x1="448.06" y1="177.94" x2="448.06" y2="304.42"/><line class="cls-3" x1="322.92" y1="303.71" x2="447.56" y2="303.71"/><line class="cls-3" x1="413.86" y1="113.81" x2="538.99" y2="113.81"/><line class="cls-3" x1="413.15" y1="239.37" x2="538.28" y2="239.37"/><line class="cls-3" x1="539.7" y1="114.31" x2="539.7" y2="239.87"/><line class="cls-3" x1="414.57" y1="114.31" x2="414.57" y2="239.87"/><line class="cls-3" x1="353.91" y1="206.22" x2="414.78" y2="114.31"/><line class="cls-3" x1="258.04" y1="269.72" x2="353.49" y2="206.5"/><line class="cls-3" x1="257.04" y1="396.21" x2="320.11" y2="488.06"/><line class="cls-3" x1="322.22" y1="489.76" x2="446.85" y2="489.76"/><line class="cls-3" x1="322.22" y1="364.4" x2="448.56" y2="364.4"/><line class="cls-3" x1="448.06" y1="364.9" x2="448.06" y2="489.76"/><line class="cls-3" x1="322.19" y1="364.9" x2="322.19" y2="488.34"/><line class="cls-3" x1="258.04" y1="395.29" x2="322.92" y2="301.72"/><line class="cls-3" x1="260.22" y1="395.29" x2="353.76" y2="332.76"/><line class="cls-3" x1="323.34" y1="361.28" x2="447.97" y2="177.88"/><line class="cls-3" x1="321.98" y1="178.94" x2="446.14" y2="364.4"/><line class="cls-3" x1="322.04" y1="303.96" x2="415.35" y2="239.47"/><line class="cls-3" x1="353.76" y1="206.5" x2="480.11" y2="206.5"/><line class="cls-3" x1="354.04" y1="332.34" x2="480.11" y2="332.34"/><line class="cls-3" x1="480.11" y1="207" x2="480.11" y2="333.47"/><line class="cls-3" x1="353.76" y1="207" x2="353.76" y2="333.47"/><line class="cls-3" x1="417.05" y1="114.31" x2="541.62" y2="301.72"/><line class="cls-3" x1="448.25" y1="177.49" x2="540.34" y2="112.9"/><line class="cls-3" x1="540.91" y1="113.31" x2="604.8" y2="206.5"/><line class="cls-3" x1="479.33" y1="206" x2="605.21" y2="207"/><line class="cls-3" x1="480.61" y1="332.34" x2="605.22" y2="332.34"/><line class="cls-3" x1="605.21" y1="206.5" x2="605.21" y2="331.84"/><line class="cls-3" x1="321.82" y1="487.8" x2="447.66" y2="302.54"/><line class="cls-3" x1="321.27" y1="304.92" x2="445.85" y2="488.34"/><line class="cls-3" x1="449.97" y1="489.26" x2="541.12" y2="427.77"/><line class="cls-3" x1="539.7" y1="302" x2="539.7" y2="428.48"/><line class="cls-3" x1="415.63" y1="428.48" x2="541.4" y2="428.48"/><line class="cls-3" x1="414.07" y1="304.37" x2="414.07" y2="428.48"/><line class="cls-3" x1="413.18" y1="303.59" x2="540.23" y2="303.59"/><line class="cls-3" x1="322.92" y1="488.34" x2="417.07" y2="428.48"/><line class="cls-3" x1="415.98" y1="426.62" x2="541.62" y2="239.37"/><line class="cls-3" x1="416.11" y1="237.56" x2="541.27" y2="428.53"/><line class="cls-3" x1="382.68" y1="396.21" x2="508.08" y2="396.21"/><line class="cls-3" x1="354.26" y1="332.34" x2="414.57" y2="427.33"/><line class="cls-3" x1="323.34" y1="363.9" x2="415.57" y2="303.92"/><line class="cls-3" x1="414.86" y1="239.87" x2="354.26" y2="331.84"/><line class="cls-3" x1="382.18" y1="396.21" x2="480.61" y2="332.07"/><line class="cls-3" x1="383.18" y1="270.43" x2="508.08" y2="270.43"/><line class="cls-3" x1="508.08" y1="270.93" x2="508.08" y2="396.71"/><line class="cls-3" x1="448.77" y1="488.63" x2="509.29" y2="395.17"/><line class="cls-3" x1="604.71" y1="332.84" x2="508.58" y2="396.71"/><line class="cls-3" x1="542.03" y1="427.6" x2="605.21" y2="332.34"/><line class="cls-3" x1="541.4" y1="240.08" x2="605.21" y2="331.65"/><line class="cls-3" x1="448.35" y1="363.9" x2="539.7" y2="304.92"/><line class="cls-3" x1="448.07" y1="363.9" x2="508.58" y2="272.55"/><line class="cls-3" x1="448.99" y1="304.5" x2="506.87" y2="395.29"/><line class="cls-3" x1="354.27" y1="207.5" x2="416.21" y2="303.65"/><line class="cls-3" x1="480.88" y1="206.28" x2="415.69" y2="303.22"/><line class="cls-3" x1="449.49" y1="181.56" x2="509" y2="269.72"/><line class="cls-3" x1="541.4" y1="302" x2="604.71" y2="207.5"/><line class="cls-3" x1="508.58" y1="270.93" x2="604.71" y2="207.5"/><line class="cls-3" x1="448.07" y1="302.27" x2="540.98" y2="239.59"/><line class="cls-3" x1="539.48" y1="114.31" x2="480.11" y2="205.5"/><line class="cls-3" x1="382.68" y1="269.17" x2="481.29" y2="206.5"/><g class="cls-2"><path class="cls-4" d="M548.85,114.59a9.15,9.15,0,1,0-9.15,9.15,9.15,9.15,0,0,0,9.15-9.15"/><path class="cls-5" d="M548.85,114.59a9.15,9.15,0,1,0-9.15,9.15A9.15,9.15,0,0,0,548.85,114.59Z"/><path class="cls-4" d="M424.72,114.59a9.16,9.16,0,1,0-9.15,9.15,9.16,9.16,0,0,0,9.15-9.15"/><path class="cls-5" d="M424.72,114.59a9.16,9.16,0,1,0-9.15,9.15A9.16,9.16,0,0,0,424.72,114.59Z"/><path class="cls-4" d="M548.85,237.83A9.15,9.15,0,1,0,539.7,247a9.15,9.15,0,0,0,9.15-9.16"/><path class="cls-5" d="M548.85,237.83A9.15,9.15,0,1,0,539.7,247,9.15,9.15,0,0,0,548.85,237.83Z"/><path class="cls-4" d="M426.5,238.11a9.16,9.16,0,1,0-9.16,9.15,9.15,9.15,0,0,0,9.16-9.15"/><path class="cls-5" d="M426.5,238.11a9.16,9.16,0,1,0-9.16,9.15A9.15,9.15,0,0,0,426.5,238.11Z"/><path class="cls-4" d="M267.2,271.67a9.16,9.16,0,1,0-9.16,9.15,9.15,9.15,0,0,0,9.16-9.15"/><path class="cls-5" d="M267.2,271.67a9.16,9.16,0,1,0-9.16,9.15A9.15,9.15,0,0,0,267.2,271.67Z"/><path class="cls-4" d="M391.33,271.67a9.16,9.16,0,1,0-9.15,9.15,9.15,9.15,0,0,0,9.15-9.15"/><path class="cls-5" d="M391.33,271.67a9.16,9.16,0,1,0-9.15,9.15A9.15,9.15,0,0,0,391.33,271.67Z"/><path class="cls-4" d="M265.79,394.9a9.16,9.16,0,1,0-9.16,9.15,9.16,9.16,0,0,0,9.16-9.15"/><path class="cls-5" d="M265.79,394.9a9.16,9.16,0,1,0-9.16,9.15A9.16,9.16,0,0,0,265.79,394.9Z"/><path class="cls-4" d="M392.71,396.21a9.15,9.15,0,1,0-9.15,9.15,9.14,9.14,0,0,0,9.15-9.15"/><path class="cls-5" d="M392.71,396.21a9.15,9.15,0,1,0-9.15,9.15A9.14,9.14,0,0,0,392.71,396.21Z"/><path class="cls-4" d="M332.49,364a9.16,9.16,0,1,0-9.15,9.16,9.15,9.15,0,0,0,9.15-9.16"/><path class="cls-5" d="M332.49,364a9.16,9.16,0,1,0-9.15,9.16A9.15,9.15,0,0,0,332.49,364Z"/><path class="cls-4" d="M454.53,364.4a9.16,9.16,0,1,0-9.15,9.16,9.15,9.15,0,0,0,9.15-9.16"/><path class="cls-5" d="M454.53,364.4a9.16,9.16,0,1,0-9.15,9.16A9.15,9.15,0,0,0,454.53,364.4Z"/><path class="cls-4" d="M457.23,488.08a9.16,9.16,0,1,0-9.15,9.15,9.15,9.15,0,0,0,9.15-9.15"/><path class="cls-5" d="M457.23,488.08a9.16,9.16,0,1,0-9.15,9.15A9.15,9.15,0,0,0,457.23,488.08Z"/><path class="cls-4" d="M334.41,488.08a9.16,9.16,0,1,0-9.16,9.15,9.15,9.15,0,0,0,9.16-9.15"/><path class="cls-5" d="M334.41,488.08a9.16,9.16,0,1,0-9.16,9.15A9.15,9.15,0,0,0,334.41,488.08Z"/><path class="cls-4" d="M549.35,427.6a9.15,9.15,0,1,0-9.15,9.15,9.14,9.14,0,0,0,9.15-9.15"/><path class="cls-5" d="M549.35,427.6a9.15,9.15,0,1,0-9.15,9.15A9.14,9.14,0,0,0,549.35,427.6Z"/><path class="cls-4" d="M424.22,426.9a9.16,9.16,0,1,0-9.15,9.16,9.15,9.15,0,0,0,9.15-9.16"/><path class="cls-5" d="M424.22,426.9a9.16,9.16,0,1,0-9.15,9.16A9.15,9.15,0,0,0,424.22,426.9Z"/><path class="cls-4" d="M548.35,304.92a9.15,9.15,0,1,0-9.15,9.16,9.15,9.15,0,0,0,9.15-9.16"/><path class="cls-5" d="M548.35,304.92a9.15,9.15,0,1,0-9.15,9.16A9.15,9.15,0,0,0,548.35,304.92Z"/><path class="cls-4" d="M423.22,303.5a9.16,9.16,0,1,0-9.15,9.16,9.15,9.15,0,0,0,9.15-9.16"/><path class="cls-5" d="M423.22,303.5a9.16,9.16,0,1,0-9.15,9.16A9.15,9.15,0,0,0,423.22,303.5Z"/><path class="cls-4" d="M516.45,269.58a9.16,9.16,0,1,0-9.16,9.15,9.16,9.16,0,0,0,9.16-9.15"/><path class="cls-5" d="M516.45,269.58a9.16,9.16,0,1,0-9.16,9.15A9.16,9.16,0,0,0,516.45,269.58Z"/><path class="cls-4" d="M517.23,396.71a9.16,9.16,0,1,0-9.15,9.15,9.15,9.15,0,0,0,9.15-9.15"/><path class="cls-5" d="M517.23,396.71a9.16,9.16,0,1,0-9.15,9.15A9.15,9.15,0,0,0,517.23,396.71Z"/><path class="cls-4" d="M334.41,177.9a9.16,9.16,0,1,0-9.16,9.15,9.15,9.15,0,0,0,9.16-9.15"/><path class="cls-5" d="M334.41,177.9a9.16,9.16,0,1,0-9.16,9.15A9.15,9.15,0,0,0,334.41,177.9Z"/><path class="cls-4" d="M455.71,178.94a9.16,9.16,0,1,0-9.15,9.15,9.16,9.16,0,0,0,9.15-9.15"/><path class="cls-5" d="M455.71,178.94a9.16,9.16,0,1,0-9.15,9.15A9.16,9.16,0,0,0,455.71,178.94Z"/><path class="cls-4" d="M332.57,304.92a9.16,9.16,0,1,0-9.16,9.16,9.16,9.16,0,0,0,9.16-9.16"/><path class="cls-5" d="M332.57,304.92a9.16,9.16,0,1,0-9.16,9.16A9.16,9.16,0,0,0,332.57,304.92Z"/><path class="cls-4" d="M456,301.44a9.16,9.16,0,1,0-9.15,9.15,9.16,9.16,0,0,0,9.15-9.15"/><path class="cls-5" d="M456,301.44a9.16,9.16,0,1,0-9.15,9.15A9.16,9.16,0,0,0,456,301.44Z"/><path class="cls-4" d="M613.87,332.84a9.16,9.16,0,1,0-9.16,9.16,9.16,9.16,0,0,0,9.16-9.16"/><path class="cls-5" d="M613.87,332.84a9.16,9.16,0,1,0-9.16,9.16A9.16,9.16,0,0,0,613.87,332.84Z"/><path class="cls-4" d="M613.87,208a9.16,9.16,0,1,0-9.16,9.16,9.16,9.16,0,0,0,9.16-9.16"/><path class="cls-5" d="M613.87,208a9.16,9.16,0,1,0-9.16,9.16A9.16,9.16,0,0,0,613.87,208Z"/><path class="cls-4" d="M363.42,205.77a9.16,9.16,0,1,0-9.15,9.15,9.15,9.15,0,0,0,9.15-9.15"/><path class="cls-5" d="M363.42,205.77a9.16,9.16,0,1,0-9.15,9.15A9.15,9.15,0,0,0,363.42,205.77Z"/><path class="cls-4" d="M363.42,331.84a9.16,9.16,0,1,0-9.15,9.16,9.15,9.15,0,0,0,9.15-9.16"/><path class="cls-5" d="M363.42,331.84a9.16,9.16,0,1,0-9.15,9.16A9.15,9.15,0,0,0,363.42,331.84Z"/><path class="cls-4" d="M483.67,330.74a9.16,9.16,0,1,0-9.15,9.16,9.15,9.15,0,0,0,9.15-9.16"/><path class="cls-5" d="M483.67,330.74a9.16,9.16,0,1,0-9.15,9.16A9.15,9.15,0,0,0,483.67,330.74Z"/><path class="cls-4" d="M490.45,208a9.16,9.16,0,1,0-9.16,9.16,9.16,9.16,0,0,0,9.16-9.16"/><path class="cls-5" d="M490.45,208a9.16,9.16,0,1,0-9.16,9.16A9.16,9.16,0,0,0,490.45,208Z"/></g></g></svg>