<svg id="Calque_1" data-name="Calque 1" xmlns="http://www.w3.org/2000/svg" xmlns:xlink="http://www.w3.org/1999/xlink" viewBox="0 0 841.89 595.28"><defs><style>.cls-1,.cls-3,.cls-4{fill:none;}.cls-2{clip-path:url(#clip-path);}.cls-3{stroke:#020202;stroke-width:2px;}.cls-4{stroke:#000;}</style><clipPath id="clip-path"><rect class="cls-1" width="841.89" height="595.28"/></clipPath></defs><title>Plan de travail 7</title><g class="cls-2"><g class="cls-2"><path class="cls-3" d="M529.52,415.22a9.16,9.16,0,1,0-9.15,9.15A9.16,9.16,0,0,0,529.52,415.22Z"/><path class="cls-3" d="M330.68,415.22a9.16,9.16,0,1,0-9.16,9.15A9.16,9.16,0,0,0,330.68,415.22Z"/><path class="cls-3" d="M529.52,216.38a9.16,9.16,0,1,0-9.15,9.15A9.16,9.16,0,0,0,529.52,216.38Z"/><path class="cls-3" d="M330.68,216.38a9.16,9.16,0,1,0-9.16,9.15A9.16,9.16,0,0,0,330.68,216.38Z"/></g><line class="cls-4" x1="520.37" y1="226.53" x2="520.37" y2="405.06"/><line class="cls-4" x1="331.68" y1="415.22" x2="510.21" y2="415.22"/><line class="cls-4" x1="321.52" y1="226.53" x2="321.52" y2="405.06"/><line class="cls-4" x1="331.68" y1="216.38" x2="510.21" y2="216.38"/></g></svg>