<svg id="Calque_1" data-name="Calque 1" xmlns="http://www.w3.org/2000/svg" xmlns:xlink="http://www.w3.org/1999/xlink" viewBox="0 0 841.89 595.28"><defs><style>.cls-1,.cls-3,.cls-5{fill:none;}.cls-2{clip-path:url(#clip-path);}.cls-3,.cls-5{stroke:#020202;}.cls-4{fill:#fff;}.cls-5{stroke-width:2px;}</style><clipPath id="clip-path"><rect class="cls-1" width="841.89" height="595.28"/></clipPath></defs><title>Plan de travail 19</title><g class="cls-2"><line class="cls-3" x1="275.39" y1="247.61" x2="366.38" y2="137.06"/><line class="cls-3" x1="584.93" y1="136.74" x2="366.76" y2="136.74"/><line class="cls-3" x1="584.93" y1="137.24" x2="463.04" y2="271.98"/><line class="cls-3" x1="345.69" y1="272.32" x2="462.67" y2="272.32"/><line class="cls-3" x1="275" y1="247.92" x2="493.16" y2="247.92"/><line class="cls-3" x1="585.3" y1="139.32" x2="493.16" y2="248.42"/><line class="cls-3" x1="465.59" y1="272.82" x2="493.16" y2="247.92"/><line class="cls-3" x1="347.95" y1="272.82" x2="347.95" y2="387.64"/><line class="cls-3" x1="347.95" y1="387.64" x2="465.26" y2="387.64"/><line class="cls-3" x1="462.67" y1="273.19" x2="462.67" y2="387.14"/><line class="cls-3" x1="275" y1="247.42" x2="275" y2="465.31"/><line class="cls-3" x1="275.5" y1="465.31" x2="492.78" y2="465.31"/><line class="cls-3" x1="397.84" y1="328.41" x2="369.21" y2="352.49"/><line class="cls-3" x1="275.5" y1="464.81" x2="368.89" y2="352.87"/><line class="cls-3" x1="274.5" y1="247.42" x2="348.45" y2="273.19"/><line class="cls-3" x1="398.17" y1="328.04" x2="375.66" y2="355.56"/><line class="cls-3" x1="368.89" y1="137.24" x2="368.89" y2="354.81"/><line class="cls-3" x1="369.39" y1="355.31" x2="585.68" y2="355.31"/><line class="cls-3" x1="398.16" y1="212.6" x2="369.39" y2="137.24"/><line class="cls-3" x1="398.16" y1="216.14" x2="398.16" y2="327.72"/><line class="cls-3" x1="398.66" y1="328.41" x2="511.83" y2="328.41"/><line class="cls-3" x1="510.94" y1="216.14" x2="510.94" y2="330.16"/><line class="cls-3" x1="465.26" y1="384.01" x2="511.44" y2="327.91"/><line class="cls-3" x1="398.56" y1="216.14" x2="511.44" y2="216.14"/><line class="cls-3" x1="348.45" y1="271.82" x2="401.1" y2="212.78"/><line class="cls-3" x1="463.17" y1="384.32" x2="492.78" y2="460.04"/><line class="cls-3" x1="492.78" y1="246.95" x2="492.78" y2="464.81"/><line class="cls-3" x1="510.94" y1="330.16" x2="585.3" y2="355.81"/><line class="cls-3" x1="493.5" y1="460.22" x2="585.68" y2="354.81"/><line class="cls-3" x1="586.06" y1="139" x2="586.06" y2="352.55"/><line class="cls-3" x1="374.88" y1="356.37" x2="349.21" y2="387.32"/><line class="cls-3" x1="348.46" y1="388.15" x2="278.3" y2="463.18"/><g class="cls-2"><path class="cls-4" d="M471.32,273.15a9.16,9.16,0,1,0-9.15,9.16,9.15,9.15,0,0,0,9.15-9.16"/><path class="cls-5" d="M471.32,273.15a9.16,9.16,0,1,0-9.15,9.16A9.15,9.15,0,0,0,471.32,273.15Z"/><path class="cls-4" d="M284.65,247.55a9.15,9.15,0,1,0-9.15,9.16,9.15,9.15,0,0,0,9.15-9.16"/><path class="cls-5" d="M284.65,247.55a9.15,9.15,0,1,0-9.15,9.16A9.15,9.15,0,0,0,284.65,247.55Z"/><path class="cls-4" d="M375.92,139a9.16,9.16,0,1,0-9.16,9.15,9.15,9.15,0,0,0,9.16-9.15"/><path class="cls-5" d="M375.92,139a9.16,9.16,0,1,0-9.16,9.15A9.15,9.15,0,0,0,375.92,139Z"/><path class="cls-4" d="M594.08,136.24a9.16,9.16,0,1,0-9.15,9.15,9.16,9.16,0,0,0,9.15-9.15"/><path class="cls-5" d="M594.08,136.24a9.16,9.16,0,1,0-9.15,9.15A9.16,9.16,0,0,0,594.08,136.24Z"/><path class="cls-4" d="M519.6,216.64a9.16,9.16,0,1,0-9.15,9.16,9.15,9.15,0,0,0,9.15-9.16"/><path class="cls-5" d="M519.6,216.64a9.16,9.16,0,1,0-9.15,9.16A9.15,9.15,0,0,0,519.6,216.64Z"/><path class="cls-4" d="M410.63,214.77a9.16,9.16,0,1,0-9.15,9.15,9.16,9.16,0,0,0,9.15-9.15"/><path class="cls-5" d="M410.63,214.77a9.16,9.16,0,1,0-9.15,9.15A9.16,9.16,0,0,0,410.63,214.77Z"/><path class="cls-4" d="M357.11,271.93a9.16,9.16,0,1,0-9.16,9.16,9.16,9.16,0,0,0,9.16-9.16"/><path class="cls-5" d="M357.11,271.93a9.16,9.16,0,1,0-9.16,9.16A9.16,9.16,0,0,0,357.11,271.93Z"/><path class="cls-4" d="M471.32,387.14a9.16,9.16,0,1,0-9.15,9.15,9.16,9.16,0,0,0,9.15-9.15"/><path class="cls-5" d="M471.32,387.14a9.16,9.16,0,1,0-9.15,9.15A9.16,9.16,0,0,0,471.32,387.14Z"/><path class="cls-4" d="M357.61,387.14a9.16,9.16,0,1,0-9.16,9.15,9.16,9.16,0,0,0,9.16-9.15"/><path class="cls-5" d="M357.61,387.14a9.16,9.16,0,1,0-9.16,9.15A9.16,9.16,0,0,0,357.61,387.14Z"/><path class="cls-4" d="M407.82,327.91a9.16,9.16,0,1,0-9.16,9.16,9.16,9.16,0,0,0,9.16-9.16"/><path class="cls-5" d="M407.82,327.91a9.16,9.16,0,1,0-9.16,9.16A9.16,9.16,0,0,0,407.82,327.91Z"/><path class="cls-4" d="M501.44,248.42a9.16,9.16,0,1,0-9.16,9.16,9.16,9.16,0,0,0,9.16-9.16"/><path class="cls-5" d="M501.44,248.42a9.16,9.16,0,1,0-9.16,9.16A9.16,9.16,0,0,0,501.44,248.42Z"/><path class="cls-4" d="M519.94,328.91a9.16,9.16,0,1,0-9.16,9.16,9.16,9.16,0,0,0,9.16-9.16"/><path class="cls-5" d="M519.94,328.91a9.16,9.16,0,1,0-9.16,9.16A9.16,9.16,0,0,0,519.94,328.91Z"/><path class="cls-4" d="M502.44,465.31a9.16,9.16,0,1,0-9.16,9.15,9.16,9.16,0,0,0,9.16-9.15"/><path class="cls-5" d="M502.44,465.31a9.16,9.16,0,1,0-9.16,9.15A9.16,9.16,0,0,0,502.44,465.31Z"/><path class="cls-4" d="M287.09,465.81a9.16,9.16,0,1,0-9.15,9.15,9.16,9.16,0,0,0,9.15-9.15"/><path class="cls-5" d="M287.09,465.81a9.16,9.16,0,1,0-9.15,9.15A9.16,9.16,0,0,0,287.09,465.81Z"/><path class="cls-4" d="M378.55,354.48a9.16,9.16,0,1,0-9.16,9.15,9.16,9.16,0,0,0,9.16-9.15"/><path class="cls-5" d="M378.55,354.48a9.16,9.16,0,1,0-9.16,9.15A9.16,9.16,0,0,0,378.55,354.48Z"/><path class="cls-4" d="M498.69,355.31a9.16,9.16,0,1,0-9.16,9.15,9.16,9.16,0,0,0,9.16-9.15"/><path class="cls-5" d="M498.69,355.31a9.16,9.16,0,1,0-9.16,9.15A9.16,9.16,0,0,0,498.69,355.31Z"/><path class="cls-4" d="M594.45,354.81A9.15,9.15,0,1,0,585.3,364a9.15,9.15,0,0,0,9.15-9.15"/><path class="cls-5" d="M594.45,354.81A9.15,9.15,0,1,0,585.3,364,9.15,9.15,0,0,0,594.45,354.81Z"/></g></g></svg>