<svg id="Calque_1" data-name="Calque 1" xmlns="http://www.w3.org/2000/svg" xmlns:xlink="http://www.w3.org/1999/xlink" viewBox="0 0 841.89 595.28"><defs><style>.cls-1,.cls-3,.cls-4{fill:none;}.cls-2{clip-path:url(#clip-path);}.cls-3{stroke:#000;}.cls-4{stroke:#020202;stroke-width:2px;}</style><clipPath id="clip-path"><rect class="cls-1" width="841.89" height="595.28"/></clipPath></defs><title>Plan de travail 15</title><g class="cls-2"><line class="cls-3" x1="361.76" y1="217.38" x2="416.95" y2="250.39"/><line class="cls-3" x1="425.47" y1="310.77" x2="424.42" y2="264.44"/><line class="cls-3" x1="379.68" y1="345.21" x2="418.1" y2="323.83"/><line class="cls-3" x1="314.45" y1="295.25" x2="364.59" y2="346.07"/><line class="cls-3" x1="434.04" y1="324.68" x2="471.72" y2="346.06"/><line class="cls-3" x1="480.25" y1="424.34" x2="480.25" y2="359.47"/><line class="cls-3" x1="372.8" y1="359.65" x2="388.57" y2="425.75"/><line class="cls-3" x1="471.21" y1="435.18" x2="400.77" y2="435.18"/><line class="cls-3" x1="307.79" y1="328.19" x2="307.79" y2="297.94"/><line class="cls-3" x1="359.77" y1="417.68" x2="382.83" y2="430.99"/><line class="cls-3" x1="489.24" y1="429.39" x2="511.22" y2="417.44"/><line class="cls-3" x1="439.54" y1="374.47" x2="362" y2="409.25"/><line class="cls-3" x1="511.77" y1="408.53" x2="455.49" y2="374.44"/><line class="cls-3" x1="310.74" y1="345.91" x2="347.1" y2="404.58"/><line class="cls-3" x1="310.44" y1="279.9" x2="347.76" y2="218.19"/><line class="cls-3" x1="362.32" y1="207.27" x2="381.83" y2="197.59"/><line class="cls-3" x1="315.41" y1="331.86" x2="385.25" y2="279.71"/><line class="cls-3" x1="390.25" y1="201.74" x2="392.49" y2="266.58"/><line class="cls-3" x1="397.34" y1="191.03" x2="472.99" y2="191.07"/><line class="cls-3" x1="433.86" y1="251.95" x2="512.52" y2="215.56"/><line class="cls-3" x1="490.39" y1="195.41" x2="513.26" y2="209.29"/><line class="cls-3" x1="522.38" y1="222.72" x2="555.69" y2="282.12"/><line class="cls-3" x1="488.1" y1="344.68" x2="552.55" y2="296.44"/><line class="cls-3" x1="523.14" y1="404.06" x2="560.43" y2="342.87"/><line class="cls-3" x1="561.97" y1="298.34" x2="564.05" y2="326.61"/><line class="cls-3" x1="401.64" y1="279.18" x2="439.33" y2="300.33"/><line class="cls-3" x1="447.56" y1="361.52" x2="446.85" y2="311.21"/><line class="cls-3" x1="485.45" y1="200.21" x2="499.5" y2="255.95"/><line class="cls-3" x1="454.27" y1="295.12" x2="490.92" y2="270.56"/><line class="cls-3" x1="503.67" y1="273.41" x2="557.1" y2="331.94"/><g class="cls-2"><path class="cls-4" d="M398,192.88a9.16,9.16,0,1,0-9.15,9.16A9.15,9.15,0,0,0,398,192.88Z"/><path class="cls-4" d="M491.66,191.57a9.16,9.16,0,1,0-9.16,9.16A9.16,9.16,0,0,0,491.66,191.57Z"/><path class="cls-4" d="M530.8,213.19a9.16,9.16,0,1,0-9.15,9.15A9.15,9.15,0,0,0,530.8,213.19Z"/><path class="cls-4" d="M434.1,255.44A9.16,9.16,0,1,0,425,264.6,9.15,9.15,0,0,0,434.1,255.44Z"/><path class="cls-4" d="M363.18,211.57a9.16,9.16,0,1,0-9.16,9.16A9.16,9.16,0,0,0,363.18,211.57Z"/><path class="cls-4" d="M568.78,290.42a9.16,9.16,0,1,0-9.16,9.15A9.16,9.16,0,0,0,568.78,290.42Z"/><path class="cls-4" d="M574.25,335.74a9.16,9.16,0,1,0-9.15,9.15A9.15,9.15,0,0,0,574.25,335.74Z"/><path class="cls-4" d="M528.23,412.66a9.16,9.16,0,1,0-9.16,9.15A9.16,9.16,0,0,0,528.23,412.66Z"/><path class="cls-4" d="M489.4,434a9.16,9.16,0,1,0-9.15,9.15A9.15,9.15,0,0,0,489.4,434Z"/><path class="cls-4" d="M401.2,434a9.16,9.16,0,1,0-9.16,9.15A9.15,9.15,0,0,0,401.2,434Z"/><path class="cls-4" d="M362.5,412.66a9.16,9.16,0,1,0-9.16,9.15A9.16,9.16,0,0,0,362.5,412.66Z"/><path class="cls-4" d="M456.76,370.42a9.16,9.16,0,1,0-9.16,9.15A9.16,9.16,0,0,0,456.76,370.42Z"/><path class="cls-4" d="M317,336.93a9.16,9.16,0,1,0-9.16,9.15A9.16,9.16,0,0,0,317,336.93Z"/><path class="cls-4" d="M380.36,350.94a9.16,9.16,0,1,0-9.15,9.15A9.16,9.16,0,0,0,380.36,350.94Z"/><path class="cls-4" d="M435.16,319.3a9.16,9.16,0,1,0-9.15,9.15A9.16,9.16,0,0,0,435.16,319.3Z"/><path class="cls-4" d="M402.63,275.29a9.16,9.16,0,1,0-9.16,9.15A9.15,9.15,0,0,0,402.63,275.29Z"/><path class="cls-4" d="M317.45,288.88a9.16,9.16,0,1,0-9.16,9.15A9.15,9.15,0,0,0,317.45,288.88Z"/><path class="cls-4" d="M457.46,302.12a9.16,9.16,0,1,0-9.15,9.15A9.15,9.15,0,0,0,457.46,302.12Z"/><path class="cls-4" d="M508.69,265.14a9.16,9.16,0,1,0-9.15,9.15A9.16,9.16,0,0,0,508.69,265.14Z"/><path class="cls-4" d="M489.9,350.11a9.16,9.16,0,1,0-9.15,9.15A9.16,9.16,0,0,0,489.9,350.11Z"/></g></g></svg>