<svg id="Calque_1" data-name="Calque 1" xmlns="http://www.w3.org/2000/svg" xmlns:xlink="http://www.w3.org/1999/xlink" viewBox="0 0 841.89 595.28"><defs><style>.cls-1{fill:none;}.cls-2{clip-path:url(#clip-path);}.cls-3{clip-path:url(#clip-path-2);}.cls-4{fill:#fff;}</style><clipPath id="clip-path"><rect class="cls-1" width="841.89" height="595.28"/></clipPath><clipPath id="clip-path-2"><rect class="cls-1" x="2.84" width="838.28" height="595.28"/></clipPath></defs><title>Plan de travail 14</title><g class="cls-2"><g class="cls-3"><path d="M844.72-4.23V115.23l-7.41,4.25V10.84H728.65c.56-3.78,1.11-7.56,1.84-12.53-49.56,0-97.55-.2-145.54.31-5.08,0-10.13,4.28-15.19,6.57l1.56,5h158c-.71,3.71-1.42,7.42-2.48,13h93.76V126.9l17.19-8q-1.11,44.28-2.25,88.56l-19.89-11c-3.49,85.23-6.84,167.07-10.27,251l18.67-7.26c-3.63,77.3-7.26,154.6-11,233.8H634.36c4.56,5.09,6.92,7.73,9.26,10.36-53.43.73-106.84,2.3-160.23,1.75-18.23-.19-24.23,7.11-25,22.54h203.5L643,683.84c56-.3,112-1.07,168-.55,14.08.13,18.6-3.87,19-18.07,1.66-59.67,4.59-119.31,6.76-179,.57-15.93.08-31.89.08-48.54l-13.36,3q4-112,8.25-224c.12-3.17,2.5-6.25,3.83-9.36l9.22,2V708.88H669.37c21,30.11,21,30.09,51.13,29.86l124.22-.9c2.22,11.17-6.25,7.1-10.84,7.12-45.76.2-91.53.12-137.3.12-6.62-1.28-13.23-3.66-19.85-3.67-77.84-.13-155.67.11-233.51.25,2.65-9,5.31-18,7.59-25.76H190.43l.3.44,58.12-25.63L247.49,687h-78.6l.33.39L173.4,673c-37.93,0-74.4.36-110.87-.16-17.37-.24-34.4-.63-49.15,10.57l.53.29c-.28-7.2-.79-14.41-.79-21.61q-.09-146.34,0-292.66V348.05L2.83,354.14V3l9.5,2.62C13.74-9.65,25.57-3.43,33-3.45c112-.38,224-.29,336-.31h18.95l.7-2.92L364-19.51H518.1L501.65-3.78c23.72,0,44.08.71,64.33-.47,5.45-.32,10.57-6.38,15.85-9.81q-1.25-2.58-2.48-5.16H518.92l22.29-17.59h54.2l-8,18.24H740.08l-.31-.36c-.69,4.76-1.39,9.52-2.15,14.7ZM385.29,411.41l-56.11,1.76c.05,2.15.11,4.31.16,6.46l66.45,4.07-11.1-12.79c13.11,2.9,25.82,4.15,36.72-10.46L377,397.37l8.26,14M706.73,144c-3.09,1.13-8.76,2-8.87,3.42-1.77,21.5-2.82,43.07-4.2,67.44l11.43-7.2q-8.3,144.42-16.6,288.84l7.49,1.79c2.47-6.58,6.72-13,7.11-19.75,2.74-46.89,5.48-93.8,6.65-140.74,1.09-43.68.23-87.41.23-130.77.2,0-2.56.53-5.38,1.16q.78-32.34,1.61-64.65l11.73,2.06c.83-16.71,1.58-32,2.34-47.42H703.93c2.25,5,6.63,10.4,6.67,15.8,0,10-2.44,20-3.87,30m23.15,12.2c3.33-1.79,9.43-3.38,9.58-5.42,1.79-24.23,2.69-48.53,3.86-73.49l-39.21-2.64c-4.81-2.63-9.59-7.46-14.43-7.52-25.79-.31-51.6.7-77.41,1-17.54.22-35.09,0-52.64,0l-1,4,8.25,4.65c-.56,1.09-1.11,2.18-1.66,3.27q-19.71,0-39.37,0c1.06-3.18,2.13-6.35,3-9.08H395l2.68-4.45h-295c4.59,19.35-5.92,37.05,11.93,52.11,1-16,1.89-29.44,3.08-47.93,93.77,0,185.78,0,277.68,0l-9.94,8.71h141c3.37,2.28,7,6.79,10.06,6.49,24.29-2.35,48.42-6.69,72.74-8.34,31.71-2.16,63.55-2.41,95.3-3.44,1.9,3.09,3.4,8.43,5.78,8.86,6.78,1.21,13.9.42,20,.42,0,25.62,0,49.44,0,73.21l-10.86-5.45v46.68l11-8.46c-.54,4.16-1.39,8.31-1.57,12.48q-5.1,118.26-10,236.51c-.61,15.13-.09,30.31-.09,45.46l5.24,1.06c1.65-4.75,4.55-9.46,4.76-14.28,2.59-60.18,4.81-120.37,7.07-180.56,1.11-29.5,2.07-59,3.15-88.49.24-6.45,1.53-13.52-9-11.69q-.11-16.84-.2-33.7m-374,292.7,13.48-12.23-52.28-2.91,5.66-11.67-11.62-4c-4.88-30,15.6-58.87.61-86.59l-5.6,0c-3.18,32.52-6.35,65-9.55,97.79l21.13,3.76q-1.11,5-2.22,10l40.84,5.46L342.4,461.19,436.71,468c-4.72-7.15-7.53-11.42-10.35-15.68,14.95,1,29.93,1.77,44.84,3.18,26.76,2.52,53.48,5.44,80.22,8.2-.89,3.93-1.78,7.86-3,13.11l38.37,3.59C591,436.4,595,394.81,599,353.22l-2.9-.43q-8.31,20-16.61,40l-1.52-.51c3.39-32.67,6.79-65.34,10.42-100.32-6.36,3.53-10.83,6-15.27,8.45,3.36-30.29,6.72-60.57,10-90.63-36.9-7.63-126.18-3.63-136.4,8.61H570c-3.39,30.7-6.42,58.16-9.61,87.07l13.37-5.7L563.41,422.62l2.47.63q4.47-9.92,9-19.85l3.27,1.27c-2.26,19.38-4.52,38.75-6.75,57.84-8.44.7-14.37,1.2-20.25,1.64,1.09-4.88,2.18-9.75,3.43-15.31L415.45,440c6.15,6.83,8.85,9.82,11.49,12.77q-35.56-1.92-71.08-3.89M504.21,116.27l2.62-8.33h-164l3.76-5.35H162c-1.58,22.18-3,42.48-4.44,62.81L147,159.9v86.24l10.73-3.48c.21,7.22.68,14.43.59,21.63q-1.8,140-3.71,280c-.08,6.3,0,12.61,0,19.82h31.19l-8.44,12.31c21.33-2.79,40.54,4.5,58.35-3.21-.05-1.92-.09-3.85-.13-5.78l-44.32-2.32c2-4.39,3.26-7.35,5.66-12.74H164.37C169.73,443.6,175,336.9,180.44,226.22c-10,7.34-16.59,12.18-23.15,17q-.14-39.24-.26-78.48l24.77,26.36c1.79-29.4,3.3-54.36,5.07-83.47,53.24,0,104.82,0,156.38,0l-7.45,8.07h169c4.05,2.27,8.09,6.49,12.14,6.51,43.34.14,86.68-.36,130-.79.83,0,1.65-1.24,2.77-2.14l-7.9-9.34h47c-29.82-15.21-56.73,3.72-85.3,4-33.09.37-66.17,1.52-99.22,2.29M212.06,202.44c2.26,10.9-5.25,26,13.32,31,1.37-13.61,2.66-26.44,4.17-41.46L211.4,203.09c2.27-25,4.54-50.08,6.9-76H315c-2,2.7-3.93,5.39-6.12,8.39,59.45,5.36,179.91-.53,186.57-8.18-59.8,0-120.37,0-180.8,0l6.11-5.56H206.19c-2.44,30.07-4.67,57.65-7.05,87,5.72-2.73,9.3-4.44,12.92-6.19m303-104.54c6.48-15-6.24-9.25-11-9.25-45.13-.06-90.26.48-135.39.84l2.1-3.68H132.19c1,21,1.88,38.8,2.62,56.5l-17.72-15V266.52l11.81-2.29q-.39,99.24-.76,198.46c-.11,40.75,0,81.5,0,125l34.28-4.38-.45-5.72-20.16-2.49V254.3c-5.22,4.11-9.3,7.31-13.36,10.49.8-34.17,1.42-68.34,2.54-102.49.22-6.77,2.36-13.48,3.62-20.22L147,150.8V89.15c75.65,0,148.86,0,222,0l-7.53,8.1H515.7c1.08,2.28,1.84,6.25,3.32,6.53,4.63.91,9.54.7,14.31.45,50.73-2.6,101.45-5.19,152.15-8.18,4-.24,7.78-3.52,11.67-5.38l-1.41-3.86H595l11.7,11.09c-32.12,0-61.9,0-91.66,0m196-40V46.55c-56.82,2-112.83-.74-168.39,5.23l.21,5.55H711.68c2.46,2.41,4.81,6.73,7.41,6.89,12.39.73,24.85.32,35.44.32,0,27.49,1.44,53.28-.47,78.82-1.44,19.3,6,28.6,24.65,31.92V161.49c-4.7,1.38-8.71,2.57-11.8,3.49V57.88H711.12M425.38,253.15c-2.61-3.38-5.05-9.52-7.85-9.68-16.06-.94-32.2-.46-50.09-.46L349.17,370.19l3.78.71q3.85-4.89,7.72-9.79-1.87,9.18-3.73,18.37L349,380.62l-10.63-20.39-4.85,1.53q-2.79,22.58-5.59,45.14l3.73.65,10.75-16.26c7.1,1.31,13,2.65,19.05,3.13.6.05,1.62-5.08,2.45-7.8h74.63c-1.47,6.86-2,9.36-2.54,11.86l81.76,6.85,9.77-71.87L515.39,340c3.91-25.83,7.83-51.66,11.91-78.62-18.79-1.57-35.36-3-51.93-4.33s-33.33-2.59-50-3.89m28.86,231.16L322.23,474,332,461.6l-29-2.77,5.38-12.74-27.87-4.35c.46-9.09.53-16.3,1.25-23.44,3.16-31.18,7.1-62.3,9.39-93.54.56-7.65-4.07-15.69-6.31-23.55l-6,1.57q-7.95,75.6-15.91,151.39c15.61,1.55,28.15,2.78,40.67,4.05L299,470l18.22,4.31-9.78,11.9,155.86,9.72c-5.25-6.52-7.5-9.32-9.72-12.09,25.16,1.64,50.3,3.58,75.48,4.67,4.9.22,9.94-2.84,14.92-4.39l-1.22-5.69-97.1-8,8.54,13.89M717,36.85c1.28-3.73,2.55-7.47,4.27-12.51H559.86l3.23-13.56h-83l7.19-11H409.86l16.23,11.37H29.42c0,7.23,0,13.09-.06,18.88L15.06,17.67V342l18-10.55c-.45,3.55-1.31,7.11-1.3,10.66q.5,156.4,1.21,312.8c0,3.83,1.14,7.65,1.75,11.48l6,1.54c3-7.75,8.6-15.48,8.64-23.25.42-79.55-.08-159.11-.28-238.67-.06-26.89,0-53.78,0-83.36l-16.61,9.32c-.85-22.11-2.29-44.22-2.45-66.34-.58-78.65-.72-157.3-1-235.95l16.52,14.8c1.13-7.42,2-13,3.1-20.42H445.45l.57-3-16.92-9.7h45.46l-8.4,12.4c32.93,0,63.62,0,94.27,0-1.4,3.53-2.8,7.06-5,12.66h162c-.09,9.35,5.86,9.67,13.09,9.53,17.8-.36,35.62-.12,52.9-.12V152.06c12.93-7.73,19.39-69.33,12.39-115.17-26.18,0-52.48,0-78.75,0M644.65,520c7.25-93.41,14.49-186.82,21.91-282.41l-15,9.52q3-20.17,5.92-40.36l-3.88-.48-14.37,32.82c2.44-30.54,4.53-56.54,6.72-84H622.22q-69.32,0-138.65-.07c1.77-11.11-6.19-9.43-12.53-9.33-24.08.35-48.15,1.16-72.22,1.31-35.8.24-71.61.06-107.73.06,1-3.56,1.7-6,2.49-8.81-58-2.34-58-2.34-61,41.12-.08,1.1.63,2.25,1.12,3.87,20.32-4.49,10.47-24,16.92-35.23h32.77l-1.62,6.37H484.24c-2.45,4.38-4.9,8.76-7.63,13.66H633.72c-.43,5.76-.92,10.46-1.09,15.18q-1.44,39.25-2.74,78.52-2.11,5.51-4.22,11c-11.22-11.19-13.24,6.08-20.61,6.66q5-47.81,10.07-95.54H465.56l3.06-10.39c-61.89,0-122.93-.18-184,.49-3.5,0-9.46,6.78-10,10.93-3.44,28-6.28,56.18-8,84.37-.44,7.29,3.81,14.86,5.91,22.3l6.09-1.13c4-35.35,8.07-70.69,12.25-107.22,60.08,0,117.68,0,175.26,0-1.25,3.08-2.5,6.16-4.81,11.83H599.57c-3,30.56-5.83,59-8.76,88.63L605.42,279v43.82c6-14.68,11.14-27.14,16.25-39.59l2.41.84L605.3,496c-12.08-.89-23.32-1.42-34.48-2.6-24.21-2.57-24.2-2.71-32,7.61l77.69,5.08c2.1-23.4,4.09-44.36,5.85-65.35,4.82-57.66,9.61-115.33,14-173,.14-1.79-4.3-3.93-6.6-5.91L635,248.68c7.42-.81,12.16-1.33,17-1.91-.07,14.23.64,28.51-.34,42.67-5.31,76.95-11,153.87-16.63,230.79-30.43-1.29-60.86-2.77-91.3-3.65-4.62-.14-9.32,2.56-14,3.95.47,1.84.95,3.68,1.42,5.52l83.66,5.38L603,540.93h55.55c.54-9.14,1-17.21,1.6-26.75L644.65,520M494,607.35V621H580l-11.24-14.76h169V480.74c-2.24.84-5.19,1.35-5.24,2.05-2.6,37.51-5,75-7.41,113.75H562.88c2.73,4.35,4.58,7.32,6.51,10.35l-76,1.09c1.54-4.16,3.07-8.32,5-13.55l-20.09-2.2,16.16-10.13c-16.09,0-27.33.15-38.56,0-69.67-1.11-139.35-2.39-209-3.26-5.53-.07-11.1,2.5-16.64,3.84.43,2.7.87,5.41,1.31,8.11H470.11l.66,4.43L455.07,604c15.33,1.32,27.14,2.34,39,3.34M675.08,506c-1.54,15.41-3.07,30.82-4.47,44.87H578.07l7.13-9.39H521.52l-.12,5.14,50.19,3.57-15.4,11.66H683.53c.9-19.08,1.8-38.07,2.76-58.48l-11.9,3.33q4.71-82,9.45-164c2.38-39.93,5-79.85,7.63-121.66l-13.11,6.5,6.38-89.1c-31.82-8.77-62.74-4.19-93.49-4.32-33.19-.15-66.54-.53-99.53,2.72l.42,7.19H661.91v33.09l10.78-22.91L675,155c-1.89,24.79-3.79,49.57-5.79,75.67l9.85-3.78c-5.54,93.8-11.08,187.6-16.68,282.34l12.75-3.2M541.38,321.34l11.75-90H435.91l6-12.73H335.77c-4.88,37.06-9.6,73.38-14.48,109.68-1.42,10.54,1.11,18.25,12.89,21.55,6.38-41.08,12.61-81.13,18.52-119.09h83.86c-.76,3.37-1.51,6.75-3.23,14.45H541.48c-4,29.34-7.47,54.38-11.2,81.55L542,320.67c-3.94,29.15-8.19,58.26-11.64,87.47-1.22,10.27-6.09,12.63-15.54,12.1q-49.41-2.79-98.89-4.37c-5.26-.18-10.61,2.13-15.92,3.29.19,1.76.38,3.53.58,5.3l143.24,9.28c4.76-41.16,9.25-80,14-120.94-7.23,3.74-11.84,6.12-16.48,8.54M218.75,601.08l4.83-12c-27.68,3.41-54.33-5.58-79.17,5.28q.17,3.06.34,6.1h74.63c-1.62,4.21-3.24,8.42-6.24,16.24H412.37l.45,3.72L403.23,625l3.18,4.16h81c-.85,3.3-1.71,6.59-2.75,10.61H595.41L593.53,629H762.8c2-54.44,4-107.22,5.92-160.18-5.48,0-9.41,0-13.4.07,1.42-55.9,3.24-111.78,4.12-167.68.67-42.46.13-84.93.13-132-2.83,8.67-6,14.26-6.31,20-1.79,33.69-3,67.41-4.24,101.13-2.17,60.66-4.19,121.33-6.35,184.3l13.09-6.27c-2.89,52.06-5.77,104.11-8.48,153.07-68.68,2.9-134.77,5.9-200.88,8.38-19.83.74-39.72,0-59.59,0-3.83-2.91-7.47-8-11.52-8.36-16.16-1.45-32.46-1.39-48.69-2-1.48-.06-2.92-1.17-5.36-2.21l16.46-10.68c-75.94-1.89-147.46-3.66-218.95-5.46M793,182.6H780.47q-5.07,139.61-10.11,278.68l7,2.2c3.06-6.38,8.37-12.61,8.78-19.15,1.72-27.67,2.12-55.43,2.75-83.16q2-89.46,3.87-178.89l21.9,11V136.58C800.89,141,794.25,149,795.19,163.25c.42,6.37-1.38,12.89-2.17,19.35M274,506.09c3.18,2.37,6.25,6.63,9.56,6.83,46.8,2.87,93.64,5.14,140.47,7.64,20.81,1.11,41.62,2.4,62.43,3.6l1.74-5.56c-7.52-2.71-14.89-7.25-22.57-7.85q-79.1-6.17-158.32-10.74c-9.86-.59-19.88,1.5-29.82,2.35l-62.36-10.65a86.7,86.7,0,0,1,0-8.83c7-68.92,14.08-137.82,20.88-206.76,1.09-11.07,6.31-23.88-10.6-32.33-9.38,89-18.59,176.38-27.87,264.51l62.32,4-6.73,10.35,4.62,3.44c3-4,5.83-8,8.93-11.88,2.27-2.83,4.84-5.42,7.28-8.12M116.18,614.15l-12,10.77c75.92,4.09,95.26,2.78,103.5-10.46h-92l14.4-13.24L113,599.13V276.89c-4,1.06-7.73,2.05-11.52,3.11.14-51.73,0-103.46.6-155.19.14-12.83-1.58-23.41-16-29.13V292l15.72-12.44V614.12c3.85,0,9.15,0,14.38,0m134-62.63c-2.06,3.92-4.13,7.84-7.39,14,87.52,1.86,172.74,3.75,258,5.19,3.61.06,7.29-4.07,10.94-6.24-6.43-3.84-11.19-3.75-15.95-3.85-71.53-1.49-143.06-2.85-214.58-4.68-10.41-.27-20.76-2.82-31.14-4.31.44-3.87.87-7.75,1.35-12.1l-27.64-1.33,16.84-9.11-3.16-3.9-52.36-3c3.72-45.41,7.18-88,10.71-130.52,4.28-51.65,8.85-103.27,12.64-154.95.51-7-2.86-14.21-4.43-21.33l-5.59.89C189.85,322.13,181.26,428,172.62,534.48l49.44,3.74q.91,2.1,1.81,4.22l-13.81,6.78,2.88,4.37,37.29-2.07M611.63,653q74.67.75,149.34,1.47c11.18.11,22.37,0,34.95,0,2.72-68.78,5.35-135.06,8-201.68-14.24.72-17,7.74-17.18,19.2-.81,48.75-2.49,97.48-4,146.21-.22,7-1.15,14-1.94,23.22H606c2.73,5.5,4.25,8.58,5.81,11.7-5.06.94-10.12,2.62-15.2,2.71-36,.68-72,.64-107.93,1.88-5.9.2-11.63,5.58-17.44,8.56q1.29,2.28,2.57,4.56H627.54L611.63,653M69.24,74.36l14.91,9.69c.7-10.76,1.3-20,2.06-31.76H419.42c-1.3,2-3,4.57-4.47,6.85H518.88c-29.43-14.89-61-5.16-91.3-10l3.13-9H69.36c0,13.12,0,23.86,0,34.53L50.58,53.76V316L68,307c.53,105.87,1.23,211.75,1.34,317.63,0,10.92-3.39,21.85-5.11,32.16,39.11,0,82.23,0,125.28,0l-11.79,16.57H290.35l-18.26,11c63.32,0,124.5.12,185.68-.33,3.16,0,6.27-4.94,9.41-7.58l-2.06-4.31H295.5l20.84-11.78c-.33-1.11-.66-2.22-1-3.33H189.19V643H73.68l12.69-10.1c-1.81-9.68-4.18-16.47-4.19-23.27-.15-86,0-172,.15-258,0-17.18,0-34.35,0-54l-14.9,10c.11-46.72.07-93.43.39-140.15.21-31.05.93-62.09,1.42-93.14m127.7,563.31,3.2,5.91H357l-17,11.61c44.52,0,86,.23,127.38-.34,4.18-.06,8.3-5,12.45-7.59l-1.72-3.75H360l22.08-11.38c-57-3.66-113.25-3.9-169.53-3.26-5.24.06-10.42,5.74-15.63,8.8m61.44-365.38-6.57,1.7q-10.38,102.72-20.74,205.29c50.51,8.33,55.49,7.7,59.24-7.48l-44.83-3.95c0-5.86-.37-10,.06-14.12,5.52-52.66,11.41-105.28,16.48-158,.73-7.64-2.33-15.64-3.64-23.47m46.7,53.3c4.51-43.28,8.43-80.77,12.51-119.94H336.1c34.31,0,68.63.21,102.93-.22,5.28-.07,10.51-3,15.77-4.67q-.89-2.3-1.75-4.59H305.38c-3.54,37.25-7.32,73.71-10.07,110.25C295,311,300,316,305.08,325.59M699.75,573.33c-48.33,0-94.58-1-140.75.5-17.71.56-35.26,6.61-52.78,10.58-1.27.29-1.74,4.07-3.11,7.56h48.76c-.87-3.16-1.58-5.76-2.34-8.55H712.47V492.48l-5.73-1.32c-6.52,26.69-4.59,54.92-7,82.17M506.94,546.75l1-5.34c-5.63-1.76-11.2-4.82-16.9-5.09q-108.19-5.07-216.43-9.14c-5.06-.19-10.29,4.08-15.44,6.28l1.95,5,245.81,8.27M260.86,170.21c-20.08,12.44-26,79.15-9.12,92.36,3-30.71,6-60.8,9.12-92.36m275,332-64.94-3.8c16,16.8,52.86,19.09,64.94,3.8M549.27,38.41H492c21.44,13.14,44.23,13.22,57.31,0"/><path class="cls-4" d="M541.21-36.81,518.92-19.22h60.43q1.23,2.58,2.48,5.16c-5.27,3.43-10.4,9.49-15.85,9.81-20.25,1.18-40.61.47-64.33.47L518.1-19.51H364l24.6,12.83-.7,2.92H369c-112,0-224-.07-336,.31-7.43,0-19.26-6.2-20.67,9.08L2.84,3v-29c3,.43,5.9,1.2,8.86,1.23Q179-23.07,346.27-21.6c2.47,0,4.94-.94,9.68-1.9L331.64-36.81Z"/><path class="cls-4" d="M13.91,683.7,2.83,690.79V354.14l10.25-6.09v21.38q0,146.32,0,292.66c0,7.2.51,14.41.79,21.61"/><path class="cls-4" d="M837.31,119.49l7.41-4.26v94.11l-9.23-2s.07.14.07.14l2.24-88.56Z"/><path class="cls-4" d="M560.47,23.74h-94.3l8.39-12.4H429.1L446,21c-.19,1-.38,2-.56,3H48.62c-1.13,7.42-2,13-3.1,20.42C39.24,38.82,34.12,34.23,29,29.59l.46.5V11.14H426.09L409.86-.23h77.42l-7.19,11h83l-3.23,13.56Z"/><path class="cls-4" d="M189.62,656.78H64.27c1.72-10.31,5.13-21.24,5.11-32.16C69.27,518.74,68.57,412.86,68,307l-.62.67,14.91-10c0,19.64,0,36.82,0,54-.1,86-.3,172-.15,258,0,6.8,2.38,13.59,4.19,23.27L73.68,643H189.19v14Z"/><path class="cls-4" d="M32.55,331.88l16.54-9.27c0,29.58-.05,56.47,0,83.36.2,79.56.7,159.12.28,238.67,0,7.77-5.63,15.5-8.64,23.25l-6-1.54c-.61-3.83-1.73-7.65-1.75-11.48q-.74-156.39-1.21-312.8c0-3.55.85-7.11,1.3-10.66Z"/><path class="cls-4" d="M69.36,74.71V40.11H430.71l-3.13,9c30.31,4.84,61.87-4.89,91.3,10H415c1.48-2.28,3.17-4.87,4.47-6.85H86.21c-.76,11.78-1.36,21-2.06,31.76-5.93-3.86-10.42-6.77-14.93-9.72,0,0,.14.38.14.38"/><path class="cls-4" d="M157.26,243.23l23.18-17C175,336.9,169.73,443.6,164.37,552.38h32.52c-2.4,5.39-3.71,8.35-5.66,12.74l44.32,2.32c0,1.93.08,3.86.13,5.78-17.81,7.71-37,.42-58.35,3.21l8.44-12.31H154.58c0-7.21-.07-13.51,0-19.82q1.86-140,3.71-280c.09-7.21-.38-14.42-.57-21.66l-.47.59"/><path class="cls-4" d="M643.64,684.31l-9.28-10.37H813.08c3.72-79.2,7.35-156.5,11-233.8l-.62.59,13.34-3c0,16.65.49,32.61-.08,48.54-2.17,59.66-5.1,119.29-6.76,179-.4,14.2-4.92,18.2-19,18.07-56-.52-112,.25-168,.55Z"/><path class="cls-4" d="M611.82,653.07c-1.52-3.08-3.05-6.16-5.78-11.66H780.81c.79-9.17,1.72-16.18,1.94-23.22,1.49-48.73,3.17-97.46,4-146.2.19-11.47,2.94-18.49,17.18-19.21-2.64,66.62-5.27,132.9-8,201.68-12.58,0-23.77.09-34.95,0q-74.67-.69-149.34-1.47Z"/><path class="cls-4" d="M250.25,551.51l-37.31,2.08-2.88-4.37,13.82-6.78c-.61-1.41-1.21-2.82-1.82-4.22l-49.44-3.74c8.64-106.53,17.23-212.35,25.81-318.17l5.59-.89c1.57,7.12,4.94,14.37,4.43,21.33-3.79,51.68-8.36,103.3-12.64,155-3.53,42.55-7,85.11-10.71,130.52l52.36,3,3.16,3.9-16.84,9.11,27.64,1.33c-.48,4.35-.91,8.23-1.35,12.1Z"/><path class="cls-4" d="M101.52,279.93l11.46-3V599.13l17.14,2.09-14.4,13.24.53-.34H101.8V279.51Z"/><path class="cls-4" d="M274,506.09c-2.44,2.7-5,5.29-7.28,8.12-3.1,3.87-6,7.91-8.93,11.88l-4.62-3.44,6.73-10.35-62.32-4c9.28-88.13,18.49-175.56,27.87-264.51,16.91,8.45,11.69,21.26,10.6,32.33-6.8,68.94-13.92,137.84-20.88,206.76a86.7,86.7,0,0,0,0,8.83l62.36,10.65L274,506.09"/><path class="cls-4" d="M33.11,331.41,15.06,342V17.67c5.75,5,10,8.66,14.33,12.39L29,29.59c.35,78.7.49,157.35,1.07,236,.16,22.12,1.6,44.23,2.49,66.31l.59-.49"/><path class="cls-4" d="M128.41,264.82l13.38-10.52V575.14L162,577.63l.45,5.72-34.28,4.38c0-43.54-.09-84.29,0-125q.27-99.22.78-198.47l-.51.6"/><path class="cls-4" d="M68,307l-17.46,9V53.76L69.34,74.67s-.14-.38-.12-.34c-.47,31.08-1.19,62.12-1.4,93.17-.32,46.72-.28,93.43-.4,140.16L68,307"/><path class="cls-4" d="M755.38,468.78h13.34c-2,53-3.9,105.74-5.92,160.18H593.53l1.88,10.84H484.7c1-4,1.9-7.31,2.75-10.61l-.64.64c19.87,0,39.76.74,59.59,0,66.11-2.48,132.2-5.48,200.87-8.38,2.72-49,5.61-101,8.49-153.07Z"/><path class="cls-4" d="M605,279.5c7.4-.61,9.42-17.88,20.64-6.69q2.1-5.51,4.24-11l-.11,0c2.3,2,6.74,4.12,6.6,5.91-4.39,57.7-9.18,115.36-14,173-1.76,21-3.75,41.95-5.85,65.35L538.86,501c7.76-10.32,7.75-10.18,32-7.61,11.16,1.19,22.4,1.71,34.48,2.6l18.78-211.93-2.41-.84c-5.11,12.45-10.22,24.91-16.25,39.59,0-16.43,0-30.13,0-43.85l-.42.54"/><path class="cls-4" d="M824.06,440.14l-18.67,7.26c3.43-83.88,6.78-165.72,10.27-250.95l19.89,11s-.08-.15-.06-.14c-1.32,3.13-3.7,6.21-3.82,9.38q-4.36,112-8.25,224l.64-.61"/><path class="cls-4" d="M792.71,182.23q-1.9,89.48-3.84,178.94c-.63,27.73-1,55.49-2.75,83.16-.4,6.54-5.72,12.77-8.78,19.15l-7-2.2q5.05-139.2,10.11-278.68H793Z"/><path class="cls-4" d="M466.23,183.28H290.94c-4.18,36.53-8.21,71.87-12.25,107.22l-6.09,1.13c-2.1-7.44-6.35-15-5.91-22.3,1.71-28.19,4.55-56.33,8-84.37.51-4.15,6.47-10.89,10-10.93,61-.67,122.07-.48,184-.48l-3.06,10.38Z"/><path class="cls-4" d="M551.06,464.2l20.29-1.69c2.23-19.09,4.49-38.46,6.75-57.84l-3.27-1.27q-4.47,9.93-9,19.85l-2.47-.63,10.32-122.83-.63.67L588.39,292c-3.63,35-7,67.65-10.42,100.32l1.52.51q8.31-20,16.61-40l2.9.43c-4,41.59-8,83.18-12.17,127.22l-38.37-3.59c1.18-5.25,2.07-9.18,3-13.15l-.39.5"/><path class="cls-4" d="M704.65,208.12,710,207c0,43.36.86,87.09-.23,130.77-1.17,46.94-3.91,93.85-6.65,140.74-.39,6.7-4.64,13.17-7.11,19.75l-7.49-1.79q8.29-144.42,16.6-288.84Z"/><path class="cls-4" d="M651.89,246.84,635,248.68,629.8,261.8l.11,0q1.32-39.22,2.72-78.5c.17-4.72.66-9.42,1.09-15.18H476.61c2.73-4.9,5.18-9.28,7.63-13.66l-.65.62,138.63.1H646c-2.19,27.41-4.28,53.41-6.72,84l14.37-32.82,3.88.48q-3,20.19-5.92,40.36Z"/><path class="cls-4" d="M436.55,230.76H352.7c-5.91,38-12.14,78-18.53,119.09-11.77-3.3-14.3-11-12.88-21.55,4.88-36.3,9.6-72.62,14.48-109.68H441.89l-6,12.73.64-.59"/><path class="cls-4" d="M569.32,606.82l-6.44-10.28H725.06c2.46-38.73,4.81-76.24,7.41-113.75,0-.7,3-1.21,5.24-2.05v125.5c-57.91,0-113.44,0-169,0l.56.55"/><path class="cls-4" d="M541.41,321.3l16.45-8.5c-4.74,40.94-9.23,79.78-14,120.94l-143.24-9.28c-.19-1.77-.39-3.54-.58-5.3,5.31-1.16,10.66-3.47,15.92-3.29q49.47,1.63,98.89,4.37c9.45.53,14.32-1.83,15.54-12.1,3.45-29.21,7.7-58.32,11.64-87.47Z"/><path class="cls-4" d="M755.76,468.38l-13.09,6.27c2.16-63,4.18-123.64,6.35-184.3,1.21-33.72,2.45-67.44,4.24-101.13.3-5.74,3.48-11.33,6.31-20,0,47,.54,89.49-.13,132-.88,55.9-2.7,111.78-4.09,167.64l.41-.43"/><path class="cls-4" d="M678.37,227.53l13.1-6.49c-2.63,41.81-5.25,81.73-7.63,121.66q-4.86,82-9.45,164l.68-.69-12.74,3.19c5.6-94.74,11.14-188.54,16.68-282.34Z"/><path class="cls-4" d="M258.38,272.3c1.31,7.83,4.37,15.82,3.64,23.46-5.07,52.7-11,105.31-16.48,158-.43,4.09-.06,8.26-.06,14.12l44.83,3.95c-3.75,15.18-8.73,15.81-59.24,7.48Q241.44,376.79,251.81,274l6.57-1.69"/><path class="cls-4" d="M730.14,189.82c10.45-1.76,9.16,5.31,8.92,11.76-1.08,29.49-2,59-3.15,88.49-2.26,60.19-4.48,120.38-7.07,180.56-.21,4.82-3.11,9.53-4.76,14.28l-5.24-1.06c0-15.15-.52-30.33.09-45.46q4.73-118.26,10-236.51c.18-4.17,1-8.32,1.55-12.46l-.32.4"/><path class="cls-4" d="M157.54,165.37c1.45-20.3,2.9-40.6,4.48-62.78H346.6c-1.13,1.61-2.44,3.48-3.77,5.35l.44-.34H186.87c-1.77,29.11-3.28,54.07-5.06,83.47L157,164.72Z"/><path class="cls-4" d="M494,607.36,455.07,604l15.7-8.81-.66-4.43H231.54c-.44-2.7-.88-5.41-1.31-8.11,5.54-1.34,11.11-3.91,16.64-3.84,69.68.87,139.36,2.15,209,3.26,11.23.17,22.47,0,38.56,0L478.3,592.22l20.09,2.21c-1.94,5.23-3.47,9.39-5,13.55Z"/><path class="cls-4" d="M465.56,183.93H615.13q-5,47.72-10.09,95.55l.41-.52-14.64,4.8c2.93-29.66,5.74-58.07,8.76-88.63H461.39c2.31-5.67,3.56-8.75,4.83-11.84l-.66.64"/><path class="cls-4" d="M651.59,247.13l15-9.52c-7.42,95.59-14.66,189-21.91,282.41l-9.64.22c5.58-76.93,11.31-153.85,16.62-230.8,1-14.16.27-28.44.3-42.63l-.34.32"/><path class="cls-4" d="M305.08,325.59C300,316,295,311,295.31,306.42c2.75-36.54,6.53-73,10.07-110.25H453.05q.87,2.29,1.75,4.59c-5.26,1.63-10.49,4.6-15.77,4.67-34.3.43-68.62.22-102.93.22H317.59c-4.08,39.17-8,76.66-12.51,119.94"/><path class="cls-4" d="M484.24,154.44H281.79l1.62-6.37H250.65c-6.45,11.24,3.39,30.74-16.93,35.23-.49-1.62-1.2-2.77-1.12-3.87,3-43.46,3-43.46,61-41.12-.79,2.79-1.48,5.25-2.49,8.81,36.12,0,71.93.18,107.73-.06,24.07-.15,48.14-1,72.22-1.31,6.34-.1,14.3-1.78,12.54,9.32l.66-.63"/><path class="cls-4" d="M679,226.86l-9.85,3.78c2-26.1,3.9-50.88,5.79-75.67l-2.26-.75c-3.14,6.66-6.27,13.32-10.78,22.9V144H492.14l-.42-7.19c33-3.25,66.34-2.87,99.53-2.72,30.75.13,61.67-4.45,93.49,4.32l-6.38,89.09s.65-.67.65-.67"/><path class="cls-4" d="M699.75,573.33c2.4-27.25.47-55.48,7-82.17l5.74,1.32v90.94H549.53c.76,2.79,1.47,5.39,2.34,8.55H503.11c1.37-3.49,1.84-7.27,3.11-7.56,17.52-4,35.07-10,52.77-10.58,46.18-1.48,92.43-.5,140.76-.5"/><path class="cls-4" d="M274,506.09l3.49-3.73c9.94-.85,20-2.94,29.82-2.35q79.2,4.67,158.32,10.74c7.68.6,15.05,5.14,22.57,7.85l-1.74,5.56c-20.81-1.2-41.62-2.49-62.43-3.6-46.83-2.5-93.67-4.77-140.47-7.64-3.31-.2-6.38-4.46-9.56-6.83"/><path class="cls-4" d="M250.07,551.64c10.38,1.49,20.73,4,31.14,4.31,71.52,1.83,143.05,3.19,214.58,4.68,4.76.1,9.52,0,15.95,3.85-3.65,2.18-7.33,6.31-10.94,6.24-85.22-1.44-170.44-3.33-258-5.19l7.4-14-.17.12"/><path class="cls-4" d="M573.73,299.79l-13.37,5.7c3.19-28.91,6.22-56.37,9.61-87.07H446.77c10.22-12.24,99.5-16.24,136.4-8.61-3.33,30.06-6.69,60.34-10.06,90.64l.62-.66"/><path class="cls-4" d="M837.8,118.93l-17.19,8V23.18H726.85c1.06-5.59,1.77-9.3,2.48-13l-.68.67H837.31V119.48l.49-.55"/><path class="cls-4" d="M506.94,546.75l-245.81-8.27c-.65-1.67-1.3-3.35-1.94-5,5.14-2.2,10.37-6.47,15.43-6.28q108.24,3.95,216.43,9.14c5.7.27,11.27,3.33,16.9,5.09Z"/><path class="cls-4" d="M101.8,279.51,86.08,292V95.68c14.4,5.72,16.12,16.3,16,29.13-.57,51.73-.46,103.46-.57,155.16l.31-.46"/><path class="cls-4" d="M303.58,458.19l-40.69-4q8-75.9,15.91-151.39l6-1.57c2.25,7.86,6.88,15.9,6.32,23.55-2.29,31.24-6.23,62.36-9.39,93.54-.73,7.14-.79,14.35-1.25,23.44l27.87,4.35L303,458.83Z"/><path class="cls-4" d="M356.94,379.48q1.86-9.18,3.73-18.37l-.26.56c4.67-6.81,9.35-13.61,16.5-24-1.94,15.51-3.28,26.19-5,40h80.94l-10,14.09c21.51,1.63,40.6,3.47,59.73,4.11,3,.1,8.39-4.95,8.84-8.16,2.27-16,3.26-32.24,4.7-48.39l-.75.66,12.16-6.53-9.77,71.87L436,398.48c.54-2.5,1.07-5,2.54-11.86H363.93l-7-7.14"/><path class="cls-4" d="M395.48,70.67H117.68c-1.19,18.49-2.05,31.91-3.08,47.93-17.85-15.06-7.34-32.76-11.93-52.11h295c.05-.09-1.31,2.18-2.73,4.48l.54-.3"/><path class="cls-4" d="M674.39,506.7l11.9-3.33c-1,20.41-1.86,39.4-2.76,58.48H556.19l15.4-11.66-50.19-3.57.12-5.14H585.2l-7.13,9.39h92.54c1.4-14,2.93-29.46,4.46-44.87l-.68.7"/><path class="cls-4" d="M134.93,142.42c-.86-17.81-1.73-35.62-2.74-56.61H370.75c0-.08-1,1.8-2.13,3.7l.48-.36H147V150.8l-12.44-8.72Z"/><path class="cls-4" d="M542,320.67l-11.76,6.08c3.73-27.17,7.17-52.21,11.2-81.55H433.33c1.72-7.7,2.47-11.07,3.22-14.45l-.64.6H553.13c-4.35,33.31-8,61.64-11.74,90l.65-.65"/><path class="cls-4" d="M717,36.89h78.78c7,45.84.54,107.44-12.39,115.17V45.84c-17.28,0-35.1-.23-52.9.12-7.23.14-13.18-.18-13.06-9.56l-.43.49"/><path class="cls-4" d="M303,458.83l29,2.77L322.23,474l132,10.28-.65-.55,9.75,12.12-155.86-9.72,9.78-11.9L299,470c1.71-4.43,3.11-8.08,4.53-11.74l-.61.62"/><path class="cls-4" d="M635,520.24l9.65-.22,15.48-5.84c-.57,9.54-1.06,17.61-1.6,26.75H603l11.82-9.5-83.66-5.38c-.47-1.84-.95-3.68-1.42-5.52,4.66-1.39,9.36-4.08,14-3.95,30.45.88,60.88,2.37,91.31,3.66"/><path class="cls-4" d="M425.38,253.16c16.66,1.29,33.33,2.54,50,3.88s33.14,2.76,51.93,4.33c-4.08,27-8,52.79-11.91,78.61l.75-.65-10.36,3.17c2.69-24.09,5.25-47,7.92-70.95l-93.51-7.87c2.67-5.18,4.22-8.19,5.78-11.2Z"/><path class="cls-4" d="M360.67,361.11q-3.87,4.89-7.72,9.8l-3.78-.72L367.44,243c17.89,0,34-.48,50.09.46,2.8.16,5.24,6.3,7.85,9.69l.59-.68H377.49c-5.53,35.34-11.3,72.27-17.08,109.19Z"/><path class="cls-4" d="M314.51,127.28H495.44c-6.66,7.65-127.12,13.54-186.56,8.18,2.18-3,4.15-5.7,6.18-8.42.06,0-.55.24-.55.24"/><path class="cls-4" d="M134.59,142.08c-1.26,6.74-3.4,13.45-3.62,20.22-1.12,34.15-1.74,68.33-2.55,102.5l.5-.58-11.83,2.3V127.29l17.78,15.07-.28-.28"/><path class="cls-4" d="M559.86,24.34H721.28c-1.72,5-3,8.77-4.28,12.53l.41-.47c-53.29,0-106.55,0-162,0,2.23-5.6,3.63-9.13,5.05-12.67l-.59.58"/><path class="cls-4" d="M711.13,57.88h55.78V165l11.8-3.49v13.79C760,172,752.62,162.66,754.06,143.36c1.91-25.54.47-51.33.47-78.82-10.59,0-23,.41-35.44-.32-2.6-.16-5-4.48-7.41-6.89Z"/><path class="cls-4" d="M515,97.93h91.69L595,86.84H695.74l1.41,3.86c-3.89,1.86-7.69,5.14-11.67,5.38-50.7,3-101.42,5.58-152.14,8.18-4.78.25-9.69.46-14.32-.44-1.48-.29-2.24-4.26-3.32-6.54Z"/><path class="cls-4" d="M212,202.48l-12.87,6.15c2.37-29.31,4.6-56.89,7-87H320.75c-2.13,1.93-4.12,3.75-6.18,5.58-.06,0,.55-.25.49-.21-31.73,0-63.39,0-96.76,0-2.36,25.94-4.63,51-6.9,76Z"/><path class="cls-4" d="M729.33,10.17h-158l-1.56-5c5.06-2.29,10.11-6.52,15.2-6.57,48-.51,96-.31,145.53-.31-.73,5-1.28,8.75-1.84,12.53l.68-.67"/><path class="cls-4" d="M427,452.82,415.45,440l139.08,8.83c-1.25,5.56-2.34,10.44-3.45,15.33l.37-.47c-26.77-2.72-53.49-5.64-80.25-8.16-14.91-1.41-29.89-2.14-44.84-3.18Z"/><path class="cls-4" d="M711.68,57.33H542.94l-.21-5.55c55.56-6,111.57-3.27,168.39-5.23,0,4.56,0,7.94,0,11.33l.55-.55"/><path class="cls-4" d="M704.55,74.09c-31.78,1.08-63.62,1.33-95.33,3.49-24.32,1.65-48.45,6-72.74,8.34-3.12.3-6.7-4.21-10.06-6.49l-.6.62h39.41c.55-1.09,1.1-2.18,1.66-3.27l-8.25-4.65,1-4c17.55,0,35.1.18,52.64,0,25.81-.31,51.62-1.32,77.41-1,4.84.06,9.62,4.89,14.41,7.55l.46-.58"/><path class="cls-4" d="M504.18,116.31c33.08-.81,66.16-2,99.25-2.33,28.57-.33,55.48-19.26,85.3-4h-47l7.9,9.34c-1.12.9-1.94,2.13-2.77,2.14-43.34.43-86.68.93-130,.79-4,0-8.09-4.24-12.14-6.51Z"/><path class="cls-4" d="M504.75,115.69H335.8l7.46-8.08-.43.33h164c-.69,2.21-1.66,5.27-2.64,8.35l.56-.6"/><path class="cls-4" d="M317.7,433.11l-21.14-3.74c3.2-32.77,6.37-65.28,9.55-97.8l5.6,0c15,27.72-5.49,56.62-.61,86.59l11.62,4-5.66,11.68.64-.65"/><path class="cls-4" d="M526.42,79.43h-141c4.33-3.79,7.13-6.25,10-8.73l-.49.27c44.47,0,88.88,0,134,0L525.84,80l.58-.6"/><path class="cls-4" d="M426.36,452.36c2.82,4.26,5.63,8.53,10.35,15.68l-94.31-6.85,13.91-12.64-.5.37L427,452.8l-.61-.44"/><path class="cls-4" d="M454.24,484.31l-8.54-13.89,97.1,8,1.22,5.69c-5,1.55-10,4.61-14.92,4.39-25.18-1.09-50.32-3-75.49-4.68l.63.53"/><path class="cls-4" d="M260.86,170.21c-3.12,31.56-6.09,61.65-9.12,92.36-16.84-13.21-11-79.92,9.12-92.36"/><path class="cls-4" d="M515.7,97.28H361.51l7.56-8.12s-.48.37-.45.35c45.16-.38,90.29-.92,135.42-.86,4.79,0,17.51-5.74,11,9.26,0,0,.65-.63.65-.63"/><path class="cls-4" d="M793,182.6c.79-6.46,2.59-13,2.17-19.35-.94-14.24,5.7-22.21,19.45-26.67v56.71l-21.92-11,.3.34"/><path class="cls-4" d="M730.34,156.68V83.43c-6.14,0-13.26.78-20-.43-2.38-.43-3.88-5.77-5.76-8.88,0,0-.47.57-.45.55,12.3.8,24.59,1.62,39.23,2.61-1.17,25-2.07,49.26-3.86,73.49-.15,2-6.25,3.63-9.58,5.43Z"/><path class="cls-4" d="M157,164.71q.14,39.24.25,78.5l.45-.57c-3.23,1.07-6.45,2.11-10.75,3.5V159.9l10.58,5.49-.53-.68"/><path class="cls-4" d="M219.38,600.46H144.75q-.18-3-.34-6.1c24.84-10.86,51.49-1.87,79.17-5.28l-4.84,12,.64-.64"/><path class="cls-4" d="M356.94,379.48l7,7.14c-.83,2.72-1.85,7.85-2.45,7.8-6-.48-12-1.82-19.05-3.13l-10.75,16.26L328,406.9q2.79-22.57,5.59-45.14l4.85-1.53L349,380.62l7.92-1.14"/><path class="cls-4" d="M705.09,207.65l-11.43,7.2c1.38-24.37,2.43-45.94,4.2-67.44.11-1.37,5.78-2.29,8.87-3.42l-.58-.49q-.78,32.34-1.53,64.65l.47-.5"/><path class="cls-4" d="M535.88,502.22c-12.08,15.29-48.95,13-64.94-3.8l64.94,3.8"/><path class="cls-4" d="M384.66,410.88,395.8,423.7l-66.46-4.07c0-2.15-.11-4.31-.16-6.46l56.11-1.76Z"/><path class="cls-4" d="M549.27,38.41c-13.08,13.22-35.87,13.14-57.31,0Z"/><path class="cls-4" d="M211.4,203.09,229.55,192l-4.17,41.45c-18.57-5-11.06-20.06-13.34-30.94l-.64.63"/><path class="cls-4" d="M356.31,448.55l-40.84-5.46q1.11-5,2.22-10l-.63.64,52.28,2.9c-6.17,5.6-9.82,8.91-13.51,12.24l.48-.35"/><path class="cls-4" d="M385.29,411.41l-8.26-14,44.38,3.08c-10.9,14.61-23.61,13.36-36.74,10.45,0,0,.62.51.62.51"/><path class="cls-4" d="M706.73,144c1.43-10,3.92-20,3.87-30,0-5.4-4.42-10.79-6.67-15.8h16.34c-.76,15.42-1.51,30.72-2.34,47.42l-11.75-2.08s.55.48.55.48"/><path class="cls-4" d="M729.88,156.19q.11,16.86.23,33.67l.35-.44-11,8.44V151.18l10.88,5.47-.44-.46"/><path d="M360.41,361.67c5.78-36.93,11.55-73.85,17.08-109.19H426c-1.56,3-3.11,6-5.78,11.2l93.51,7.87c-2.67,24-5.23,46.86-7.91,70.95l10.35-3.17c-1.44,16.15-2.43,32.36-4.7,48.39-.45,3.21-5.86,8.26-8.84,8.16-19.13-.64-38.22-2.48-59.73-4.11l10-14.09H371.9c1.73-13.84,3.07-24.52,5-40-7.15,10.41-11.83,17.21-16.5,24m129.07-2.24c-2.2,2.73-3.88,6.39-6.72,8-4.83,2.69-10.39,4.07-15.65,6,.4,1.17.79,2.34,1.18,3.52h32.08c.75-9,1.4-16.88,2.35-28.25l-13.54,11.19c3.39-24.72,6.77-49.44,10.32-75.4-21-1.81-39.05-2.21-56.66-5.17-20.66-3.47-37.41-1-46.39,20.57q7.28-17.53,14.58-35.11H389.54c-2.58,17.85-5.05,34.86-7.51,51.88l3.12.56,11.58-17.85-7.42,66.87c34.93-2.34,67.52-4.53,100.17-6.78"/><path class="cls-4" d="M396.45,299.85c9-21.59,25.73-24,46.39-20.56,17.61,3,35.64,3.36,56.66,5.17-3.55,26-6.93,50.68-10.32,75.4l.24-.37-100.11,6.72,7.42-66.87Zm6.46,50.55L480.36,355c1.89-21.33,3.61-40.68,5.45-61.34l-74.35-5.74c-2.92,21.33-5.58,40.78-8.55,62.46"/><path class="cls-4" d="M396.73,299.34l-11.58,17.85-3.12-.56c2.46-17,4.93-34,7.51-51.88H411l-14.58,35.1.28-.51"/><path class="cls-4" d="M489.18,359.86l13.54-11.19c-1,11.37-1.6,19.22-2.35,28.25H468.29c-.39-1.18-.78-2.35-1.18-3.52,5.26-1.93,10.82-3.31,15.65-6,2.84-1.58,4.52-5.25,6.69-7.94,0,0-.27.4-.27.4"/><path d="M402.91,350.4c3-21.68,5.63-41.13,8.55-62.46l74.35,5.74c-1.84,20.66-3.56,40-5.45,61.34l-77.45-4.62M423.49,302c-1.27,13.32-2.26,23.77-3.42,36h49c1.24-9.65,2.57-19.95,4.13-32l-49.73-4"/><path class="cls-4" d="M423.49,302l49.72,4c-1.55,12-2.88,22.34-4.12,32h-49c1.16-12.2,2.15-22.65,3.42-36m10.72,13.07c-5.29,14.53,3.82,13.91,12.67,14s18,.88,13-14Z"/><path d="M434.21,315.1h25.71c5,14.85-4.19,14-13,14s-18,.56-12.67-14"/></g></g></svg>