<svg id="Calque_1" data-name="Calque 1" xmlns="http://www.w3.org/2000/svg" xmlns:xlink="http://www.w3.org/1999/xlink" viewBox="0 0 841.89 595.28"><defs><style>.cls-1{fill:none;}.cls-2{clip-path:url(#clip-path);}.cls-3{clip-path:url(#clip-path-2);}.cls-4{fill:#fff;}</style><clipPath id="clip-path"><rect class="cls-1" width="841.89" height="595.28"/></clipPath><clipPath id="clip-path-2"><rect class="cls-1" width="841.89" height="595.28"/></clipPath></defs><title>Plan de travail 6</title><g class="cls-2"><g class="cls-3"><path class="cls-4" d="M-43,14.14v-181H887v280c-.61,1.44-1.73,2.87-1.75,4.32q-.3,25.47-.3,50.93-.11,112.73-.14,225.45c0,29.78.28,59.57.53,89.35,0,1.32,1.08,2.63,1.66,3.95v277H-43v-179c.31-9.78.83-19.56.9-29.35.48-71.8,1.26-143.6,1.21-215.41-.06-98.62-.73-197.25-1.21-295.88,0-10.12-.59-20.24-.9-30.36M517.73,750.66h1.09l10.59-259.17,1.34,0q4.25,129.54,8.5,259.09l1,0L551.12,473.4h1.15q4.23,136.68,8.47,273.37H562Q567.36,601,572.72,455.21l1.25,0q4.2,146.74,8.38,293.49l1,0q5.5-157.56,11-315.1h1.19q4.09,153.79,8.17,307.59h1.47L616,409.5h1.25Q621.33,576.25,625.4,743l1.24,0q5.49-180.27,11-360.54a60.07,60.07,0,0,1,1.87,13.32q1.62,69.23,3.06,138.46,2,97,3.89,193.94c.06,3.15.55,6.29.84,9.43l1-.12,11.09-389.85,1.2,0q3.95,195.25,7.9,390.49a8.42,8.42,0,0,0,1.29-4.82q3-107.21,5.88-214.4c1.7-65.14,3.18-130.29,4.83-195.43.09-3.36.8-6.7,1.22-10.06l.72.11q3.8,210.58,7.6,421.19l1.62,0c0-1.26,0-2.52,0-3.77,2.23-97.64,4.23-195.27,6.76-292.9,1.85-71.14,4-142.24,1.88-213.43-2.75-93.62-4.7-187.26-7-280.89q-1-40.11-1.92-80.22l-1.34,0-7.63,421.77H681q-5.61-212.86-11.21-425.74h-1.22L660.6,250.86l-1.23,0-11.1-391.27a50.14,50.14,0,0,0-1.83,12.23c-.51,23.32-.84,46.65-1.33,70Q642.37,72,639.52,202.24c-.11,4.92-.83,9.82-1.27,14.73l-.61-.09q-5.5-180.76-11-361.55l-1.21,0-8.14,333.51H616q-5.41-166.31-10.82-332.61h-1.39q-4.1,154.24-8.21,308.5l-1.22,0L583.46-148.58l-1.14,0Q578.15-2.75,574,143.05h-1.28l-10.66-289.7H560.7q-4.25,136.59-8.48,273.19l-1.06,0L540.33-150.63l-1.12,0Q535-21.4,530.73,107.8l-1.29,0Q524.19-20.54,518.93-148.9H517.6Q513.28-27.07,509,94.79h-1.06Q502.57-28.5,497.25-151.77l-1.21,0q-4.25,115.32-8.5,230.63l-1.36.06L475.77-151.53h-1.28Q470.17-41.79,465.84,68l-1.21,0q-5.25-110.62-10.51-221.25l-1.21,0L444.39,55.23l-1.46.05q-5.15-104.4-10.3-208.8l-1.24,0-9,207.9-1.39,0-9.54-205.39H410q-4.83,104.59-9.64,209.2l-1.14,0-9.51-212.49h-1.05q-4.85,109.86-9.68,219.71l-1.55,0q-4.51-107.64-9-215.27h-1.46L357.14,81.89h-1.07l-9.39-232.71h-1.25q-4.85,121-9.68,242h-1.46l-9-238.06h-1.53L314,110.88h-1Q308.27-19,303.6-148.85l-1.29,0L292.62,122l-1.48,0q-4.49-133.61-9-267.21l-1.52,0-9.81,290.06h-1.12q-4.65-146.8-9.29-293.61l-1.14,0L249.46,161.5H248q-4.43-151.44-8.86-302.87l-1.55,0-9.78,330.15h-1.23q-4.65-168.48-9.31-337l-1,0-10,363-1.42,0Q200.4,38.12,196-138.7h-1.49q-5,194.85-9.88,389.71l-1.19,0q-4.64-197.71-9.28-395.41h-1q-5,214.05-9.94,428.1l-1.56,0q-4.43-210.06-8.86-420.12a47.71,47.71,0,0,0-1.39,10.37q-4,178.44-7.93,356.89c-1.66,72.34.33,144.64,2.07,217,2.07,86.3,3.52,172.62,5.29,258.93.19,9.35.72,18.69,1.09,28l.88,0q4.44-210.78,8.89-421.57h1.47l10,429.64h1l9.26-395.2h1.19l9.89,390.39,1.48,0,8.85-352.95,1.49,0q5,180.75,9.94,361.51h1q4.66-168.56,9.32-337.1h1.19l9.81,331.07h1.54L248,437l1.48,0,9.84,310.7,1.12,0q4.66-147.19,9.32-294.38l1.11,0,9.84,291h1.47q4.47-133.65,8.95-267.31l1.52,0q4.85,135.36,9.7,270.73h1.26q4.65-129.14,9.28-258.27l1.15,0,9.78,257,1.47,0,9-239.29,1.45,0L345.44,750l1.23,0q4.68-116.3,9.37-232.57l1.11,0q4.86,115.15,9.7,230.3l1.55,0,9-213.84,1.59,0L388.6,752.7l1.1-.05,9.54-213.21,1,0q4.85,105,9.7,209.91l1.54,0q4.75-102.6,9.52-205.2h1.37l9,207.88,1.27-.06q5.13-104.08,10.25-208.17l1.51.08q4.24,104.07,8.5,208.16h1.22l10.53-221.67,1.17,0,8.7,220.57,1.22,0Q480.92,636,486.11,521.13l1.47.06q4.25,114.76,8.48,229.52h1.17q5.32-123.15,10.66-246.3H509q4.38,123.12,8.75,246.24m195-888.93-.88.1c-.47,21.81-1.07,43.63-1.4,65.45q-2.16,140.48-4.19,280.94c-.48,31.49-1.69,63-1.63,94.47.06,33.49,1.38,67,1.9,100.47q2.28,146,4.38,291.93c.22,14.1.69,28.2,1,42.3q2.35-57.25,3.55-114.46c1.42-64.31,2.63-128.62,4-192.94.91-44.65,3.11-89.31,2.55-133.94-1.16-91.64-3.78-183.27-5.79-274.9q-1.75-79.71-3.48-159.42m-581.83-2.15h-.6c-.66,24.6-1.47,49.19-1.94,73.8q-2.13,112.7-4,225.39c-.85,48.14-2.86,96.3-2.28,144.42,1.4,116.62,4,233.22,6.17,349.83.53,28.53,1.31,57.05,2,85.57h1.72c0-16-.24-32,0-48q2.63-150.18,5.47-300.35c.6-32.48,2.33-65,1.87-97.44-1.29-90.79-3.46-181.57-5.26-272.36q-1.59-80.44-3.13-160.9m603.56,12-.35,0c-.3,3.46-.83,6.92-.88,10.39q-1.39,93.48-2.65,187c-1.05,81.82-3.12,163.64-2.72,245.45.63,126.49,3,253,4.63,379.44.14,11,.81,22,1.24,32.94,2.63-93.85,4.52-187.65,6.37-281.45,1-49.82,3.17-99.65,2.6-149.46-1.16-102.14-3.79-204.27-5.83-306.41q-1.18-58.92-2.41-117.83M108.58,728.75l1.23,0c0-3.32,0-6.64,0-10q2.06-123.45,4.13-246.89c1-58.14,3.14-116.3,2.55-174.42-1.28-125.12-4-250.22-6.08-375.33-.28-17.1,0-34.21,0-51.32h-1.29c-.35,6.82-.91,13.63-1,20.45Q106,8.71,104,126.15c-1,59.64-3.17,119.29-2.61,178.92,1.08,117.45,3.68,234.9,5.7,352.34.41,23.78,1,47.56,1.49,71.34m647.18,4.76c1.54-84.13,3.26-168.25,4.56-252.39,1.22-79.12,4-158.22,2.21-237.39-1.87-82.62-2.74-165.26-4.2-247.89-.76-43.37-1.84-86.73-2.77-130.09-6.67,136.4-6.67,698.46.2,867.76M87.34-120.28c-7.61,275.93-7.66,563,0,839,8-276,7.91-563.06,0-839M66.49,717.41c1.78-139.45,5-278.9,5-418.35s-3.18-278.76-5-418.15q-11,418.32,0,836.5m711.21-1.88c0-1.66,0-3.33,0-5q1.84-120.46,3.7-240.94c.91-60.15,2.88-120.32,2.39-180.46-.92-111.81-3.35-223.61-5-335.42-.35-23.33,0-46.66,0-70h-1.42c-5.55,78.94-5.56,761.91.38,831.79m21.15-840.21h-.78c-1.06,140.61-2.94,281.22-3,421.83S797,578.09,798,718.56c2.92-140.46,6.42-280.91,6.4-421.37,0-140.62-3.56-281.25-5.55-421.87M44.39,708.72c5.42-71.74,5.43-741.29,0-819.17-5.74,58.07-5.75,761.63,0,819.17M820.29-91.74c-3,62.6-2.84,755.84,0,781,5.66-259.12,5.65-520.38,0-781M22.8-97.23q-6.75,396.89,0,793.79,6.57-396.88,0-793.79M-.56,670.83H1.49Q5.93,298.77,1.44-73.29h-2Zm841.27-765V694.66q8.74-394.45,0-788.81m-860,73.79-1.43,0q-3,320.34,0,640.66h1.42ZM863-31.34V630.58q5.87-331,0-661.92"/><path d="M517.73,750.66Q513.35,627.54,509,504.43l-1.09,0q-5.33,123.15-10.66,246.3h-1.17q-4.24-114.76-8.48-229.52l-1.47-.06Q480.94,636,475.75,750.9l-1.22,0-8.7-220.57-1.17,0L454.13,752h-1.22q-4.25-104.09-8.5-208.16l-1.51-.08q-5.11,104.09-10.25,208.17l-1.27.06-9-207.88H421q-4.77,102.6-9.52,205.2l-1.54,0q-4.86-105-9.7-209.91l-1,0L389.7,752.65l-1.1.05L379,533.83l-1.59,0-9,213.84-1.55,0q-4.85-115.15-9.7-230.31l-1.11,0Q351.36,633.67,346.67,750l-1.23,0-9.69-242.66-1.45,0-9,239.29-1.47,0-9.78-257-1.15,0q-4.64,129.14-9.28,258.27h-1.26q-4.86-135.36-9.7-270.73l-1.52,0q-4.47,133.67-8.95,267.31h-1.47l-9.84-291-1.11,0q-4.67,147.2-9.32,294.38l-1.12,0-9.84-310.7L248,437,239.1,740.46h-1.54l-9.81-331.08h-1.19q-4.65,168.55-9.32,337.1h-1q-5-180.76-9.94-361.51l-1.49,0-8.85,353-1.48,0-9.89-390.39H183.4l-9.26,395.2h-1l-10-429.64h-1.47q-4.44,210.78-8.89,421.57l-.88,0c-.37-9.34-.9-18.68-1.09-28C149,620.35,147.57,534,145.5,447.73c-1.74-72.31-3.73-144.61-2.07-216.95q4.09-178.44,7.93-356.89a47.71,47.71,0,0,1,1.39-10.37q4.42,210.06,8.86,420.12l1.56,0q5-214,9.94-428.1h1Q178.76,53.27,183.4,251l1.19,0q4.93-194.85,9.88-389.71H196q4.44,176.82,8.89,353.64l1.42,0,10-363,1,0q4.65,168.5,9.31,337h1.23l9.78-330.15,1.55,0Q243.54,10.08,248,161.51h1.5l9.84-310.14,1.14,0Q265.07-1.85,269.73,145h1.12l9.81-290.06,1.52,0q4.47,133.6,9,267.21l1.48,0,9.69-270.84,1.29,0Q308.27-19,312.94,110.88h1l9.81-257.78h1.53l9,238.06h1.46q4.83-121,9.68-242h1.25l9.39,232.71h1.07L366.89-150h1.46q4.51,107.64,9,215.27l1.55,0q4.85-109.86,9.68-219.71h1.05l9.51,212.49,1.14,0q4.81-104.59,9.64-209.2h1.5L421,54.33l1.39,0,9-207.9,1.24,0q5.14,104.4,10.3,208.8l1.46-.05,8.52-208.44,1.21,0Q459.39-42.61,464.63,68l1.21,0q4.32-109.75,8.65-219.52h1.28L486.18,78.94l1.36,0q4.24-115.32,8.5-230.64l1.21,0q5.33,123.29,10.66,246.56H509q4.32-121.84,8.63-243.7h1.33q5.27,128.36,10.51,256.73l1.29,0Q535-21.41,539.21-150.61l1.12,0,10.83,277.16,1.06,0Q556.45-10,560.7-146.63h1.35l10.66,289.7H574q4.15-145.8,8.33-291.6l1.14,0,10.89,313.29,1.22,0q4.11-154.24,8.21-308.5h1.39Q610.57,22.56,616,188.86h1.28l8.14-333.5,1.21,0q5.5,180.78,11,361.56l.61.08c.44-4.91,1.16-9.81,1.27-14.73Q642.39,72,645.11-58.18c.49-23.33.82-46.66,1.33-70a50.14,50.14,0,0,1,1.83-12.23l11.1,391.27h1.23l7.92-391.29h1.22Q675.35,72.46,681,285.32h1.47l7.63-421.77,1.34,0q1,40.11,1.92,80.22c2.28,93.63,4.23,187.27,7,280.89,2.08,71.19,0,142.29-1.88,213.43-2.53,97.63-4.53,195.27-6.76,292.9,0,1.25,0,2.51,0,3.77l-1.62,0q-3.79-210.6-7.6-421.19l-.72-.11c-.42,3.36-1.13,6.7-1.22,10.06-1.65,65.14-3.13,130.29-4.83,195.43q-2.8,107.21-5.88,214.4a8.42,8.42,0,0,1-1.29,4.82q-3.94-195.24-7.9-390.49l-1.2,0L648.3,737.54l-1,.12c-.29-3.14-.78-6.28-.84-9.43q-2-97-3.89-193.94-1.42-69.24-3.06-138.46a60.07,60.07,0,0,0-1.87-13.32q-5.5,180.27-11,360.54l-1.24,0q-4.08-166.75-8.14-333.52H616l-10.8,331.72h-1.47q-4.08-153.79-8.17-307.59h-1.19q-5.49,157.54-11,315.1l-1,0Q578.17,602,574,455.23l-1.25,0Q567.37,601,562,746.77h-1.26q-4.23-136.68-8.47-273.37h-1.15L540.28,750.64l-1,0q-4.25-129.54-8.5-259.09l-1.34,0L518.82,750.65Z"/><path d="M712.76-138.27q1.74,79.71,3.48,159.42c2,91.63,4.63,183.26,5.79,274.9.56,44.63-1.64,89.3-2.55,133.94-1.33,64.32-2.54,128.63-4,192.94q-1.26,57.23-3.55,114.46c-.35-14.1-.81-28.2-1-42.3q-2.22-146-4.38-291.93c-.52-33.49-1.84-67-1.9-100.47-.06-31.49,1.15-63,1.63-94.47q2.15-140.48,4.19-280.94c.33-21.82.93-43.63,1.4-65.45l.88-.1"/><path d="M130.93-140.42q1.57,80.44,3.13,160.9c1.8,90.79,4,181.57,5.26,272.36.46,32.46-1.27,65-1.87,97.44q-2.8,150.18-5.47,300.35c-.28,16,0,32,0,48h-1.72c-.67-28.53-1.45-57.05-2-85.58-2.18-116.6-4.77-233.21-6.17-349.83-.58-48.12,1.43-96.28,2.28-144.42q2-112.7,4-225.39c.47-24.6,1.28-49.2,1.94-73.8h.6"/><path d="M734.49-128.46q1.2,58.92,2.41,117.83c2,102.14,4.67,204.27,5.83,306.41.57,49.81-1.62,99.64-2.6,149.46-1.85,93.8-3.74,187.6-6.37,281.45-.43-11-1.1-22-1.24-32.94-1.68-126.48-4-252.95-4.63-379.44-.4-81.81,1.67-163.63,2.72-245.45q1.2-93.48,2.65-187c0-3.47.58-6.93.88-10.39l.35,0"/><path d="M108.58,728.75c-.5-23.78-1.08-47.56-1.49-71.34-2-117.44-4.62-234.89-5.7-352.34-.56-59.63,1.61-119.28,2.61-178.92q2-117.43,4-234.89c.12-6.82.68-13.63,1-20.45h1.29c0,17.11-.24,34.22,0,51.32,2.06,125.11,4.8,250.21,6.08,375.33.59,58.12-1.59,116.28-2.55,174.42q-2,123.43-4.13,246.89c0,3.32,0,6.64,0,10l-1.23,0"/><path d="M755.76,733.51c-6.87-169.3-6.87-731.36-.2-867.76.93,43.36,2,86.72,2.77,130.09,1.46,82.63,2.33,165.27,4.2,247.89,1.8,79.17-1,158.27-2.21,237.39-1.3,84.14-3,168.26-4.56,252.39"/><path d="M87.34-120.28c7.91,275.93,8,563,0,839-7.66-276-7.61-563.06,0-839"/><path d="M66.49,717.41q-10.92-418.12,0-836.5c1.78,139.39,5,278.77,5,418.15s-3.17,278.9-5,418.35"/><path d="M777.7,715.53c-5.94-69.88-5.93-752.85-.38-831.79h1.42c0,23.33-.3,46.66,0,70,1.65,111.81,4.08,223.61,5,335.42.5,60.14-1.47,120.31-2.38,180.46q-1.81,120.46-3.7,240.94c0,1.66,0,3.33,0,5"/><path d="M798.85-124.68c2,140.62,5.53,281.25,5.55,421.87,0,140.46-3.48,280.91-6.4,421.37-1-140.47-2.89-280.94-2.88-421.41s1.89-281.22,3-421.83h.78"/><path d="M44.39,708.72c-5.73-57.54-5.72-761.1,0-819.17,5.41,77.88,5.4,747.43,0,819.17"/><path d="M820.29-91.73c5.67,260.62,5.68,521.88,0,781-2.86-25.17-3.07-718.41,0-781"/><path d="M22.8-97.23q6.68,396.9,0,793.79-6.91-396.9,0-793.79"/><path d="M-.56,670.83V-73.29h2Q6,298.77,1.49,670.83Z"/><path d="M840.71-94.15q8.82,394.32,0,788.81Z"/></g></g></svg>