<svg id="Calque_1" data-name="Calque 1" xmlns="http://www.w3.org/2000/svg" xmlns:xlink="http://www.w3.org/1999/xlink" viewBox="0 0 841.89 595.28"><defs><style>.cls-1{fill:none;}.cls-2{clip-path:url(#clip-path);}.cls-3{clip-path:url(#clip-path-2);}.cls-4{fill:#fff;}</style><clipPath id="clip-path"><rect class="cls-1" width="841.89" height="595.28"/></clipPath><clipPath id="clip-path-2"><rect class="cls-1" width="841.89" height="595.28"/></clipPath></defs><title>Plan de travail 10</title><g class="cls-2"><g class="cls-3"><path class="cls-4" d="M-31.42,751.49c-.48-.24-1.35-.46-1.37-.72-.12-1.91-.06-3.83-.06-5.75V-149.86q444.57,0,889.15.06c2.15,0,4.29.9,6.43,1.38H819.25C821.87-96.25,824.47-45.07,827,6.11c2.09,42.1,4.08,84.19,6.22,126.29q5.41,106.18,10.94,212.39,4.71,92.55,9.27,185.13c2.18,44.24,4.12,88.5,6.36,132.75.62,12.37,1.93,24.71,2.92,37.07v7.18a45.54,45.54,0,0,1-6.26,1.15q-103,5.28-206,10.45c-41.57,2.1-83.15,4.1-124.72,6.24q-104.05,5.34-208.1,10.8-65.2,3.39-130.41,6.7c-43.48,2.16-87,4.07-130.43,6.29-12.3.63-24.57,1.94-36.85,2.94H12.86c-.46-4.52-1.1-9-1.33-13.55C9,686,6.53,634.14,3.91,582.25.8,520.55-2.51,458.87-5.62,397.18c-3.08-61-6-122-9-183Q-20.92,88.32-27.32-37.59c-1-19.59-2.17-39.18-3.26-58.77a134.65,134.65,0,0,0-.8,17.93q0,411.38.05,822.74c0,2.39-.06,4.78-.09,7.18m808.61-896L-27.56-62.16C-.26,208,27,477.4,54.29,747.77L859,665.41c-27.3-270.18-54.53-539.62-81.84-809.94m33.91-2.93c0-.11.08-.23.13-.34H-31v43.31l842.1-43"/><path d="M-31.42,751.49c0-2.4.09-4.79.09-7.18q0-411.37-.05-822.74a133,133,0,0,1,.8-17.93c1.09,19.59,2.26,39.18,3.26,58.77q6.38,125.91,12.67,251.81c3.05,61,6,122,9,183C-2.51,458.87.8,520.56,3.91,582.25,6.53,634.14,9,686,11.53,737.94c.23,4.52.87,9,1.32,13.55Z"/><path d="M862.73,699.74c-1-12.36-2.3-24.7-2.92-37.07-2.24-44.25-4.18-88.51-6.36-132.75q-4.55-92.58-9.27-185.13-5.41-106.2-10.94-212.39C831.1,90.31,829.11,48.21,827,6.11c-2.55-51.18-5.14-102.36-7.77-154.53h43.48Z"/><path d="M777.19-144.53C804.5,125.8,831.73,395.23,859,665.41L54.29,747.77C27,477.4-.26,208-27.56-62.16l804.75-82.37m-40,5.58L-22-21.89Q36.21,360.7,94.28,742.2L853.49,625.13c-38.81-255-77.46-508.95-116.3-764.08"/><path class="cls-4" d="M737.19-138.95C776,116.18,814.68,370.13,853.49,625.13L94.28,742.2Q36.11,360.06-22-21.89L737.19-138.95m-38.28,8.12L-13.93,16.61l146.5,717.46L845.4,586.63C796.47,347,747.77,108.5,698.91-130.83"/><path d="M698.91-130.83C747.77,108.5,796.47,347,845.4,586.63L132.56,734.07C83.76,495,35,256.43-13.93,16.61L698.91-130.83M168.63,724.08,835.51,550.3Q749,214,662.84-120.84L-4,53C53.69,277.31,111.09,500.44,168.63,724.08"/><path class="cls-4" d="M168.63,724.08C111.09,500.44,53.69,277.31-4,53L662.84-120.84Q749.14,214.55,835.51,550.3L168.63,724.08M202.76,712,823.47,516c-65-208.45-129.75-416.19-194.76-624.73L8,87.25,202.76,712"/><path d="M202.76,712,8,87.25l620.7-196C693.72,99.79,758.48,307.53,823.47,516L202.76,712m31.8-13.57L810,483.93q-106.74-290-213.1-579.1L21.47,119.32C92.54,312.45,163.39,505,234.56,698.42"/><path class="cls-4" d="M234.56,698.42c-71.17-193.42-142-386-213.09-579.1L596.91-95.17Q703.44,194.33,810,483.93L234.56,698.42M36.65,149.2l227.68,534,530.5-229.12c-76.09-178.46-151.79-356-227.69-534L36.65,149.2"/><path d="M36.65,149.2,567.14-79.93c75.9,178,151.6,355.52,227.69,534L264.33,683.17,36.65,149.2m742,277.23Q659,180.93,539.79-63.58L52.86,176.81l238.83,490L778.61,426.43"/><path class="cls-4" d="M778.61,426.43,291.69,666.84l-238.83-490L539.79-63.58q119.37,244.9,238.82,490M70.36,202.14,316.94,649.23c148.5-83,296-165.36,444.17-248.13L514.54-46,70.36,202.14"/><path d="M70.36,202.14,514.54-46,761.11,401.1C612.94,483.87,465.44,566.26,316.94,649.23L70.36,202.14M339.79,630.93,742.93,378c-84-135.71-167.51-270.48-251.26-405.7L88.54,225.23l251.25,405.7"/><path class="cls-4" d="M339.79,630.93,88.54,225.23,491.67-27.68c83.75,135.22,167.22,270,251.26,405.7L339.79,630.93M471-8.51,107.61,246,360.53,611.75,723.88,357.22,471-8.51"/><path d="M471-8.51,723.88,357.22,360.53,611.75,107.61,246,471-8.51M704.5,338.63,452.53,11,127,264.62Q253.21,428.75,379,592.24L704.5,338.63"/><path class="cls-4" d="M704.5,338.63,379,592.24Q253,428.4,127,264.62L452.53,11l252,327.63M436.2,31,146.86,281,395.28,572.23l289.33-250L436.2,31"/><path d="M436.2,31,684.61,322.23l-289.33,250L146.86,281,436.2,31M422.06,51Q294.21,173.3,166.73,295.28l242.71,257L664.75,308,422.06,51"/><path class="cls-4" d="M422.06,51,664.75,308,409.44,552.24l-242.71-257Q294.53,173,422.06,51M644.73,295.79,409.94,71.16,186.76,307.46,421.54,532.09l223.19-236.3"/><path d="M644.73,295.79,421.54,532.09,186.76,307.46,409.93,71.16l234.8,224.63M399.79,91,206.46,317.67l225.23,194.6L625,285.59,399.79,91"/><path class="cls-4" d="M399.79,91,625,285.59,431.69,512.27,206.46,317.67,399.79,91m-8.21,19.69L226,326,439.9,492.58q82.94-107.83,165.57-215.31L391.58,110.66"/><path d="M391.58,110.66,605.47,277.27Q522.6,385.06,439.9,492.58L226,326c55.18-71.77,110.09-143.17,165.56-215.3M245,332.41l201.42,141.1L586.54,270.83,385.11,129.75,245,332.41"/><path class="cls-4" d="M245,332.41c47-67.89,93.38-135,140.16-202.66L586.54,270.83,446.37,473.51,245,332.41m135.49-184c-39.08,63.1-77.86,125.71-116.92,188.79L451.05,454.81,568,266.05,380.44,148.41"/><path d="M380.44,148.41,568,266.05,451.05,454.81,263.52,337.2c39.06-63.08,77.84-125.69,116.92-188.79M454.25,437c32.17-58.33,64-116.09,96-174.1l-173-96.67c-32.18,58.33-64.05,116.1-96,174.09l173,96.68"/><path class="cls-4" d="M454.25,437l-173-96.68c32-58,63.85-115.76,96-174.09l173,96.67c-32,58-63.85,115.77-96,174.1m78.88-175.78-157.5-77.78L298.35,342l157.51,77.75c25.88-53.12,51.39-105.45,77.27-158.55"/><path d="M533.13,261.23,455.86,419.78,298.35,342l77.28-158.58,157.5,77.78M314.38,342.35,456.25,403.6c20.45-48,40.54-95.1,60.84-142.7L375.24,199.65l-60.86,142.7"/><path class="cls-4" d="M314.38,342.34l60.86-142.69L517.09,260.9c-20.3,47.6-40.39,94.74-60.84,142.7L314.38,342.34M455.24,388.2c15.56-42.28,30.94-84.07,46.52-126.37L376.22,215.05,329.74,341.43l125.5,46.77"/><path d="M455.23,388.2l-125.5-46.77c15.5-42.12,30.86-83.88,46.49-126.38l125.54,46.78c-15.58,42.3-31,84.09-46.53,126.37M453.33,374l34.34-110.2-109.5-34.56L343.81,339.41,453.33,374"/><path class="cls-4" d="M453.33,374l-109.52-34.6,34.36-110.16,109.5,34.56L453.33,374m-96.25-37.64,93.18,24.26c8.15-31.69,16.05-62.38,24.13-93.76L381.25,242.6l-24.17,93.77"/><path d="M357.08,336.37l24.17-93.77,93.14,24.27c-8.08,31.38-16,62.07-24.13,93.76l-93.18-24.26m89.47,12.24c5.37-26.41,10.58-52,15.88-78l-77.52-15.91c-5.44,26.74-10.59,52.12-15.83,77.92l77.47,16"/><path class="cls-4" d="M446.55,348.61l-77.47-16c5.24-25.79,10.39-51.17,15.83-77.91l77.52,15.91c-5.3,26-10.51,51.6-15.88,78m-57-82.91c-3.2,21-6.32,41.41-9.51,62.29l61.86,9.54c3.23-21.18,6.33-41.56,9.48-62.26l-61.83-9.57"/><path d="M389.57,265.7l61.83,9.57c-3.15,20.7-6.25,41.08-9.48,62.26L380.06,328c3.19-20.88,6.31-41.32,9.51-62.29m.16,57.22L437,327.75c1.65-16.58,3.17-31.86,4.73-47.51l-47.16-4.71c-1.63,16.11-3.17,31.25-4.81,47.39"/><path class="cls-4" d="M389.73,322.92c1.64-16.14,3.17-31.28,4.81-47.39l47.15,4.71c-1.55,15.65-3.07,30.93-4.72,47.51l-47.24-4.83m41.55-3.8c.6-11.59,1.15-22.17,1.73-33.16l-32.79-1.72c-.64,11.56-1.21,22-1.82,33l32.88,1.92"/><path d="M431.28,319.12,398.4,317.2c.61-11,1.18-21.4,1.82-33L433,286c-.57,11-1.13,21.57-1.73,33.16M406.21,311h18.94V292.07H406.21Z"/><rect class="cls-4" x="406.21" y="292.07" width="18.95" height="18.95"/></g></g></svg>