<?xml version="1.0" encoding="utf-8"?>
<!-- Generator: Adobe Illustrator 22.1.0, SVG Export Plug-In . SVG Version: 6.00 Build 0)  -->
<svg version="1.1" id="Calque_1" xmlns="http://www.w3.org/2000/svg" xmlns:xlink="http://www.w3.org/1999/xlink" x="0px" y="0px"
	 viewBox="0 0 841.9 595.3" style="enable-background:new 0 0 841.9 595.3;" xml:space="preserve">
<style type="text/css">
	.st0{clip-path:url(#SVGID_2_);}
	.st1{clip-path:url(#SVGID_4_);}
	.st2{fill:#FFFFFF;}
</style>
<title>Plan de travail 4</title>
<g>
	<defs>
		<rect id="SVGID_1_" x="-38.4" y="-14.1" width="887.8" height="623.3"/>
	</defs>
	<clipPath id="SVGID_2_">
		<use xlink:href="#SVGID_1_"  style="overflow:visible;"/>
	</clipPath>
	<g class="st0">
		<g>
			<defs>
				<rect id="SVGID_3_" x="-38.4" y="-13.4" width="887.8" height="621.8"/>
			</defs>
			<clipPath id="SVGID_4_">
				<use xlink:href="#SVGID_3_"  style="overflow:visible;"/>
			</clipPath>
			<g class="st1">
				<path d="M-20.7,610h-81.2V301.6c7-23.7,13.4-47.6,21.3-71c12.5-36.9,30.7-70.8,53.1-101.8c39.8-55.3,89.3-97.6,152-120.8
					c15-5.5,30.6-10.2,46.3-12.2c16.7-2.1,33.7-0.4,50.7-0.4c23.4-0.1,45.1,6,66.3,16.7c26.5,13.3,47.7,33,64.3,57.9
					c21.5,32.3,32.7,69.3,40.6,107.6c0.5,2.5-0.8,5.4-1.3,8.1l-9.3,1.5c-1.6-4.1-3.2-8-4.6-11.9c-9.3-25.8-19.8-50.8-34.7-73.8
					C312.9,55,271.3,27.8,218.8,20.9c-44.6-5.8-87.3,4.5-127.2,26C30.5,79.8-14.7,129.9-47.6,193C-78.2,251.5-94,314.5-97,381.1
					c-1.5,32.5-1.4,65.1,4.4,97.4c0.5,3,1.3,5.9,1.9,8.9l2.6-0.1c0.3-3,0.4-6,0.3-9c-1.1-17.2-3.3-34.3-3.3-51.4
					c0-80.3,15.3-156.5,54-226.8c21.4-38.9,48.2-72.8,81.5-100.5C76.4,73,111.4,53.6,152.1,46c29.7-5.5,58.8-6,87.7,2.9
					c33.7,10.4,62.2,29.9,84.6,58.8c17.6,22.6,30.6,48.2,42.9,74.3c3.3,6.8,5.4,12.4-2.9,16.4c-7.9-0.5-9-8.4-12.1-13.5
					c-14.6-23.9-30.6-46.6-50.5-65.8C241.2,60.8,163.3,57.8,96.6,92.6C24.9,130.1-21.7,192.2-50.5,270
					c-23.6,63.9-29.8,130.4-24.1,198.4c3.8,44.6,14.4,87.5,29.8,129.1c1.2,3.2,3.8,5.9,5.8,8.8l2.1-1.5c-1.1-3.2-1.9-6.5-3.1-9.7
					c-17.4-48.4-26.7-99.2-27.4-150.6c-1.4-76.1,13.5-148.3,50.6-214.5c22.4-40,51-73.7,87.8-99.4C102.3,108.7,136.2,95,174,93.2
					c38.4-1.7,73.3,9.4,104.8,32.2c25.5,18.5,45.4,42.8,64.1,68.5c5,6.9,10.4,12.9,2.2,21c-0.3,0.3-0.1,1-0.2,1.5
					c-3.8-3.5-7.8-6.6-11.2-10.5c-18.6-20.8-38.5-40.1-62-54.9c-18-11.4-36.8-20.4-57.4-24.7c-50.5-10.6-96.5,1.7-138.8,31.3
					c-51,35.7-84.7,86-105.5,145.8c-30.1,87.1-29.4,175.4-4.6,263.8C-30.5,581.7-25.3,595.8-20.7,610"/>
				<path class="st2" d="M459.1,610h-25.6c-11.4-17.1-18.2-36.3-23.1-56.4c-9-36.9-6.1-73.9-1.2-111c0.8-5.8,3.5-11.9-2.8-16.3
					l2.9-1.8h43.8c0-0.7,0-1.4,0-2c-4.4,0-8.9,0.3-13.3-0.1c-20.2-1.5-37.8-9-51.9-24.7c-26.4-29.3-16.4-71.6,19.9-84.1
					c-4,3.1-8.1,6.2-12,9.5c-19.6,16.8-23.8,40.9-10.9,63.8c8.4,14.8,20.8,24.1,36,29.5c14.6,5.2,32.8,6.1,41.3,1.8
					c-5.7-0.6-11.4-0.3-17-0.6c-18.1-1-34.3-7.3-47.3-21.1c-23.8-25.4-16.5-66.5,14.4-80.6c-4.8,5.4-10,10.5-14.3,16.2
					c-11.9,15.9-12.7,37-2.5,54.2c14.3,24.2,46.6,35.4,76.7,27.2c5-1.4,9.6-4.6,14.3-7l23.2-15.5c0.6,1.9,0.8,4.2,2,5.6
					c21.4,25.3,44.5,48.6,72.2,66.4c41.6,26.7,85.9,33.5,132.9,20.3c56.2-15.8,97.3-53.5,130.2-102.5c15.6-23.2,27.1-48.7,36.7-75.3
					c19.2-53.1,25.6-108.2,22.4-164.6C903.7,93.3,893.8,47.5,878.2,3c-2.2-6.3-3.1-14.4-11.5-16.2h15c0.2,3.6-0.6,7.7,0.7,10.8
					c15.4,38.2,25.8,78.3,31,119.1c10.7,85.8,0.7,168.1-37.7,245.3c-29.9,60.1-72.2,107.2-132.2,134.3c-31.3,14-63.9,19.3-97.7,14.1
					c-40-6.2-73.2-26.5-101.4-56.2c-13.8-14.5-25.9-30.8-38.8-46.4c-2.5-3.1-4.6-6.4-9.1-2.8c-3.7,3.1-4.8,5.7-2,10.6
					c16.3,29.3,34.3,57,58.6,79.9c46.7,44,101.2,54.9,160.5,40c44.6-11.2,82.3-36.8,114.4-71.1c41.6-44.3,70.3-96.9,86.8-156.6
					c15.2-54.9,20.8-111.2,14.9-168.3c-2.4-23.1-7-45.9-10.5-68.9c-0.4-2.8-0.1-5.7-0.1-8.5l3.2-0.1c2.6,10.8,5.6,21.6,7.8,32.5
					c11.4,54.6,13.2,110.7,5.3,165.8c-11,76.5-37.6,146-86.7,204.5c-46.1,55-101.7,92.2-172.8,98.4c-47.8,4.1-90.2-10.3-126.5-43.3
					c-25.7-23.3-43.8-52.8-58.9-84.4l-9.3-19.4c-10.7,3.4-12.1,5.2-9.5,12.8c10,28.6,20.4,56.8,37,82.2c20.2,31,45.8,54.6,79.1,68.1
					c34.2,13.9,69.5,16.5,105.6,9.2c24.8-5,48.5-13.1,70.7-25.6c31.8-17.9,59.6-41.3,84.4-69.2c37.6-42.3,64-91.3,81.5-145.9
					c5.5-17.3,9.8-35,14.7-52.5v41.3c-1.1,2.1-2.3,4-3,6.2c-17.6,62-45.5,118.1-87.3,165.8c-32.7,37.4-70.6,67.4-116,85.6
					c-15.6,6.3-31.9,10.6-47.9,15.8h-81.2c-1.8-0.8-3.7-1.4-5.6-2c-54.1-13.6-92.8-47.8-117.9-99.6c-11.8-24.4-19.4-50.4-25.4-77
					c-1.1-4.8-3.2-6.6-8-5.2c-4.3,1.2-6.5,3.1-5.5,8.3c4.4,22.5,7.2,45.5,13.1,67.6c8.1,30,21.5,57.7,42.8,80
					c9.7,10.1,20.9,18.8,31.4,28.1h-36.1c-1-1.5-2-2.9-3.2-4.2c-13.6-12.9-24.1-28.2-32.6-45.1c-16.3-32.6-23.2-67.9-25.5-104.3
					c-0.4-6.3-0.9-12.7-0.8-19c0.1-6.8-5.3-7.4-9-10c-1.7,3.1-4.3,6.1-4.9,9.4c-1.1,5.6-1.1,11.5-1.3,17.4
					c-1.7,39.7,0.3,78.9,16.3,115.6C443.3,583.8,451.7,596.7,459.1,610"/>
				<path d="M944.9,295.2c-4.9,17.5-9.2,35.2-14.7,52.5c-17.5,54.6-43.9,103.6-81.5,145.9c-24.8,27.9-52.6,51.3-84.4,69.2
					c-22.2,12.5-45.9,20.6-70.7,25.6c-36.1,7.3-71.3,4.7-105.6-9.2c-33.3-13.5-58.9-37.1-79.1-68.1c-16.6-25.4-27-53.6-37-82.2
					c-2.6-7.5-1.2-9.4,9.4-12.8l9.3,19.4c15.1,31.6,33.2,61.1,58.9,84.4c36.4,33,78.8,47.5,126.5,43.3
					c71.1-6.1,126.7-43.4,172.8-98.4c49-58.5,75.6-128,86.7-204.5c7.9-55.2,6.1-111.3-5.3-165.8c-2.2-10.9-5.2-21.7-7.8-32.5
					l-3.2,0.1c0,2.8-0.4,5.7,0.1,8.5c3.5,23,8.1,45.8,10.5,68.9c5.9,57.1,0.3,113.3-14.9,168.3c-16.6,59.7-45.2,112.3-86.8,156.6
					c-32.2,34.3-69.8,59.9-114.4,71c-59.3,14.9-113.8,4-160.5-40c-24.3-22.8-42.3-50.6-58.6-79.9c-2.7-4.9-1.7-7.5,2-10.6
					c4.5-3.7,6.6-0.3,9.1,2.8c12.8,15.5,25,31.9,38.8,46.4c28.2,29.7,61.4,50,101.4,56.2c33.8,5.2,66.4,0,97.7-14.1
					c60.1-27.1,102.4-74.2,132.2-134.3c38.4-77.2,48.4-159.6,37.7-245.3c-5.2-40.8-15.6-80.9-31-119.1c-1.3-3.1-0.5-7.2-0.7-10.8
					h63.2V295.2z"/>
				<path class="st2" d="M818.6-13.2h21.1l-6.2,2.7c0.5,1.9,0.8,3.1,1.2,4.4c20.8,55.7,30.5,113.4,26.4,173.3
					c-4.1,60.7-21.8,116.1-57.6,164.2c-23.4,31.4-52.8,54.8-89.1,67.5c-37.7,13.2-75.7,12.1-112.8-2c-23.9-9.1-46.7-21.3-70.7-32.3
					c-7.2,7.5-7.1,9.3,2.2,16.1c8.4,6.2,16.7,12.6,25.5,18.3c21.1,13.8,42.9,26.2,67.4,32.2c55.7,13.6,106.1,2.3,151.3-35.2
					c30.1-25,52.3-56.3,69.3-92.3c20.3-42.9,29.8-88.6,32.1-136c2.9-59.1-7.8-115.9-27.4-171c-1.8-5.5-4.4-9.2-10.2-9.7h22.6
					c-4.5,1-5.7,2.8-3.9,8.2c7.1,21.5,14.7,42.9,19.9,64.9c15.9,67,16.5,134.3-1,201.2c-16,61.3-45,114.4-92.9,154.1
					c-57,47.3-119.5,57.9-186.9,27.3c-28.2-12.8-52.1-32.6-75-53.6c-2.8-2.6-5.4-6.1-9.5-2.2c0.8-2.8,1.2-5.8,2.5-8.3
					c2.1-4.1,4.9-7.7,7.4-11.5c2.2-5.8,4.5-11.7,6.7-17.5l3.9-3.1l1.1,1.5c2.4,2.5,4.3,6.1,7.2,7.4c25.4,11.8,51,22.4,78.7,27.5
					c36.9,6.8,71.9,3.1,106-14c29.5-14.8,52.7-37.1,71.5-64.7c27.2-40,41.6-85.1,46.5-134c5.5-54.3-0.4-107.2-16.6-158.9
					C826.4,2.6,822.1-5.2,818.6-13.2"/>
				<path class="st2" d="M42.5,610H29c-3.3-11.9-6.9-23.7-10-35.7C2.4,508.7,0.6,443.2,21.1,378.1c16.9-53.6,45.6-98.3,92.3-127.6
					c34.6-21.8,72.4-29,112.6-22.7c29.1,4.5,56.1,15.1,83,26.7c3.2,1.4,7.1,0.7,10.7,1c0.2-0.3,0.6-0.5,0.9-0.6l2.2-0.3
					c-1.2,1.8-2.3,3.8-3.7,5.5c-3.5,4.4-6.4,8.9-3,14.9l-1.4,10.9l-5.1,10c-3.2-1-6-2.6-9-2.8c-14-1.2-27.9-2.3-41.9-3
					c-37.7-1.9-73.8,4.6-107.1,24.3c-37.6,22.2-61.9,56.3-77.4,97.7c-13,34.6-17.2,71-15.4,108.2c1.5,30.8,6.3,60.9,16.7,89.9h-15
					c-9.2-26.2-15.1-53.4-17.3-81c-4.3-48.8-0.1-96.5,19.4-141.3c28.4-65.4,75.1-105.9,144-114.9c32.5-4.2,64.4,1.2,96.2,8
					c3.8,0.8,6.8,1.7,8-3.7c1.1-4.5,1.8-8.3-3.9-9.8c-23.2-6.3-46.1-14.7-69.7-18.7c-29.4-5.1-58.7-1.7-87.2,9.1
					c-30.7,11.6-55.5,31.2-75.6,57.7C46.2,352.3,30,394.9,24.5,442C17.7,498.6,23.8,556.1,42.5,610"/>
				<path class="st2" d="M391.5,185.6c0.5-2.7,1.8-5.6,1.3-8.1c-7.9-38.2-19-75.3-40.6-107.6c-16.6-24.9-37.8-44.6-64.3-57.9
					C266.7,1.3,245-4.8,221.6-4.7c-16.9,0.1-34-1.6-50.7,0.5c-15.7,2-31.3,6.6-46.3,12.2C61.9,31.1,12.4,73.5-27.4,128.7
					c-22.4,31.1-40.7,64.9-53.1,101.8c-7.9,23.4-14.2,47.3-21.3,71V265c1.3-2.8,2.9-5.6,3.7-8.5c11.7-41,27.7-80,49.6-116.2
					C-9.3,75.1,42.6,25.4,109.9-5.7c3.1-1.4,6.1-2.8,9.2-4.2c-0.1-0.8-0.2-1.6-0.3-2.5c-8.6,0-17.3-0.7-25.8,0.2
					c-7.8,0.8-16.1,1.9-22.9,5.6C59.3-0.7,49.2,7,39.5,14.8c-24,19.1-45.7,40.9-64.7,64.9c-23.1,29.5-43.3,60.9-58.4,95.9
					c-6,13.9-12.2,27.8-18.3,41.7v-19.1c1.3-1.9,2.6-3.9,3.7-5.9c12.3-25.9,23.2-52.8,37.2-77.6c25-44.1,58.3-83,98.3-114.4
					c4.4-3.4,8.6-7,13.8-11.1L44-13.2h273.7l-21.6,1.9c1,1.6,1.2,2.1,1.6,2.4c1.5,1,3,1.8,4.6,2.7c40.3,22.2,68.3,56.3,83.3,101.1
					c8.4,25.3,12.7,52.1,18.6,78.3c0.9,4,1.1,8.2,6.6,7.4c5-0.7,7.5-3.2,6.9-9c-2.5-23.3-4-46.8-7.3-70
					c-4.1-29.2-15.6-56.9-33.3-80.5c-11.2-15-21.7-32.5-42.8-34.2h55.6l-9,2.7c2.1,2.8,3.6,4.9,5.2,6.8
					c20.4,24.7,32.8,53.7,39.2,85.3c5.6,27.8,5.9,56.2,4.6,84.5c-0.2,4.5,1.8,9.1,2.6,13.7c0.1,0.3-1.4,1-2.4,1.7l6.5,0.9l-0.1-0.1
					c-1.4,0.7-2.9,2-4.3,1.9c-10.1-0.3-20.1-1-30.2-1.4c-0.7,0-2,0-2.1,0.3c-1.8,5.6-5.7,1.7-8.6,2.4L391.5,185.6"/>
				<path d="M514.3,386.6c4.1-4,6.7-0.4,9.5,2.2c23,21.1,46.8,40.8,75,53.6c67.5,30.6,129.9,20,186.9-27.3c48-39.7,77-92.7,93-154.1
					c17.5-66.9,16.9-134.1,1-201.2c-5.3-22-12.8-43.4-19.9-64.9c-1.8-5.4-0.6-7.2,3.9-8.2h3c8.4,1.8,9.2,9.9,11.5,16.2
					c15.6,44.4,25.5,90.3,28.2,137.6c3.2,56.4-3.3,111.5-22.4,164.6c-9.6,26.6-21.1,52.1-36.7,75.3c-32.9,49-74,86.7-130.2,102.5
					c-46.9,13.2-91.2,6.4-132.9-20.3c-27.7-17.8-50.8-41.1-72.2-66.4c-1.2-1.4-1.3-3.7-2-5.5L514.3,386.6"/>
				<path class="st2" d="M293.7,610h-21.1c-7.6-27-7.6-54.4-2-81.7c7.6-37.3,24.7-69.5,48.3-98.1c8.8-10.7,17.7-21.4,26.5-32
					c-5.8-10.1-7.9-11-14.1-5c-15.2,14.9-31.2,29.2-45,45.5c-30.4,35.8-48.2,77.8-47.7,126.7c0.1,14.9,3.5,29.8,5.4,44.7h-21.1
					c-0.8-3.9-1.8-7.7-2.4-11.6c-9.8-59.5,3.2-112.3,41-158.1c18.3-22.1,39.7-40.3,62.5-56.8c3.9-2.9,6.6-5.2,3.5-10.8
					c-3.1-5.5-6.5-4.2-10.7-1.8c-25.5,14.7-50.1,30.6-71.5,51.8c-35.2,34.9-55.1,77.1-55.1,128.3c0,19.7,3.7,39.3,5.7,59h-19.6
					c-2-11.4-4.7-22.8-6-34.3c-6.2-58.5,8.4-110.2,47.2-153.2c20-22.1,44.2-38.1,70.1-51.2c11.3-5.7,22.5-11.5,33.7-17.2
					c2.3,4.6,1.9,11.2,8.3,12.7l15.2,25.8l2.2-1.7l11.9,12.3c-0.3,0.5-0.5,1-0.8,1.6c-2,1.4-4.7,2.2-6.1,4.1
					c-16.5,22.6-33.4,44.8-44.8,71.1c-10.7,25-19.2,50.8-18.4,78.6C289.6,575.9,292.1,593,293.7,610"/>
				<path d="M1.9,610h-13.5c-5.2-16-11.3-31.7-15.4-48c-11.3-43.9-15.9-89.2-13.6-134.4c2.9-56.4,16.3-109.8,43.4-158.5
					c10.7-19.2,24.3-36.6,38-53.7c18.3-22.9,41.1-39.9,66.9-52.5c22.4-10.9,45.8-16.1,70.5-16.7c22.8-0.7,45.6,3.7,66.4,13
					c30.4,13.6,56.9,34,81.9,56.8c5.8,5.3,9.2,9.9,3.6,17.3c-3.6-1.3-7.5-2-10.7-3.9c-21.4-12.7-41.7-27.6-64-38.1
					c-51.1-24.1-102.5-21.9-152,6C60.7,221.1,30.4,258,8.8,303c-16.5,34.5-27,71.7-31,109.7c-4.4,41.6-4,83.1,4.9,124
					C-11.9,561.4-4.6,585.6,1.9,610"/>
				<path d="M841.1-13.2c5.8,0.4,8.4,4.2,10.4,9.7c19.6,55.2,30.2,111.9,27.4,171c-2.3,47.5-11.8,93.1-32.1,136
					c-17.1,36-39.2,67.3-69.3,92.3c-45.1,37.5-95.6,48.8-151.3,35.2c-24.5-6-46.2-18.4-67.4-32.2c-8.8-5.7-17-12.1-25.5-18.2
					c-9.3-6.8-9.4-8.5-2.2-16.1c23.9,11,46.7,23.2,70.7,32.3c37.1,14.2,75,15.2,112.8,2c36.1-12.7,65.5-36.1,89-67.5
					c35.9-48.1,53.5-103.5,57.6-164.2c4-60-5.7-117.6-26.4-173.3c-0.4-1.2-0.7-2.5-1.2-4.4l6.1-2.7H841.1z"/>
				<path d="M319.8,255.4c-3.6-0.3-7.6,0.4-10.7-0.9c-26.9-11.7-53.9-22.2-83-26.7c-40.3-6.3-78,1-112.7,22.8
					c-46.7,29.3-75.4,74-92.3,127.6C0.6,443.2,2.4,508.8,19,574.4c3,12,6.6,23.8,10,35.7h-15c-6.3-23.6-13.8-47-18.9-70.9
					c-9.3-43.6-9-87.9-2.1-131.7c6.8-43.4,21.4-84,45.5-120.5c25.6-38.7,58.7-67,101.4-81.4c35.2-11.9,71-10.5,105.6,1.8
					c21.6,7.7,41.9,19.8,62.7,29.9C315.5,240.8,322,245,319.8,255.4"/>
				<path d="M818.6-13.2c3.5,8.1,7.9,15.9,10.5,24.3c16.2,51.7,22.1,104.6,16.6,158.9c-4.9,48.9-19.3,94-46.5,134
					c-18.8,27.6-41.9,49.9-71.5,64.7c-34.1,17.1-69,20.8-106,14c-27.7-5.1-53.3-15.7-78.7-27.5c-2.9-1.3-4.8-4.9-7.2-7.4
					c3.5-8.7,9.4-7.4,16.4-5c25.8,8.9,52.1,15.4,79.3,16.5c30.6,1.3,60.1-3.9,87.3-18.8c42.9-23.6,72.2-60.7,90-107.7
					c28.6-75.5,25.9-151.5,1.1-227.4c-1.7-5.3-3.5-10.6-5.3-16.2l8-2.1L818.6-13.2z"/>
				<path d="M42.5,610c-18.7-54-24.8-111.4-18-168c5.5-47.1,21.7-89.6,49.8-126.6c20.1-26.5,44.9-46.1,75.6-57.7
					c28.6-10.8,57.8-14.2,87.2-9.1c23.6,4.1,46.5,12.4,69.7,18.7c5.7,1.5,4.9,5.2,3.9,9.8c-1.2,5.4-4.2,4.5-8,3.7
					c-31.8-6.8-63.7-12.2-96.2-8c-68.8,9-115.6,49.5-144,114.9C43.1,432.5,38.9,480.2,43.2,529c2.3,27.6,8.1,54.9,17.3,81.1H42.5z"
					/>
				<path class="st2" d="M330,233.2c5.5-7.3,2.1-12-3.6-17.3c-24.9-22.9-51.4-43.3-81.9-56.8c-20.9-9.2-43.6-13.7-66.4-13
					c-24.7,0.6-48.1,5.7-70.5,16.7c-25.8,12.6-48.6,29.6-66.9,52.5C27,232.4,13.4,249.9,2.7,269c-27.1,48.8-40.5,102.2-43.4,158.5
					c-2.3,45.2,2.3,90.6,13.6,134.4c4.1,16.3,10.2,32,15.4,48h-9c-4.6-14.2-9.8-28.3-13.8-42.7c-24.8-88.4-25.6-176.7,4.6-263.8
					c20.7-59.8,54.4-110.1,105.5-145.8c42.3-29.6,88.3-41.9,138.8-31.3c20.6,4.3,39.4,13.3,57.4,24.7c23.5,14.8,43.3,34.1,62,54.9
					c3.4,3.8,7.4,7,11.2,10.5l-0.1-0.1c-4.6,5.6-9.1,11.2-13.7,16.7L330,233.2"/>
				<path d="M776.5-13.2H787c2.1,3.1,5,5.9,6.1,9.4c17.5,51.7,23.9,104.7,16.8,159.3c-5.3,40-18.2,76.7-41,109.4
					c-23.4,33.6-53.8,56.5-91.6,68.1c-18.6,5.7-37.8,6.3-57.2,6c-24.3-0.4-47.8-4.5-71.3-10.1c-2.6-0.6-4.7-3.3-7.1-5
					c1.4-7.9,5.2-9.7,13.1-8.8c29.7,3.3,59.4,4.2,89-2c49-10.2,87.3-37.3,114.3-81.5c21.6-35.4,31.1-75,33.3-116.6
					c2.1-40.7-4.1-80.2-16.7-118.7C773.7-7.3,771.9-10.9,776.5-13.2"/>
				<path d="M75.6,610c-10.4-29-15.2-59-16.7-89.9c-1.9-37.2,2.4-73.6,15.4-108.2c15.5-41.4,39.9-75.5,77.4-97.7
					c33.4-19.7,69.4-26.2,107.1-24.3c14,0.7,27.9,1.8,41.9,3c3,0.3,5.9,1.8,9,2.8l5.1-10l-0.1-0.1c0.2,1.3,0.3,2.5,0.5,4
					c0.6-0.4,0.8-0.5,0.9-0.7c0.7-1.7,1.4-3.3,2.1-5c6.5-15.7,16.2-28.6,30.4-37c32.8-19.5,67.8-1.6,72.8,40.4v-0.2h-1.5l-1.1-3
					c-1.3-3.1-2.5-6.3-4-9.4c-5.5-11.7-13-21.5-24.8-26.2c-35.9-14.3-68.8,21.1-72.4,50.7c-0.9,4.9-1.9,9.8-2.8,14.7
					c-0.9,5.3-1.8,10.6-2.8,15.9l-2-2.9l0.1,0.2c0.5-8.2,1.1-16.5,1.5-22.8c-5.3,1-11.3,3-17.3,3.1c-26.6,0.5-53.1,2-78.9,9.5
					c-49.6,14.4-87.9,44.4-111.3,93.2c-31.2,64.9-29.8,132-9.1,199.9L75.6,610z"/>
				<path class="st2" d="M409.5-13.2h39.1c-3.6,1.7-5.4,3.6-2.8,8.3C464,28.8,470,65.6,466.5,103.7c-2.3,23.8-7.6,47.3-11.9,70.9
					c-0.9,4.9-0.9,8.1,4.3,9.7c5.2,1.6,7.8-0.4,9.4-5.8c3.1-10.3,6.7-20.4,10.1-30.7c13.8-42.3,19-85.4,7.4-129.2
					c-3.1-11.6-4.9-24.6-16-31.9h102.3c-3.2,0.3-6.4,0.8-9.7,0.8c-10.2,0.2-10.9,1.2-8.1,11.6c10.1,37.7,8,74.9-4.9,111.5
					c-11.1,31.3-28.1,58.9-47.4,85.2c-2,2.8-2.5,6.9-3.7,10.4l0.1-0.1c-0.4,1.2-0.9,2.3-1.3,3.5l-16.7-12.4
					c-2.3-0.9-4.8-1.4-6.8-2.8c-11.1-8.2-24.4-8.9-36.9-12l0.1,0.1c6.3-3.1,6.7-9.3,7.6-15.5c3.8-26.2,6.4-52.3,4.8-78.9
					c-1.6-27.1-6.9-52.9-19.4-76.6C424.7,2,421.8-10.1,409.5-13.2 M499.4-11.8c0.9,3.7,1.3,6,2,8.1c12.6,37,15.1,74.8,4.3,112.3
					c-7.2,25.2-17.6,49.4-26.8,74c-1.7,4.4-3.7,8.1,2,11.2s8.3,0.3,10.8-4.4c1.7-3.3,3.5-6.4,5.4-9.5c21-34.9,37.6-71.6,41.2-113.7
					c2.1-24-0.4-48.2-7.4-71.3c-0.8-2.6-3.4-6.3-5.5-6.4C517.2-12.2,508.7-11.8,499.4-11.8"/>
				<path class="st2" d="M330,233.2l1.1-0.1c-1.3,3.2-2.4,6.5-3.9,9.6c-2,4.1-4.3,8-6.5,12c-0.4,0.1-0.7,0.3-0.9,0.6
					c2.2-10.4-4.2-14.7-11.6-18.2c-20.9-10.1-41.1-22.2-62.7-29.9c-34.6-12.3-70.4-13.7-105.6-1.8C97.1,219.9,64.1,248.2,38.5,287
					C14.4,323.5-0.2,364.1-7.1,407.5c-6.9,43.8-7.1,88.1,2.1,131.7c5.1,23.9,12.5,47.3,18.9,70.9h-12c-6.5-24.4-13.8-48.6-19.2-73.3
					c-8.9-40.8-9.3-82.3-4.9-124c3.9-38.1,14.4-75.2,31-109.7c21.6-45,51.9-81.8,94.4-105.8c49.6-27.8,100.9-30.1,152-6
					c22.3,10.5,42.6,25.4,64,38.1C322.5,231.2,326.4,231.9,330,233.2"/>
				<path d="M738.9-13.2h12c2.5,2.6,5.6,4.9,7.3,8.1c1.9,3.6,2.5,8,3.7,12c13.3,43.7,16.2,89.8,8.3,134.8
					c-5.5,32.3-17.6,61.8-36.5,87.8c-13,18-28.7,32.9-47.5,44.2c-18.5,11.3-39,19.1-60.4,23c-25.2,4.5-50.4,8.1-76,5.2
					c-2.8-0.3-5.4-2.2-8-3.4c2-3.8-0.7-10.4,7.1-10.8c10.5-0.6,20.9-2.2,31.3-3.8c27-4,53.1-11.6,77-25.4
					c61.1-35.3,89.3-92.1,93.5-164c1.9-33.1-2.3-66.2-12.2-97.8C737.4-6.2,738.6-9.8,738.9-13.2"/>
				<path class="st2" d="M541.8,323.8c2.4,1.7,4.5,4.4,7.1,5c23.5,5.6,47,9.8,71.3,10.1c19.4,0.3,38.6-0.3,57.2-6
					c37.8-11.6,68.2-34.5,91.6-68.1c22.8-32.7,35.7-69.4,41-109.4c7.2-54.6,0.7-107.7-16.8-159.3c-1.2-3.5-4-6.3-6.1-9.4h25.6
					l-8,2.1c1.8,5.6,3.6,10.9,5.3,16.2c24.8,76,27.4,152-1.1,227.4c-17.8,47-47.1,84.1-90,107.7c-27.2,15-56.7,20.2-87.3,18.8
					c-27.2-1.2-53.5-7.6-79.3-16.5c-7-2.4-12.8-3.7-16.4,5c-0.3-0.5-0.7-1-1.1-1.5L541.8,323.8L541.8,323.8z"/>
				<path d="M132.7,610h-21.1c-12.4-41.7-17.1-83.8-9.4-127.3c7.9-44.8,26.5-82.5,59.3-112.4c18.8-17.1,40.4-28.3,63.5-36.3
					c24.3-8.5,49.8-11.3,75.2-14c6-0.6,9,1.1,10,7.2l-0.1-0.2c0.3,7.6-5.5,7.1-9.9,8c-27.1,5.7-53.8,13.2-78.3,26.8
					c-68,37.6-99.9,98.4-98.3,178.6C124.2,563.6,129.6,586.8,132.7,610"/>
				<path d="M699.8-13.2h15c2.4,5.1,5.6,9.9,7.1,15.3c12.3,44.1,13.6,88.3,1.9,133c-11.9,45.4-37.4,79.7-74.6,104.4
					c-29.9,19.8-63.8,28.5-98.1,35.3c-3.5,0.7-7.2-0.1-10.9-0.1c0.8-4.3-4.3-9.9,3-12.8c18.3-7,36.9-13.5,54.7-21.8
					c26.1-12.2,49.2-29.4,67.8-52.6c20.8-26.1,33.4-56.3,38.5-90c5.3-34.9,2-69.1-7.4-102.7C695.8-9.2,695.9-11.7,699.8-13.2"/>
				<path class="st2" d="M541.8,298.5c2.7,1.2,5.3,3.1,8,3.4c25.6,2.8,50.8-0.7,76-5.2c21.4-3.9,41.9-11.7,60.4-23
					c18.8-11.3,34.5-26.2,47.5-44.2c18.9-26.1,31-55.5,36.5-87.8c7.9-44.9,5-91.1-8.3-134.7c-1.2-4-1.8-8.4-3.7-12
					c-1.7-3.1-4.8-5.4-7.3-8.1h25.6c-4.6,2.4-2.8,6-1.6,9.5c12.6,38.5,18.8,78.1,16.7,118.7c-2.2,41.6-11.7,81.2-33.3,116.6
					c-27,44.2-65.4,71.3-114.3,81.5c-29.5,6.2-59.3,5.2-89,2c-7.9-0.9-11.7,0.9-13.1,8.8l0.1,0.1c-0.7-3.1-2.1-6.4-2-9.5
					c0.2-5.3,1.3-10.7,2-16L541.8,298.5z"/>
				<path d="M656.1-13.2h15c2.3,3.3,5.8,6.3,6.5,10c3.3,18.4,7.6,36.8,8.3,55.4c2.4,59.7-18.2,109.5-61.4,148.3
					c-23.9,21.4-51.9,35.4-80.5,48.3c-6.2,2.8-11.1,4.7-14.2-3.7c-0.4,0-0.9,0.1-1.3,0.2l-0.3,2.3c0.5,4.6,1,9.1,1.4,13.7
					c1.7,19.1,0,37.4-9.8,54.2c-13.5,23-37.8,32.2-59.4,20.9c-8.2-4.2-15-11.3-22.4-17.1l-1.6-1.8l3.9-0.4l3.3,1.9
					c21.1,22.2,51.8,21.1,69.6-2.7c11.1-14.8,14.8-32.1,12.8-50.7c-0.8-8.4-2.6-16.6-4-24.8c6.3-2.5,12.9-4.4,18.8-7.6
					c8.2-4.5,16-9.9,23.8-15.1c32-21.5,59.2-48,76.4-84.2c20.9-44.1,23.2-90.2,11.1-137.4C651-8.5,650.8-11.9,656.1-13.2"/>
				<path d="M321.4,354.2c-11.2,5.7-22.4,11.5-33.7,17.2c-26,13.1-50.2,29-70.1,51.2c-38.8,43-53.4,94.6-47.2,153.2
					c1.2,11.5,3.9,22.9,6,34.3h-25.6c-0.1-2.3-0.4-4.7-0.8-7c-9.4-40.1-10.5-80,1.1-119.9c10.9-37.7,31.3-68.3,61.3-91.5
					c26.1-20.2,55.6-33.2,86.5-42.8c6.2-1.9,12.7-6.6,19,0L321.4,354.2"/>
				<path class="st2" d="M310.3,327.1c-1.1-6-4-7.8-10-7.2c-25.4,2.7-50.8,5.5-75.2,14c-23.1,8.1-44.7,19.2-63.5,36.3
					c-32.8,30-51.4,67.6-59.3,112.4c-7.6,43.5-3,85.7,9.4,127.3H95.1c-20.7-67.8-22.1-134.9,9.1-199.9
					c23.4-48.8,61.7-78.9,111.3-93.2c25.8-7.5,52.3-9,78.9-9.5c6.1-0.1,12.1-2.1,17.3-3.1C311.3,310.6,310.8,318.8,310.3,327.1"/>
				<path class="st2" d="M540.3,274.6c3.6,0.1,7.4,0.8,10.9,0.1c34.3-6.8,68.2-15.5,98.1-35.3c37.2-24.6,62.7-59,74.6-104.3
					c11.7-44.7,10.4-88.9-1.9-133c-1.5-5.4-4.7-10.2-7.1-15.3h24.1c-0.2,3.4-1.4,7-0.5,10c9.9,31.6,14.1,64.7,12.2,97.8
					c-4.1,71.8-32.4,128.7-93.5,164c-23.9,13.8-50,21.4-77,25.4c-10.4,1.5-20.8,3.2-31.3,3.8c-7.8,0.4-5,7-7.1,10.8l0.1-0.1
					c-0.9-2.2-2.6-4.4-2.6-6.7c0-5.7,0.7-11.5,1.1-17.2L540.3,274.6z"/>
				<path d="M-101.9,148.9V-13.2h46.7l33.3,2.2c-9.4,16-24,26.6-30.9,42.9l2.9,2.8c1.6-2.6,2.9-5.5,4.8-7.8
					C-35,15.2-24.8,3.6-14.4-7.9c5.1-5.7,15.8-6.4,22.3-1.9c-0.1,0.5-0.3,1-0.6,1.4c-38.3,37.1-70,80.2-94,127.7
					c-3.7,7.2-7.2,14.5-10.4,21.9C-98.3,144.1-95.9,149.3-101.9,148.9"/>
				<path class="st2" d="M358.3,405c0.3-0.5,0.5-1,0.8-1.6c8.9,10.1,22,11.5,33,17.4c2,1,5.7,3.9,6.8-1.7l10.5,5.5l-2.9,1.8
					c-7.1-0.1-10,3.9-11.2,11.1c-3.8,22.6-9.5,44.9-12,67.6c-3.7,31.6,0.6,63.5,12.3,93.1c2.3,5.7,5.3,9.9,10.8,11.9h-30.1
					c-0.9-3-1.6-6.1-2.6-9.1c-10.4-29.1-12.7-59.2-8.9-89.8c3.3-27.5,10.9-53.7,20-79.6c1.5-4.3,3.4-8.3-2.5-11.1
					c-5.8-2.7-8.2,0.3-10.3,5.2c-6.1,14.2-12.8,28.1-18.3,42.5c-17.7,46.3-22.8,93.5-7.4,141.8h-22.5c-8.3-29.3-9.5-60.2-3.6-90.1
					c6.6-33.8,21-63.7,37.5-92.9C361.8,419.7,368.6,412.7,358.3,405"/>
				<path class="st2" d="M317.9,348.7c-6.3-6.5-12.7-1.9-19,0c-30.9,9.6-60.4,22.6-86.5,42.8c-30,23.2-50.4,53.8-61.3,91.5
					C139.5,523,140.6,562.9,150,603c0.4,2.3,0.7,4.7,0.8,7h-18c-3.2-23.3-8.6-46.5-9-69.8C122,460,153.9,399.3,222,361.6
					c24.5-13.6,51.2-21,78.3-26.8c4.4-0.9,10.2-0.4,9.9-8l2,2.9c0.9-5.2,1.8-10.6,2.8-15.9C315.9,325.5,316.9,337.1,317.9,348.7"/>
				<path d="M195.9,610c-2-19.7-5.7-39.3-5.7-59c0-51.2,19.9-93.4,55.1-128.3c21.4-21.2,46.1-37.1,71.6-51.8
					c4.1-2.4,7.5-3.7,10.6,1.8c3.1,5.6,0.5,7.9-3.5,10.8c-22.8,16.6-44.2,34.7-62.5,56.8c-37.8,45.7-50.7,98.6-41,158.1
					c0.6,3.9,1.6,7.7,2.4,11.6L195.9,610z"/>
				<path class="st2" d="M528.3,247.5l0.3-2.3c0.5-0.1,1.2-0.3,1.3-0.2c3.1,8.4,8,6.5,14.2,3.7c28.6-12.9,56.7-26.8,80.5-48.3
					c43.2-38.7,63.8-88.6,61.4-148.3c-0.7-18.6-5-37-8.3-55.4c-0.7-3.6-4.2-6.7-6.5-10h28.6c-3.9,1.5-4,4.1-2.9,8.1
					c9.4,33.7,12.7,67.8,7.4,102.7c-5.1,33.7-17.7,63.9-38.5,90c-18.5,23.2-41.6,40.4-67.8,52.6c-17.8,8.3-36.4,14.7-54.7,21.8
					c-7.4,2.8-2.2,8.5-3,12.8l0.1-0.1l-4-1.7l0.1,0.1C537.1,263.2,532.6,255.4,528.3,247.5"/>
				<path d="M612.5-13.2h6c12.1,2.4,12.7,2.3,14.8,15.5c2.3,13.8,3.9,27.7,4.6,41.6c1.6,42.6-11.3,80.3-35.6,114.1
					c-17.8,24.8-40.4,43.8-64.3,61.3c-5.6,4.1-10.5,11.1-18.9,9.4c-5-7-2.3-11,3.4-16.5c14.8-14.2,29.5-28.7,42.5-44.6
					c37.2-45.7,52.3-98.4,41.7-158.5c-1.2-6.6-2.5-13.2-3.8-20.1L612.5-13.2"/>
				<path d="M690.7,610c16-5.2,32.3-9.6,47.9-15.8c45.4-18.2,83.3-48.2,116-85.6c41.8-47.7,69.7-103.8,87.3-165.8
					c0.6-2.2,2-4.2,3-6.2v44.5c-0.5,1.2-1.2,2.3-1.6,3.5c-19.3,54.1-46.9,102.8-84.5,144.9c-20,22.4-41.7,42.7-66.5,58.9
					c-11.2,7.3-22.6,14.4-33.9,21.6H690.7z"/>
				<path d="M244,610c-1.9-14.9-5.3-29.8-5.4-44.7c-0.5-48.9,17.3-90.8,47.7-126.7c13.8-16.3,29.8-30.5,45-45.5
					c6.2-6.1,8.3-5.2,14.1,5c-8.8,10.6-17.7,21.3-26.5,32c-23.6,28.6-40.8,60.8-48.3,98.1c-5.5,27.2-5.6,54.7,2,81.7L244,610z"/>
				<path class="st2" d="M519.1,228.7c8.4,1.7,13.3-5.3,18.9-9.4c23.9-17.5,46.5-36.5,64.3-61.3c24.3-33.8,37.2-71.5,35.6-114.1
					c-0.7-13.9-2.3-27.8-4.6-41.6c-2.1-13.2-2.6-13.2-14.8-15.5h37.6c-5.3,1.4-5.1,4.8-3.9,9.6c12.1,47.2,9.8,93.3-11.1,137.4
					c-17.2,36.3-44.4,62.8-76.4,84.2c-7.8,5.2-15.6,10.6-23.8,15.1c-5.9,3.2-12.5,5.1-18.8,7.6c-0.8-1.4-1.5-2.7-2.3-4.1l-3.2-6.7
					L519.1,228.7"/>
				<path d="M498.1,206.2c1.2-3.5,1.7-7.6,3.7-10.4c19.3-26.3,36.3-53.8,47.4-85.2c12.9-36.6,15-73.8,4.9-111.5
					c-2.8-10.4-2.1-11.3,8.1-11.6c3.2-0.1,6.4-0.5,9.7-0.8h1.5c2.9,2.1,7.6,3.7,8.3,6.5c11.1,41.4,9.2,82.1-7.3,121.8
					c-14.1,33.7-35.9,61.4-59.6,87.8C509.4,208.8,505,211.9,498.1,206.2"/>
				<path d="M534.3,610c-10.5-9.3-21.6-17.9-31.4-28.1c-21.3-22.3-34.7-50-42.8-80c-5.9-22.1-8.8-45-13.1-67.6
					c-1.1-5.2,1.2-7.1,5.5-8.3c4.8-1.4,6.9,0.4,8,5.2c6,26.6,13.6,52.6,25.4,77c25.1,51.9,63.8,86,117.9,99.6c1.9,0.6,3.8,1.3,5.6,2
					L534.3,610z"/>
				<path d="M-101.9,217.3c6.1-13.9,12.3-27.8,18.3-41.7c15.1-34.9,35.3-66.4,58.4-95.9c19-24,40.7-45.8,64.7-64.9
					C49.2,7,59.3-0.7,70.1-6.6c6.8-3.7,15.1-4.8,22.9-5.6c8.5-0.9,17.2-0.2,25.8-0.2c0.1,0.8,0.2,1.6,0.3,2.5
					c-3.1,1.4-6.1,2.8-9.2,4.2C42.6,25.4-9.3,75.1-48.6,140.2c-21.8,36.2-37.8,75.2-49.5,116.2c-0.8,3-2.5,5.7-3.7,8.5V217.3z"/>
				<path d="M334.3-13.2C355.4-11.5,365.9,6,377.1,21c17.8,23.6,29.2,51.3,33.3,80.5c3.3,23.2,4.8,46.7,7.3,70
					c0.6,5.8-1.9,8.4-6.9,9c-5.5,0.8-5.7-3.4-6.6-7.4c-6-26.2-10.2-53.1-18.6-78.3c-15-44.8-43-78.9-83.3-101.1
					c-1.6-0.8-3.1-1.7-4.6-2.7c-0.4-0.2-0.6-0.8-1.6-2.4l21.6-1.9H334.3z"/>
				<path d="M358.3,405c10.2,7.7,3.4,14.8-0.7,22.1c-16.5,29.2-30.9,59.1-37.5,92.9c-5.9,29.9-4.6,60.8,3.6,90.1h-30.1
					c-1.6-17.1-4.1-34.1-4.5-51.2c-0.8-27.8,7.7-53.6,18.4-78.6c11.3-26.3,28.2-48.6,44.7-71.1C353.7,407.2,356.3,406.3,358.3,405"
					/>
				<path class="st2" d="M498.1,206.2c6.8,5.7,11.3,2.6,16.7-3.4c23.7-26.4,45.6-54.1,59.6-87.8c16.6-39.7,18.4-80.4,7.3-121.8
					c-0.7-2.8-5.5-4.3-8.3-6.5h39.1L603-11c1.3,6.9,2.6,13.5,3.8,20.1c10.6,60-4.6,112.8-41.7,158.5c-13,16-27.7,30.5-42.5,44.6
					c-5.7,5.5-8.4,9.5-3.4,16.5l-2.4,1.2c-6.2-8-12.3-15.9-18.5-23.9L498.1,206.2z"/>
				<path d="M469.6-13.2c11.2,7.3,13,20.3,16,31.9c11.6,43.8,6.5,86.9-7.4,129.2c-3.3,10.2-7,20.4-10.1,30.7
					c-1.6,5.3-4.2,7.3-9.4,5.8c-5.2-1.6-5.2-4.8-4.3-9.7c4.3-23.6,9.7-47.1,11.9-70.9c3.6-38.1-2.5-74.9-20.7-108.7
					c-2.5-4.7-0.8-6.5,2.8-8.3H469.6z"/>
				<path d="M409.5-13.2c12.3,3.1,15.2,15.2,20.2,24.7C442.2,35.1,447.4,60.9,449,88c1.6,26.6-1,52.7-4.8,78.9
					c-0.9,6.2-1.3,12.4-7.6,15.5l-6.5-0.9c1.1-0.7,2.5-1.3,2.4-1.7c-0.8-4.6-2.8-9.2-2.6-13.7c1.2-28.4,1-56.7-4.6-84.5
					c-6.4-31.7-18.8-60.7-39.2-85.3c-1.6-2-3.1-4-5.2-6.8l9-2.7H409.5z"/>
				<path d="M346.3,610c-15.4-48.3-10.4-95.5,7.4-141.8c5.5-14.4,12.2-28.3,18.3-42.5c2.1-5,4.5-7.9,10.3-5.2
					c6,2.8,4.1,6.8,2.5,11.1c-9.1,25.8-16.7,52.1-20,79.6c-3.7,30.7-1.5,60.7,8.9,89.8c1.1,3,1.8,6.1,2.6,9.1L346.3,610z"/>
				<path d="M459.1,610c-7.4-13.4-15.8-26.3-22-40.3c-16-36.7-18.1-76-16.3-115.6c0.3-5.8,0.2-11.7,1.3-17.4
					c0.6-3.4,3.2-6.3,4.9-9.4c3.7,2.6,9.1,3.2,9,10c-0.1,6.3,0.4,12.7,0.8,19c2.3,36.5,9.2,71.7,25.5,104.3
					c8.5,17,19.1,32.3,32.6,45.1c1.2,1.3,2.3,2.7,3.2,4.2L459.1,610z"/>
				<path d="M406.5,610c-5.5-2-8.6-6.2-10.8-11.9c-11.8-29.6-16-61.5-12.3-93.1c2.5-22.7,8.2-45,12-67.6c1.2-7.2,4-11.2,11.2-11.1
					c6.3,4.4,3.5,10.6,2.8,16.3c-5,37.1-7.8,74.1,1.2,111c4.9,20.1,11.7,39.3,23.1,56.4L406.5,610z"/>
				<path d="M44-13.2l7.1,2.4c-5.1,4.2-9.4,7.7-13.8,11.1C-2.7,31.7-36,70.6-61,114.7c-14.1,24.8-24.9,51.7-37.2,77.6
					c-1.1,2-2.3,4-3.7,5.9v-41.3c1.6-1.6,3.8-3,4.7-5c13.4-29.8,29.3-58,48.8-83.5c17.5-22.9,37.6-43.7,57-65
					c8.3-9.1,17.2-18,30.8-16.7H44z"/>
				<path d="M944.9,408.1v33.4c-6.3,12.3-12.3,24.8-19,36.8c-18.9,34.1-40.7,66-68,93.2c-13.3,13.2-27.2,25.7-40.8,38.5h-28.6
					c1.3-1.2,2.4-2.5,3.8-3.6c12.6-10.1,25.5-19.6,37.7-30.2c50.1-43.8,85.6-98.9,111-161.7C941.9,412.2,943.6,410.2,944.9,408.1"/>
				<path class="st2" d="M944.9,408.1c-1.3,2.2-3,4.2-3.9,6.5c-25.5,62.7-60.8,117.9-111,161.7c-12.1,10.6-25.1,20.1-37.7,30.2
					c-1.3,1-2.5,2.4-3.8,3.6h-30.1c11.3-7.2,22.7-14.3,33.9-21.6c24.8-16.3,46.5-36.5,66.5-58.9c37.6-42.1,65.2-90.8,84.5-144.9
					c0.4-1.2,1.1-2.4,1.6-3.5V408.1z"/>
				<path d="M857.7,610h-21.1c4.5-4.9,8.7-10.1,13.4-14.7c30.6-30.3,56-64.7,77-103c5.8-10.7,11.9-21.2,17.9-31.7v28.6
					c-1.2,2-2.5,4-3.6,6c-17.7,32.6-38.2,63-62.6,90.4C871.6,593.7,864.7,601.9,857.7,610"/>
				<path class="st2" d="M39.5-13.2C25.9-14.6,17-5.7,8.7,3.4c-19.4,21.3-39.5,42.1-57,65c-19.5,25.5-35.5,53.8-48.8,83.5
					c-0.9,2-3.2,3.3-4.7,5v-7.9c5.9,0.3,3.6-4.8,4.8-7.8c3.2-7.4,6.7-14.7,10.4-21.9c24-47.4,55.7-90.6,94-127.7
					c0.3-0.4,0.5-0.9,0.6-1.4c-6.6-4.5-17.2-3.8-22.3,1.9C-24.8,3.6-35,15.2-45.1,26.9c-2,2.3-3.2,5.2-4.8,7.8l-2.9-2.8
					C-46,15.6-31.3,4.9-22-11l-33.3-2.2H39.5z"/>
				<path class="st2" d="M944.9,460.6c-6,10.6-12.1,21.1-17.9,31.7c-21,38.3-46.4,72.7-77,103c-4.7,4.6-8.9,9.8-13.4,14.7h-19.5
					c13.6-12.8,27.5-25.3,40.8-38.5c27.3-27.2,49.2-59.1,68-93.2c6.7-12.1,12.7-24.6,19-36.8L944.9,460.6z"/>
				<path class="st2" d="M364.5,198.3c8.3-4.1,6.2-9.6,2.9-16.4c-12.4-26-25.3-51.6-42.9-74.3c-22.4-28.9-50.9-48.4-84.6-58.8
					c-28.8-8.9-58-8.4-87.7-2.9c-40.7,7.6-75.7,27-107.6,53.5C11.3,127.2-15.5,161.1-36.9,200c-38.7,70.2-54,146.5-54,226.8
					c0,17.1,2.2,34.3,3.3,51.4c0,3-0.1,6-0.3,9l-2.6,0.1c-0.7-3-1.4-5.9-1.9-8.9c-5.9-32.2-5.9-64.8-4.4-97.4
					c3-66.6,18.9-129.6,49.4-188.2c32.9-63,78-113.2,139.2-146.1c39.9-21.5,82.6-31.8,127.2-26c52.4,6.9,94,34.1,124.1,80.5
					c14.9,22.9,25.4,48,34.7,73.8c1.4,3.9,3,7.8,4.6,11.9l9.3-1.5l-0.1-0.1c5.1,1.1,10.3,3.1,15.5,3.1c24.4,0.5,44.8,9.7,58.7,31.1
					c18.2,27.9,6.6,60.4-23,73.6c2.4-2,4.3-3.7,6.2-5.4c26.6-23.6,27.6-56.4,2.1-79.9c-17.1-15.8-37.9-19.9-59.7-17.8
					c-5.6,0.5-10.9,4.7-16.3,7.2v-0.1c-3.2,4.8-6.8,2.6-10.4,0.7L364.5,198.3z"/>
				<path class="st2" d="M344.8,216.5l0.1,0.1c0.1-0.5-0.1-1.3,0.2-1.5c8.2-8.1,2.8-14.1-2.2-21c-18.6-25.8-38.5-50-64.1-68.5
					c-31.5-22.9-66.4-34-104.8-32.2c-37.9,1.7-71.7,15.5-103.1,37.4C34.2,156.3,5.6,190-16.8,229.9c-37.1,66.2-52,138.4-50.6,214.5
					c0.7,51.4,10,102.2,27.4,150.6c1.1,3.1,2.1,6.4,3.1,9.7l-2.1,1.5c-2-2.9-4.6-5.5-5.8-8.8c-15.4-41.6-26.1-84.5-29.8-129.1
					c-5.7-68,0.5-134.5,24.1-198.4c28.8-77.7,75.4-139.9,147.1-177.3c66.6-34.8,144.6-31.9,205.2,26.4
					c19.9,19.1,35.9,41.9,50.5,65.8c3.2,5.1,4.2,13,12.1,13.5l-0.1-0.1c-1.7,2.5-3.2,5.1-5.1,7.4c-2.5,3-5.3,5.8-8,8.6L344.8,216.5z
					"/>
				<path d="M409.4,424.5l-10.5-5.5c-1.1,5.6-4.8,2.8-6.8,1.7c-11-5.8-24-7.3-33-17.4l-11.9-12.3l-6.9-9.1c-0.5-2.6-1.2-5.1-2.1-7.5
					c-4.9-12-7.2-24.9-6.8-37.9c1.7-42.7,37.9-64.8,73.6-45c2.8,1.5,6,2.1,9,3.1c-3.5,3.3-6.2,6.7-2.2,12.3c-3,0.9-5.9,1.9-8.7,2.7
					c-15.6,4.2-29.1,11.5-36.4,27.8c-8.6,19.1-3.3,45.5,12.6,62.1c8,8.4,16.6,15.8,27.4,19.3c-7.8-6.5-16.4-12.2-23.3-19.6
					c-28.2-29.7-19.4-72.2,17.7-86.7c1.9-0.7,4.5,0.7,6.7,1.1l0,0c-36.3,12.6-46.4,54.8-19.9,84.1c14.1,15.7,31.8,23.3,51.9,24.7
					c4.4,0.3,8.8,0.1,13.3,0.1c0,0.7,0,1.4,0,2L409.4,424.5z M371.5,406.8c-19.2-22.6-31.5-47.4-19.2-78.1
					c9.7-24.2,30.3-28.4,52.6-27.8c-2.6-0.9-5.3-1.6-8.1-2.1c-26.2-4.2-48,12.6-52,40.3C340.7,367.3,352.5,388.7,371.5,406.8
					 M383.9,410.1c-17.2-16.2-29.2-35.1-26.4-60.7c3-27.8,21.6-38.7,45-43.8c-25.7-0.8-43.1,12.3-48.7,36.8
					c-3.7,16.1,0.5,31.1,8.4,44.8C367.6,396.5,374.2,405,383.9,410.1 M347.2,382.3c-9.2-21.6-12.8-43.3-1.2-64.9
					c12.4-23.1,32.4-26.7,55.3-22.3c-16.3-9.4-37-6.5-50,7.1C332.4,321.8,330.4,357.8,347.2,382.3"/>
				<path d="M514.3,386.6l-4.3,4.2l-23.2,15.5l-4.9,0.1c-2.5,0.5-4.9,0.9-7.4,1.4c-21.7,4.5-42,2-59.3-13.8
					c-24.4-22.1-17.6-55.4-1-72c-1.1,3.4-2,7-3.5,10.2c-4.9,10.8-7.4,22-4.7,33.9c5,21.8,22.9,36.8,46.6,39.3
					c14.3,1.5,27.7-1.9,40.2-9.1c-12.7,4.3-25.3,7.8-38.9,5.8c-25.8-3.8-44.1-21.9-44.3-46.5c-0.1-9.7,3.7-19.5,5.5-29.3
					c0.2-1.3-0.7-2.8-1.2-4.2c0-1,0-2.1,0-3.1l1.6-1.6c1.5,2.7,2.9,5.4,4.4,8.1l0.1-0.2c-14.4,29.5-1.2,61.7,28.7,70.4
					c18,5.2,34.8,1.3,50.6-7.8c5.7-3.3,10.2-8.7,15.3-13.1l9.5-8c-2.5,3.8-5.3,7.5-7.4,11.6C515.6,380.8,515.2,383.9,514.3,386.6"/>
				<path d="M415.6,317.4l-1.5,1.6c-23.6,20.9-25.8,53.9-5.1,75.2c18.9,19.4,51.7,22.2,72.9,12.2l4.9-0.1c-4.8,2.4-9.3,5.6-14.3,7
					c-30.1,8.2-62.4-3-76.7-27.2c-10.2-17.2-9.4-38.3,2.5-54.2c4.3-5.8,9.5-10.8,14.3-16.2l-0.1,0.1L415.6,317.4"/>
				<path d="M407.9,313.6L407.9,313.6l4.5,2.4l0.1-0.1c-30.8,14.2-38.2,55.3-14.4,80.6c13,13.9,29.1,20.1,47.3,21.1
					c5.7,0.3,11.4,0.1,17,0.6c-8.6,4.3-26.7,3.4-41.3-1.8c-15.2-5.4-27.7-14.7-36-29.5c-12.9-22.8-8.8-47,10.9-63.8
					C399.8,319.8,403.9,316.8,407.9,313.6"/>
				<path d="M528.3,247.5c4.3,7.9,8.8,15.7,8.3,25.3c-0.3,2.9-0.9,5.7-1.1,8.6c-1.1,22.8-7.7,43.2-24.6,58.5
					c-19.7,17.9-44.5,17-62.9-2.1c-4-4.2-7.6-8.9-12.7-15c15,33.7,44.4,43.8,70.5,26.4c24-16.1,34.4-53.1,30.7-76.5l3.9,1.7
					c-0.4,5.7-1.1,11.5-1.1,17.2c0,2.2,1.7,4.4,2.6,6.7c-0.7,5.3-1.8,10.6-2,16c-0.1,3.1,1.3,6.3,2,9.5l-7.2,22.2l-3.9,3.1
					c-5.1,6.3-10.2,12.7-15.3,19c-2.4,1.2-4.8,2.6-7.1,4.1c-11.3,8-23.4,12.7-37.2,12.8c-33,0.3-56.9-36.6-43.7-67.7h8.9l1.6,1.8
					c2.9,3.9,5.4,8.2,8.8,11.6c13.2,13.2,28.3,19.2,46.5,12.9c27.7-9.6,44.6-46,36.3-82.6C529.3,256.6,528.8,252,528.3,247.5
					 M426.8,324.2l1-0.6c-0.1,2.4-0.1,4.7,0,7.1c2.2,19.6,8.8,36.3,27.4,44.8c28.6,13.1,65.7-8.2,77.6-40.3c-0.9,1-1.8,2.1-2.6,3.2
					c-7.2,8.4-13.4,18-21.8,24.8c-22.9,18.6-52.9,15.6-68.1-6.9C434,346.9,431.2,335,426.8,324.2 M536.3,311.7
					c-0.6,1.7-1.2,3.4-1.8,5.1c-6.6,16.8-16,31.1-31.5,40.2c-23.8,13.9-48.1,7.4-62.6-16.8l-6.5-10.8c3.7,21.8,20.6,38,39.5,39.1
					C502.4,370.3,530.1,345.8,536.3,311.7"/>
				<path d="M515.6,368.3c5.1-6.3,10.2-12.7,15.3-19c-2.2,5.8-4.5,11.7-6.7,17.5l-9.5,8c-10.7,9.7-24,16.2-38.2,18.9
					c-25.7,5-51.1-9.6-56.5-34.6c-2.3-10.7-0.1-22.5,0.1-33.7l-0.1,0.2c0.8-1.2,1.6-2.4,3.6-5.2c-0.5,7.1-0.8,12.2-1.2,17.4
					c-1.2,19.5,8.4,38.2,23.7,46C468.1,394.8,499.2,388,515.6,368.3"/>
				<path d="M344.8,216.5l6.5-2.3l16-7.4c15.4-4.9,30.7-6.4,46.4-1.1c28.1,9.5,41.2,37.8,30.3,66.6c-2.1,5.6-4.9,10.9-7.3,16.4
					c0,0.8-0.1,1.6-0.1,2.4l-9.5-1.2c0-4.4,0-8.5,0-12.7c-0.3-30.6-14.8-49.5-41.3-52.6c-18.1-2.1-34.1,4.4-47.3,17.4
					c-5.1,5-8.9,11.6-13.3,17.5l-9,15.3c-3.3-6-0.5-10.5,3-14.9c1.3-1.7,2.5-3.6,3.7-5.5l-2.2,0.3c2.2-4,4.5-7.9,6.5-12
					c1.5-3.1,2.6-6.4,3.9-9.6C335.6,227.6,340.2,222,344.8,216.5 M435.8,283.4c1.1-2.6,2.2-5.2,3.1-7.9c8.3-24.6,1.9-47.3-17.4-59.9
					c-12.5-8.4-27.9-11.2-42.6-7.9c-10.5,2.2-20.9,5.5-29.3,13.1C402.3,189.9,455.1,228.3,435.8,283.4 M334.5,240
					c18.4-16.8,39.2-26.1,63.4-18.8c26.8,7.9,34,30.1,33.1,57c5.8-21.9,0.3-41.1-14.7-52.8C393.3,207.2,352.2,214.4,334.5,240"/>
				<path d="M316.2,274.9l9-15.3c10.2-13.1,22-24.2,38-28.6c36.9-10.1,60.4,13,62.9,52c0.2,2.5,0.3,6.8-4.5,4.3l-0.1,0.2
					c5.3-22.8-16.5-51.3-40.5-52.8c-24.5-1.5-48.7,14.4-60.1,39.4c-1.8,4-4.1,7.8-6.2,11.7l0.1,0.1L316.2,274.9z"/>
				<path d="M374.7,197.5c5.4-2.5,10.7-6.7,16.3-7.2c21.9-2.1,42.6,1.9,59.7,17.8c25.5,23.5,24.5,56.3-2.1,79.9
					c-1.9,1.7-3.9,3.3-6.2,5.4c29.6-13.2,41.2-45.7,23.1-73.6c-13.9-21.4-34.3-30.6-58.7-31.1c-5.2-0.1-10.3-2.1-15.5-3.1
					c2.9-0.6,6.9,3.3,8.6-2.4c0.1-0.3,1.4-0.4,2.1-0.3c10.1,0.5,20.1,1.1,30.2,1.4c1.4,0,2.8-1.3,4.3-1.9c12.6,3.1,25.8,3.8,36.9,12
					c1.9,1.4,4.5,1.9,6.8,2.8l11.9,12.9c0.9,2.1,1.9,4.2,3.1,6.2c8.7,13.4,14.2,28,14,44.5c-0.4,30.8-20.6,51.4-49.5,50.3
					c-5.3-0.2-10.5-1-15.7-1.5l0.1,0.2l-0.3-3.5c4.5,0.2,9,0.6,13.5,0.6c22.9-0.3,39.9-13.6,45.4-35.3c6.2-24.6-7.4-58.6-28.8-72
					c0.1,0.5,0.1,1,0.3,1.3c0.8,1,1.7,1.9,2.6,2.8c11.9,11.4,19.4,25.4,22.5,42.1c5,25.7-9.3,50.4-33.5,56.5
					c-7.2,1.9-14.7,2.8-22.1,4.1c1.7-1.5,3.2-3.5,5.2-4.3c3.3-1.3,6.8-1.6,10.2-2.5c25.7-7.3,38.8-28.4,34.4-55.6
					c-4.1-25.4-19.4-41.6-40.1-53.1c-3.8-2.1-8-3.5-12.1-5.2c6.6,4.7,13.6,8.2,19.9,12.8c14.1,10.2,24.3,23.8,27.7,41.9
					c6.3,32.5-13.9,55.9-46.2,60.5c0.8-1.4,1.5-2.7,2.2-4c29-5.3,45.8-33.6,36.9-62.6c-5.3-17.2-16.2-29.7-31-38.3
					c-7-4-14.7-6.6-22.1-9.8c-0.3,0.7-0.6,1.4-0.9,2.1c17.4,5.2,32.1,14.5,42.6,30.5c14.5,22.1,11.5,49-8,66.1
					c-5.3,4.6-11.6,8.1-17.5,12.1l-7-1.4c1.1-2.8,1.9-4.7,2.6-6.6l-0.1,0.2c1.3-0.7,2.8-1.2,3.9-2.2c28.1-26.8,21.3-61.8-3.4-80
					c-20.7-15.2-43.4-15.7-66.9-9.1"/>
				<path d="M317.9,348.7c-1-11.6-2-23.2-2.9-34.8c0.9-4.9,1.9-9.8,2.8-14.7c4.3-8.3,7.9-17.2,13.1-24.8c19.3-28,59.2-37.7,82.7,2.3
					c1.7,2.6,3.5,5,5.4,7.4c0.3,1,0.7,2,1.1,3l-4.9,4.9l-2.5-0.8c-9.9-19.2-37.1-28.9-56.2-19.4c-22.3,11-31.5,31.4-33.4,56
					c-0.7,9.4-2.1,19.6,4.6,28c0.7,3.7,1.4,7.5,2.1,11.2c-6.4-1.6-6.1-8.1-8.3-12.7C320.2,352.4,319.1,350.5,317.9,348.7 M318.4,331
					c3.3-25.1,5.5-32.2,14.1-45.5c18.6-28.5,50.4-31.9,73.7-7.8c2.1,2.2,4.2,4.4,6.4,6.6c-1.2-3.9-3.3-7.4-6-10.4
					c-17.3-20.4-42.2-23.2-62.6-6.4C324.4,283.5,317.5,305.7,318.4,331"/>
				<path d="M412.6,291.2l2.5,0.8l-1,2.6c-2.6-1.6-5.2-3.1-7.7-4.8c-32.7-21.7-65.7-8.6-75.5,30.4c-5.5,21.8-0.6,42.3,9.4,61.7
					l6.9,9.1c-0.8,0.5-1.5,1-2.2,1.6l-15.2-25.8c-0.7-3.7-1.4-7.5-2.1-11.2c-5.1-18-3.3-37.2,5.1-53.9c12.4-25,35.6-34.9,58.5-24.9
					C398.8,280.3,405.5,286.4,412.6,291.2"/>
				<path class="st2" d="M414.1,294.7l1-2.6l4.9-4.8h1.5c4.8,2.5,4.7-1.8,4.5-4.3c-2.5-38.9-26-62.1-62.9-52
					c-16,4.4-27.7,15.5-38,28.6c4.4-5.9,8.2-12.5,13.3-17.5c13.3-12.9,29.3-19.5,47.3-17.4c26.5,3.1,41,21.9,41.3,52.6
					c0,4.2,0,8.4,0,12.7l9.5,1.2l4.6-2.4c-0.7,1.9-1.5,3.8-2.6,6.6l7,1.4l-0.1-0.1c-0.7,1.3-1.5,2.7-2.2,4
					c32.2-4.6,52.4-28.1,46.2-60.5c-3.5-18.1-13.6-31.7-27.7-41.9c-6.3-4.6-13.4-8.1-19.9-12.8c4,1.7,8.3,3.1,12.1,5.2
					c20.7,11.5,35.9,27.7,40.1,53.1c4.4,27.2-8.8,48.3-34.4,55.6c-3.4,1-7,1.3-10.2,2.5c-2,0.8-3.5,2.8-5.2,4.3l-0.1-0.1
					c0.1,1.2,0.2,2.3,0.3,3.5l-4.7,3.1c0.3,1.4,0.6,2.9,0.9,4.3l-3.9,0.4h-8.9c-13.2,31.1,10.7,67.9,43.7,67.7
					c13.7-0.1,25.9-4.8,37.2-12.8c2.3-1.5,4.7-2.8,7.1-4.1c-16.4,19.6-47.5,26.5-69.5,15.4c-15.3-7.8-25-26.5-23.7-46
					c0.3-5.2,0.7-10.3,1.2-17.4c-2,2.9-2.8,4.1-3.6,5.2c-1.5-2.7-2.9-5.4-4.4-8.1l-3.1-1.5l-4.6-2.3c-2.3-0.4-4.9-1.8-6.7-1.1
					c-37.1,14.4-45.9,57-17.7,86.7c7,7.3,15.5,13.1,23.3,19.6c-10.8-3.5-19.5-10.9-27.4-19.3c-15.9-16.6-21.2-42.9-12.6-62.1
					c7.4-16.2,20.9-23.5,36.4-27.8c2.8-0.8,5.7-1.7,8.7-2.7C408,301.4,410.6,297.9,414.1,294.7L414.1,294.7"/>
				<path class="st2" d="M314.7,285.6c2.1-3.9,4.4-7.6,6.2-11.7c11.4-24.9,35.6-40.8,60.1-39.4c23.9,1.4,45.8,30,40.5,52.8
					c-5-42-40.1-59.9-72.8-40.4c-14.2,8.4-23.9,21.3-30.4,37c-0.7,1.7-1.4,3.4-2.1,5c-0.1,0.2-0.4,0.3-0.9,0.7
					C315,288.2,314.9,286.9,314.7,285.6"/>
				<path class="st2" d="M418.9,284.2c-1.9-2.4-3.7-4.9-5.4-7.4c-23.5-40-63.4-30.2-82.7-2.3c-5.3,7.6-8.8,16.5-13.1,24.8
					c3.7-29.6,36.6-65,72.4-50.7c11.9,4.7,19.4,14.5,24.8,26.2C416.4,277.9,417.6,281.1,418.9,284.2"/>
				<path d="M499.4-11.8c9.3,0,17.7-0.4,26,0.3c2,0.2,4.7,3.8,5.5,6.4c7,23.1,9.5,47.3,7.4,71.3c-3.7,42-20.3,78.7-41.3,113.7
					c-1.9,3.1-3.8,6.3-5.4,9.5c-2.4,4.7-5.1,7.5-10.8,4.4c-5.6-3.1-3.6-6.7-2-11.2c9.2-24.6,19.5-48.8,26.8-74
					c10.8-37.6,8.3-75.4-4.3-112.3C500.7-5.8,500.4-8.1,499.4-11.8"/>
				<path d="M440.4,317.1c-0.3-1.4-0.6-2.9-0.9-4.3l3-0.9c0.4,0.7,0.6,1.6,1.1,2c20.6,14.2,51.7,16.5,68.5-13.6
					c13.4-24,9.3-59.9-9.5-83.8l-5.7-6.8l1.3-3.5c6.2,7.9,12.3,15.9,18.5,23.9c1.1,2.2,2.1,4.4,3.2,6.7c0.4,3.6,1,7.2,1.2,10.9
					c0.7,12.3,3.2,24.9,1.6,36.9c-5.4,38.9-39.4,56.2-72.2,38c-2.2-1.2-4.5-2.2-6.8-3.3L440.4,317.1"/>
				<path d="M497,209.6l5.7,6.8c1.2,2.6,2.3,5.2,3.6,7.7c9.5,17.9,13.7,36.7,9.1,57.1c-7.9,34.8-41.5,48.9-72.9,30.6l-3,0.9l4.7-3.1
					l-0.1-0.2c4.5,1.4,9,3.1,13.6,4c26.8,5.2,48.7-10.3,53.8-38.6c4.5-25-3.2-46.4-19.2-64.9L480.2,197L497,209.6"/>
				<path class="st2" d="M443.7,319c2.3,1.1,4.6,2.1,6.8,3.3c32.8,18.3,66.8,0.9,72.2-38c1.7-12-0.8-24.6-1.6-36.9
					c-0.2-3.6-0.8-7.2-1.2-10.9c0.8,1.4,1.6,2.7,2.3,4.1c1.3,8.3,3.2,16.5,4,24.8c1.9,18.6-1.8,35.9-12.8,50.7
					C495.5,340.1,464.8,341.1,443.7,319"/>
				<path class="st2" d="M529.7,261.2c8.2,36.6-8.6,73-36.3,82.6c-18.3,6.3-33.3,0.3-46.5-12.9c-3.4-3.4-5.9-7.7-8.8-11.6
					c7.4,5.8,14.2,12.9,22.4,17.1c21.6,11.2,45.9,2,59.4-20.9C529.7,298.6,531.5,280.3,529.7,261.2"/>
				<path class="st2" d="M536.5,272.8c3.7,23.4-6.7,60.4-30.7,76.5c-26,17.4-55.5,7.3-70.4-26.4c5.1,6.1,8.7,10.8,12.7,15
					c18.4,19.1,43.2,19.9,62.9,2.1c16.9-15.3,23.4-35.7,24.6-58.5c0.1-2.9,0.7-5.7,1.1-8.6L536.5,272.8"/>
				<path d="M441.1,288.7l-4.6,2.4c0-0.8,0.1-1.6,0.1-2.4c19-19.1,21.2-50.6,4.6-69.1c-15.7-17.5-35.5-22.8-57.5-19
					c-5.6,1-11,4-16.5,6.1l-16,7.4c2.7-2.9,5.5-5.6,8-8.6c1.9-2.3,3.4-4.9,5.1-7.4c3.6,1.8,7.2,4,10.4-0.7c2.5,0,5-0.1,7.4,0
					c11.2,0.2,22.7-1.1,33.5,1c25.3,4.9,43.3,27.2,42.6,52.7c-0.5,15.2-8.5,26.8-17.3,37.9L441.1,288.7z"/>
				<path class="st2" d="M441,288.9c8.7-11.1,16.7-22.7,17.3-37.9c0.7-25.5-17.3-47.8-42.6-52.7c-10.9-2.1-22.3-0.8-33.5-1
					c-2.5,0-5,0-7.4,0v0.1c23.5-6.6,46.2-6.1,66.9,9.1c24.7,18.2,31.4,53.3,3.4,80C443.7,287.6,442.4,288.3,441,288.9"/>
				<path class="st2" d="M414.1,294.7L414.1,294.7c-3-1.1-6.2-1.7-8.9-3.2c-35.8-19.7-71.9,2.3-73.6,45c-0.4,13,1.9,25.9,6.8,37.9
					c0.8,2.5,1.5,5,2.1,7.5c-10.1-19.4-14.9-39.9-9.4-61.7c9.8-39.1,42.8-52.2,75.5-30.4C408.9,291.5,411.5,293,414.1,294.7"/>
				<path class="st2" d="M371.5,406.8c-19-18.1-30.8-39.5-26.7-67.7c4-27.7,25.9-44.4,52-40.3c2.7,0.5,5.4,1.2,8.1,2.1
					c-22.3-0.6-42.9,3.6-52.6,27.8C340,359.4,352.3,384.2,371.5,406.8"/>
				<path class="st2" d="M384,410.1c-9.8-5-16.4-13.5-21.8-22.9c-7.9-13.7-12.1-28.7-8.4-44.8c5.7-24.5,23-37.6,48.7-36.8
					c-23.4,5.1-42,16-45,43.8C354.8,375.1,366.7,393.9,384,410.1"/>
				<path class="st2" d="M347.2,382.3c-16.8-24.4-14.8-60.5,4-80.2c13-13.6,33.7-16.5,50-7.1c-22.8-4.4-42.9-0.8-55.3,22.3
					C334.4,339,338,360.7,347.2,382.3"/>
				<path class="st2" d="M420.1,325.3c-0.2,11.3-2.4,23-0.1,33.7c5.4,25,30.8,39.6,56.5,34.6c14.3-2.7,27.5-9.2,38.2-18.9
					c-5.1,4.4-9.6,9.8-15.3,13.1c-15.8,9.2-32.6,13.1-50.6,7.8C418.8,387,405.6,354.8,420.1,325.3"/>
				<path class="st2" d="M414,322.3c0.4,1.4,1.4,2.9,1.2,4.2c-1.8,9.8-5.6,19.6-5.5,29.3c0.3,24.6,18.5,42.6,44.3,46.5
					c13.6,2,26.2-1.5,38.9-5.8c-12.5,7.2-25.9,10.6-40.2,9.1C428.9,403,411,388,406,366.2c-2.7-11.9-0.2-23,4.7-33.9
					c1.3-3.4,2.5-6.8,3.5-10.2L414,322.3"/>
				<path class="st2" d="M481.8,406.5c-21.3,10.1-54.1,7.2-72.9-12.2c-20.7-21.3-18.5-54.3,5.1-75.2c0,1,0,2.1,0,3.1l0.1-0.2
					c-16.6,16.6-23.4,49.8,1,72c17.3,15.8,37.7,18.3,59.3,13.8C476.9,407.3,479.4,406.9,481.8,406.5"/>
				<path class="st2" d="M426.8,324.3c4.4,10.8,7.2,22.7,13.5,32c15.2,22.6,45.3,25.5,68.1,6.9c8.3-6.8,14.6-16.4,21.8-24.8
					c0.8-1.1,1.6-2.2,2.6-3.2c-11.9,32.1-49,53.5-77.6,40.3c-18.6-8.5-25.2-25.2-27.4-44.8c-0.1-2.4-0.1-4.7,0-7.1L426.8,324.3"/>
				<path class="st2" d="M536.3,311.8c-6.2,34.2-33.9,58.6-62.9,56.9c-18.9-1.1-35.8-17.3-39.5-39.1l6.5,10.8
					c14.5,24.1,38.8,30.6,62.6,16.8c15.5-9,24.8-23.4,31.5-40.2C535.1,315.2,535.7,313.5,536.3,311.8"/>
				<path class="st2" d="M435.8,283.4c19.3-55.1-33.5-93.5-86.2-62.7c8.4-7.6,18.7-10.9,29.3-13.1c14.7-3.3,30.1-0.4,42.6,7.9
					c19.3,12.6,25.7,35.3,17.4,59.9C438,278.2,436.8,280.7,435.8,283.4"/>
				<path class="st2" d="M334.6,240c17.7-25.6,58.8-32.8,81.9-14.8c15,11.7,20.5,31,14.7,52.8c0.8-26.9-6.4-49-33.1-57
					C373.8,213.9,353,223.2,334.6,240"/>
				<path class="st2" d="M367.2,206.8c5.5-2.1,10.8-5.1,16.5-6.1c22-3.8,41.8,1.4,57.5,19c16.6,18.5,14.4,50-4.6,69.1
					c2.5-5.5,5.2-10.8,7.3-16.4c10.9-28.9-2.2-57.2-30.3-66.7C397.9,200.3,382.6,201.8,367.2,206.8"/>
				<path class="st2" d="M492.2,210c16,18.5,23.7,39.9,19.2,64.9c-5.1,28.3-27,43.8-53.8,38.6c-4.6-0.9-9.1-2.7-13.6-4
					c5.3,0.5,10.5,1.3,15.7,1.5c28.9,1,49.1-19.5,49.5-50.3c0.2-16.5-5.3-31.1-14-44.5C494.1,214.3,493,212.2,492.2,210"/>
				<path class="st2" d="M443.9,306.3c7.4-1.4,14.8-2.3,22.1-4.1c24.2-6.2,38.5-30.8,33.5-56.5c-3.2-16.7-10.7-30.7-22.6-42.1
					c-0.9-0.9-1.8-1.8-2.6-2.8c-0.3-0.3-0.2-0.9-0.3-1.3c21.4,13.4,35,47.5,28.8,72c-5.5,21.7-22.6,35.1-45.4,35.3
					C452.9,306.8,448.4,306.4,443.9,306.3L443.9,306.3"/>
				<path class="st2" d="M445.5,296.8c5.9-4,12.1-7.4,17.5-12.1c19.6-17.1,22.6-44,8-66.1c-10.5-16-25.2-25.2-42.6-30.5
					c0.3-0.7,0.6-1.4,0.9-2.1c7.4,3.2,15.1,5.7,22.1,9.8c14.8,8.5,25.7,21.1,31,38.3C491.2,263.1,474.5,291.4,445.5,296.8
					L445.5,296.8"/>
				<path class="st2" d="M412.6,291.2c-7.1-4.8-13.8-10.9-21.5-14.3c-22.9-10.1-46.1-0.2-58.5,24.9c-8.4,16.7-10.2,35.9-5.1,53.9
					c-6.7-8.4-5.3-18.5-4.6-28c1.9-24.6,11.1-44.9,33.4-56C375.5,262.4,402.7,272,412.6,291.2"/>
				<path class="st2" d="M318.4,331c-0.9-25.3,6-47.5,25.5-63.5c20.5-16.8,45.3-14,62.6,6.4c2.7,3,4.8,6.6,6,10.4
					c-2.1-2.2-4.2-4.4-6.4-6.6c-23.3-24.1-55.1-20.8-73.7,7.8C323.9,298.8,321.7,305.9,318.4,331"/>
				<path class="st2" d="M442.5,311.8c31.4,18.2,65,4.1,72.9-30.6c4.6-20.3,0.5-39.2-9.1-57.1c-1.3-2.5-2.4-5.2-3.6-7.7
					c18.9,23.9,23,59.9,9.5,83.8c-16.9,30.1-48,27.8-68.5,13.6C443.1,313.5,442.9,312.5,442.5,311.8"/>
			</g>
		</g>
	</g>
</g>
</svg>
