<?xml version="1.0" encoding="utf-8"?>
<!-- Generator: Adobe Illustrator 22.1.0, SVG Export Plug-In . SVG Version: 6.00 Build 0)  -->
<svg version="1.1" id="Calque_1" xmlns="http://www.w3.org/2000/svg" xmlns:xlink="http://www.w3.org/1999/xlink" x="0px" y="0px"
	 viewBox="0 0 841.9 595.3" style="enable-background:new 0 0 841.9 595.3;" xml:space="preserve">
<style type="text/css">
	.st0{clip-path:url(#SVGID_2_);}
	.st1{clip-path:url(#SVGID_4_);}
	.st2{clip-path:url(#SVGID_6_);}
	.st3{fill:#FFFFFF;}
</style>
<title>Plan de travail 8</title>
<g>
	<defs>
		<rect id="SVGID_1_" y="0" width="841.9" height="595.3"/>
	</defs>
	<clipPath id="SVGID_2_">
		<use xlink:href="#SVGID_1_"  style="overflow:visible;"/>
	</clipPath>
	<g class="st0">
		<g>
			<defs>
				<rect id="SVGID_3_" y="0" width="841.9" height="595.3"/>
			</defs>
			<clipPath id="SVGID_4_">
				<use xlink:href="#SVGID_3_"  style="overflow:visible;"/>
			</clipPath>
			<g class="st1">
				<g>
					<defs>
						<rect id="SVGID_5_" y="-2" width="841.9" height="599.2"/>
					</defs>
					<clipPath id="SVGID_6_">
						<use xlink:href="#SVGID_5_"  style="overflow:visible;"/>
					</clipPath>
					<g class="st2">
						<g>
							<g>
								<path class="st3" d="M840.9,589.4c0,3.5,0,7,0,10.6c-280.9,0-561.8,0-842.7,0c0-200,0-399.9,0-599.9c75.3,0,150.7,0,226,0
									c-0.1,1.8-0.2,3.5-0.2,5.3c0,194.6,0,389.2,0,583.9c0,2.7,0.4,5.4,0.7,8.1c7.9,0,15,0,23.5,0c0-93.7,0-186.7,0-279.3
									c115.1,0,228.9,0,343.7,0c0,93.7,0,186.4,0,279.2c8.9,0,16.7,0,25.4,0c0-5.3,0-9.9,0-14.4c0-166.1,0.1-332.2,0.1-498.4
									c0-28.2-0.2-56.3-0.2-84.5c74.6,0,149.3,0,223.9,0c0,6.3,0,12.7,0,19c-68.1,0-136.3,0-204.4,0c0,190.8,0,380.3,0,570.3
									C705.1,589.4,773,589.4,840.9,589.4z M204.7,585.1c0-190.6,0-380.1,0-569.7c-68.4,0-136.1,0-203.8,0c0,8.6,0,16.5,0,25.4
									c59.1,0,117.3,0,176,0c0,173.3,0,345.5,0,519.1c-59.1,0-117.6,0-176.1,0c0,9.2,0,17,0,25.3
									C69,585.1,136.4,585.1,204.7,585.1z M160.3,540.7c0-162.5,0-323.8,0-485.1c-53.7,0-106.6,0-159.5,0c0,10.1,0,19.4,0,29.5
									c44.3,0,87.8,0,131.7,0c0,142.9,0,284.9,0,428.2c-44.3,0-88,0-131.8,0c0,9.9,0,18.5,0,27.4
									C54.2,540.7,106.9,540.7,160.3,540.7z M271.1,336.1c0,87.9,0,174.6,0,261.3c8.6,0,16.5,0,25.3,0c0-78.7,0-156.7,0-234.9
									c84,0,167.1,0,251.1,0c0,78.8,0,156.8,0,234.9c8.7,0,16.6,0,24.6,0c0-87.5,0-174.2,0-261.2
									C471.5,336.1,371.7,336.1,271.1,336.1z M340.7,597.7c0-64.3,0-127.5,0-190.9c52.4,0,103.8,0,156.1,0c0,64.1,0,127.3,0,190.6
									c10.2,0,19.5,0,28.9,0c0-72,0-143.2,0-214.5c-70.6,0-140.4,0-210.3,0c0,72,0,143.2,0,214.8
									C323.8,597.7,331.4,597.7,340.7,597.7z M0.8,468.6c0,9.6,0,17.5,0,25.2c38.3,0,75.7,0,113,0c0-129.7,0-258.7,0-387.6
									c-38.2,0-75.6,0-113.1,0c0,7.9,0,15.1,0,23.3c29.4,0,58.1,0,87.3,0c0,113.4,0,225.8,0,339.1
									C58.8,468.6,30.1,468.6,0.8,468.6z M477.1,597.7c0-57.6,0-114,0-170.5c-39.6,0-78.4,0-117.3,0c0,57.2,0,113.7,0,170.1
									c10.1,0,19.3,0,29.5,0c0-49.2,0-97.6,0-146.5c21.1,0,41.3,0,62.8,0c0,49.2,0,97.9,0,146.9
									C461.1,597.7,468.7,597.7,477.1,597.7z M67.4,449.9c0-100.5,0-199.9,0-299.3c-22.7,0-44.7,0-66.6,0c0,7.9,0,15.1,0,23.2
									c14,0,27.2,0,40.6,0c0,83.3,0,165.7,0,249c-14.1,0-27.3,0-40.6,0c0,9.5,0,18.1,0,27.1C23.2,449.9,44.9,449.9,67.4,449.9z
									 M0.7,194.6c0,71,0,140.8,0,210.6c7.9,0,15.1,0,22.2,0c0-70.6,0-140.4,0-210.6C15.3,194.6,8.4,194.6,0.7,194.6z
									 M432.7,597.7c0-42.7,0-84.3,0-126.1c-10,0-19.2,0-28.6,0c0,42.4,0,84,0,126.1C413.9,597.7,422.9,597.7,432.7,597.7z"/>
								<path d="M617,0.2c0.1,28.2,0.2,56.3,0.2,84.5c0,166.1,0,332.2-0.1,498.4c0,4.5,0,9,0,14.4c-8.6,0-16.5,0-25.4,0
									c0-92.8,0-185.5,0-279.2c-114.8,0-228.6,0-343.7,0c0,92.5,0,185.6,0,279.3c-8.4,0-15.6,0-23.5,0c-0.2-2.7-0.7-5.4-0.7-8.1
									c0-194.6,0-389.3,0-583.9c0-1.8,0.2-3.5,0.2-5.3c9.2,0,18.3,0,27.5,0c0,95.3,0,190.5,0,286.4c113.8,0,226.2,0,339.8,0
									c0-4.7,0-8.8,0-13c0.1-91.1,0.2-182.3,0.3-273.4C600.1,0.2,608.5,0.2,617,0.2z"/>
								<path d="M840.9,589.4c-67.9,0-135.8,0-204.4,0c0-190,0-379.5,0-570.3c68.1,0,136.3,0,204.4,0c0,7,0,14.1,0,21.1
									c-58.7,0-117.3,0-176.6,0c0,175.1,0,348.7,0,523.8c59.2,0,117.9,0,176.6,0C840.9,572.5,840.9,581,840.9,589.4z"/>
								<path d="M840.9,515.5c0,9.9,0,19.7,0,29.6c-52.6,0-105.2,0-157.9,0c0-161.3,0-321.2,0-481.6c53.2,0,105.5,0,157.9,0
									c0,7.7,0,15.5,0,23.2c-43.4,0-86.8,0-130.1,0c0,143.8,0,285.7,0,428.8C754.6,515.5,797.7,515.5,840.9,515.5z"/>
								<path d="M270.6,0.2c9.9,0,19.7,0,29.6,0c0,81.5,0,162.9,0,244.2c84.7,0,167.2,0,251.3,0c0-81.8,0-163,0-244.2
									c7,0,14.1,0,21.1,0c0,89.2,0,178.5,0,267.7c-101.3,0-201.4,0-302,0C270.6,178.1,270.6,89.1,270.6,0.2z"/>
								<path class="st3" d="M270.6,0.2c0,89,0,178,0,267.7c100.6,0,200.7,0,302,0c0-89.3,0-178.5,0-267.7c6.3,0,12.7,0,19,0
									c-0.1,91.1-0.2,182.3-0.3,273.4c0,4.1,0,8.3,0,13c-113.6,0-226,0-339.8,0c0-95.9,0-191.1,0-286.4
									C257.9,0.2,264.3,0.2,270.6,0.2z"/>
								<path class="st3" d="M840.9,63.5c-52.4,0-104.8,0-157.9,0c0,160.4,0,320.3,0,481.6c52.7,0,105.3,0,157.9,0
									c0,6.3,0,12.7,0,19c-58.7,0-117.3,0-176.6,0c0-175.1,0-348.7,0-523.8c59.2,0,117.9,0,176.6,0
									C840.9,48,840.9,55.8,840.9,63.5z"/>
								<path d="M315,0.2c9.9,0,19.7,0,29.6,0c0,65.9,0,131.8,0,197.6c53,0,104.1,0,156.3,0c0-66.3,0-132,0-197.6
									c8.4,0,16.9,0,25.3,0c0,73.8,0,147.5,0,221.3c-71.1,0-140.9,0-211.2,0C315,147.2,315,73.7,315,0.2z"/>
								<path class="st3" d="M315,0.2c0,73.5,0,147,0,221.3c70.3,0,140.1,0,211.2,0c0-73.8,0-147.5,0-221.3c8.4,0,16.9,0,25.3,0
									c0,81.2,0,162.4,0,244.2c-84.1,0-166.7,0-251.3,0c0-81.2,0-162.7,0-244.2C305.1,0.2,310,0.2,315,0.2z"/>
								<path d="M840.9,471.2c0,9.2,0,18.3,0,27.5c-36.4,0-72.9,0-109.3,0c0-130.2,0-259.2,0-388.6c36.9,0,73.1,0,109.3,0
									c0,7,0,14.1,0,21.1c-27.2,0-54.4,0-81.5,0c0,114.3,0,226.5,0,340.1C787,471.2,813.9,471.2,840.9,471.2z"/>
								<path class="st3" d="M840.9,110c-36.2,0-72.4,0-109.3,0c0,129.5,0,258.4,0,388.6c36.4,0,72.9,0,109.3,0c0,5.6,0,11.3,0,16.9
									c-43.2,0-86.3,0-130.1,0c0-143.1,0-284.9,0-428.8c43.3,0,86.7,0,130.1,0C840.9,94.5,840.9,102.2,840.9,110z"/>
								<path d="M454.4,0.2c9.2,0,18.3,0,27.5,0c0,59,0,117.9,0,176.9c-41.5,0-81.8,0-122.5,0c0-59.5,0-118.2,0-176.9
									c10.6,0,21.1,0,31.7,0c0,49.7,0,99.4,0,149.1c22.2,0,42.1,0,63.4,0C454.4,99.1,454.4,49.6,454.4,0.2z"/>
								<path d="M840.9,154.3c0,7.7,0,15.5,0,23.2c-12.2,0-24.4,0-37.2,0c0,83.6,0,165.6,0,249.2c12.8,0,25,0,37.2,0
									c0,8.4,0,16.9,0,25.3c-22.4,0-44.7,0-67.1,0c0-99.9,0-198.6,0-297.8C796.7,154.3,818.8,154.3,840.9,154.3z"/>
								<path class="st3" d="M359.3,0.2c0,58.7,0,117.4,0,176.9c40.7,0,81,0,122.5,0c0-59,0-117.9,0-176.9c6.3,0,12.7,0,19,0
									c0,65.6,0,131.3,0,197.6c-52.2,0-103.3,0-156.3,0c0-65.8,0-131.7,0-197.6C349.5,0.2,354.4,0.2,359.3,0.2z"/>
								<path class="st3" d="M840.9,154.3c-22.1,0-44.2,0-67.1,0c0,99.2,0,197.9,0,297.8c22.4,0,44.7,0,67.1,0c0,6.3,0,12.7,0,19
									c-27,0-53.9,0-81.5,0c0-113.5,0-225.8,0-340.1c27.1,0,54.3,0,81.5,0C840.9,138.8,840.9,146.6,840.9,154.3z"/>
								<path class="st3" d="M454.4,0.2c0,49.5,0,99,0,149.1c-21.3,0-41.2,0-63.4,0c0-49.6,0-99.4,0-149.1c4.9,0,9.9,0,14.8,0
									c0,43.5,0,87,0,130.4c11.2,0,21.2,0,31.7,0c0-44,0-87.2,0-130.4C443.1,0.2,448.7,0.2,454.4,0.2z"/>
								<path d="M840.9,198.7c0,69.7,0,139.4,0,209.1c-7.6,0-15.1,0-22.7,0c0-70.5,0-139.6,0-209.1
									C826.2,198.7,833.5,198.7,840.9,198.7z"/>
								<path class="st3" d="M840.9,198.7c-7.3,0-14.7,0-22.7,0c0,69.5,0,138.6,0,209.1c7.6,0,15.2,0,22.7,0c0,6.3,0,12.7,0,19
									c-12.2,0-24.4,0-37.2,0c0-83.6,0-165.6,0-249.2c12.8,0,25,0,37.2,0C840.9,184.6,840.9,191.7,840.9,198.7z"/>
								<path d="M437.5,0.2c0,43.2,0,86.5,0,130.4c-10.5,0-20.4,0-31.7,0c0-43.5,0-87,0-130.4C416.3,0.2,426.9,0.2,437.5,0.2z"/>
								<path d="M204.7,585.1c-68.2,0-135.7,0-203.9,0c0-8.2,0-16.1,0-25.3c58.5,0,117,0,176.1,0c0-173.5,0-345.8,0-519.1
									c-58.7,0-117,0-176,0c0-8.9,0-16.8,0-25.4c67.7,0,135.4,0,203.8,0C204.7,205,204.7,394.5,204.7,585.1z"/>
								<path d="M160.3,540.7c-53.5,0-106.1,0-159.6,0c0-8.9,0-17.5,0-27.4c43.7,0,87.5,0,131.8,0c0-143.3,0-285.3,0-428.2
									c-43.9,0-87.4,0-131.7,0c0-10.2,0-19.4,0-29.5c52.9,0,105.9,0,159.5,0C160.3,216.9,160.3,378.3,160.3,540.7z"/>
								<path d="M271.1,336.1c100.6,0,200.4,0,301,0c0,87,0,173.7,0,261.2c-8,0-15.9,0-24.6,0c0-78.1,0-156.1,0-234.9
									c-84,0-167.1,0-251.1,0c0,78.2,0,156.2,0,234.9c-8.8,0-16.6,0-25.3,0C271.1,510.7,271.1,424,271.1,336.1z"/>
								<path d="M340.7,597.7c-9.3,0-16.9,0-25.3,0c0-71.6,0-142.9,0-214.8c69.9,0,139.7,0,210.3,0c0,71.3,0,142.6,0,214.5
									c-9.4,0-18.7,0-28.9,0c0-63.3,0-126.5,0-190.6c-52.3,0-103.8,0-156.1,0C340.7,470.3,340.7,533.5,340.7,597.7z"/>
								<path d="M0.8,468.6c29.3,0,58,0,87.3,0c0-113.4,0-225.7,0-339.1c-29.2,0-57.9,0-87.3,0c0-8.2,0-15.4,0-23.3
									c37.4,0,74.9,0,113.1,0c0,129,0,257.9,0,387.6c-37.3,0-74.8,0-113,0C0.8,486.1,0.8,478.3,0.8,468.6z"/>
								<path d="M477.1,597.7c-8.4,0-16,0-24.9,0c0-49,0-97.7,0-146.9c-21.5,0-41.7,0-62.8,0c0,48.9,0,97.4,0,146.5
									c-10.2,0-19.5,0-29.5,0c0-56.4,0-112.9,0-170.1c38.8,0,77.7,0,117.3,0C477.1,483.7,477.1,540.2,477.1,597.7z"/>
								<path d="M67.4,449.9c-22.5,0-44.2,0-66.6,0c0-9,0-17.5,0-27.1c13.3,0,26.5,0,40.6,0c0-83.3,0-165.7,0-249
									c-13.4,0-26.6,0-40.6,0c0-8.1,0-15.3,0-23.2c21.9,0,43.9,0,66.6,0C67.4,250,67.4,349.4,67.4,449.9z"/>
								<path d="M0.7,194.6c7.6,0,14.6,0,22.2,0c0,70.2,0,140,0,210.6c-7.1,0-14.3,0-22.2,0C0.7,335.4,0.7,265.6,0.7,194.6z"/>
								<path d="M432.7,597.7c-9.8,0-18.9,0-28.6,0c0-42,0-83.6,0-126.1c9.4,0,18.6,0,28.6,0C432.7,513.5,432.7,555.1,432.7,597.7z"
									/>
							</g>
						</g>
					</g>
				</g>
			</g>
		</g>
	</g>
</g>
</svg>
