<svg id="Calque_1" data-name="Calque 1" xmlns="http://www.w3.org/2000/svg" xmlns:xlink="http://www.w3.org/1999/xlink" viewBox="0 0 841.89 595.28"><defs><style>.cls-1,.cls-3,.cls-5{fill:none;}.cls-2{clip-path:url(#clip-path);}.cls-3{stroke:#000;}.cls-4{fill:#fff;}.cls-5{stroke:#020202;stroke-width:2px;}</style><clipPath id="clip-path"><rect class="cls-1" width="841.89" height="595.28"/></clipPath></defs><title>Plan de travail 11</title><g class="cls-2"><line class="cls-3" x1="282.65" y1="211.59" x2="433.26" y2="281.58"/><line class="cls-3" x1="433.17" y1="281.57" x2="584.48" y2="213.12"/><line class="cls-3" x1="433.18" y1="142.93" x2="583.78" y2="212.92"/><line class="cls-3" x1="282.94" y1="211.13" x2="282.94" y2="377.6"/><line class="cls-3" x1="282.86" y1="378.14" x2="433.47" y2="448.13"/><line class="cls-3" x1="282.86" y1="211.39" x2="434.16" y2="142.93"/><line class="cls-3" x1="432.97" y1="282.03" x2="432.97" y2="448.49"/><line class="cls-3" x1="583.78" y1="213.37" x2="583.78" y2="379.83"/><line class="cls-3" x1="433.17" y1="448.07" x2="584.48" y2="379.61"/><line class="cls-3" x1="282.15" y1="378.7" x2="433.45" y2="310.25"/><line class="cls-3" x1="433.18" y1="310.24" x2="583.78" y2="380.23"/><line class="cls-3" x1="432.9" y1="142.43" x2="432.9" y2="308.89"/><g class="cls-2"><path class="cls-4" d="M291.6,211.84a9.16,9.16,0,1,0-9.16,9.16,9.16,9.16,0,0,0,9.16-9.16"/><path class="cls-5" d="M291.6,211.84a9.16,9.16,0,1,0-9.16,9.16A9.16,9.16,0,0,0,291.6,211.84Z"/><path class="cls-4" d="M442.56,279.45a9.16,9.16,0,1,0-9.16,9.15,9.16,9.16,0,0,0,9.16-9.15"/><path class="cls-5" d="M442.56,279.45a9.16,9.16,0,1,0-9.16,9.15A9.16,9.16,0,0,0,442.56,279.45Z"/><path class="cls-4" d="M442.83,309.79a9.16,9.16,0,1,0-9.15,9.15,9.15,9.15,0,0,0,9.15-9.15"/><path class="cls-5" d="M442.83,309.79a9.16,9.16,0,1,0-9.15,9.15A9.15,9.15,0,0,0,442.83,309.79Z"/><path class="cls-4" d="M592.44,213.37a9.16,9.16,0,1,0-9.16,9.15,9.15,9.15,0,0,0,9.16-9.15"/><path class="cls-5" d="M592.44,213.37a9.16,9.16,0,1,0-9.16,9.15A9.15,9.15,0,0,0,592.44,213.37Z"/><path class="cls-4" d="M441.62,142.47a9.16,9.16,0,1,0-9.15,9.16,9.15,9.15,0,0,0,9.15-9.16"/><path class="cls-5" d="M441.62,142.47a9.16,9.16,0,1,0-9.15,9.16A9.15,9.15,0,0,0,441.62,142.47Z"/><path class="cls-4" d="M592.44,379.16a9.16,9.16,0,1,0-9.16,9.15,9.15,9.15,0,0,0,9.16-9.15"/><path class="cls-5" d="M592.44,379.16a9.16,9.16,0,1,0-9.16,9.15A9.15,9.15,0,0,0,592.44,379.16Z"/><path class="cls-4" d="M441.27,448.58a9.16,9.16,0,1,0-9.16,9.16,9.16,9.16,0,0,0,9.16-9.16"/><path class="cls-5" d="M441.27,448.58a9.16,9.16,0,1,0-9.16,9.16A9.16,9.16,0,0,0,441.27,448.58Z"/><path class="cls-4" d="M291.6,377.6a9.16,9.16,0,1,0-9.16,9.15,9.16,9.16,0,0,0,9.16-9.15"/><path class="cls-5" d="M291.6,377.6a9.16,9.16,0,1,0-9.16,9.15A9.16,9.16,0,0,0,291.6,377.6Z"/></g></g></svg>