<svg id="Calque_1" data-name="Calque 1" xmlns="http://www.w3.org/2000/svg" xmlns:xlink="http://www.w3.org/1999/xlink" viewBox="0 0 841.89 595.28"><defs><style>.cls-1,.cls-3,.cls-4{fill:none;}.cls-2{clip-path:url(#clip-path);}.cls-3{stroke:#000;}.cls-4{stroke:#020202;stroke-width:2px;}</style><clipPath id="clip-path"><rect class="cls-1" width="841.89" height="595.28"/></clipPath></defs><title>Plan de travail 17</title><g class="cls-2"><line class="cls-3" x1="351.21" y1="268.58" x2="477.35" y2="268.58"/><line class="cls-3" x1="346.4" y1="276.34" x2="409.82" y2="388.95"/><line class="cls-3" x1="483.2" y1="276.34" x2="419.77" y2="388.95"/><line class="cls-3" x1="423.46" y1="187.44" x2="347.56" y2="261.99"/><line class="cls-3" x1="436.8" y1="188.54" x2="483.59" y2="258.93"/><line class="cls-3" x1="324.72" y1="241.36" x2="422.68" y2="185.26"/><line class="cls-3" x1="439.06" y1="185.14" x2="541.03" y2="244.07"/><line class="cls-3" x1="495.82" y1="265.24" x2="539.72" y2="252.26"/><line class="cls-3" x1="494.67" y1="271.76" x2="544.53" y2="373.95"/><line class="cls-3" x1="548.74" y1="258.36" x2="548.74" y2="371.19"/><line class="cls-3" x1="436.07" y1="445.24" x2="540.18" y2="386.64"/><line class="cls-3" x1="322.64" y1="385.6" x2="405.83" y2="397.1"/><line class="cls-3" x1="423.7" y1="397.27" x2="540.37" y2="383.4"/><line class="cls-3" x1="320.21" y1="387.88" x2="421.32" y2="446.01"/><line class="cls-3" x1="324.1" y1="378.47" x2="359.05" y2="359.03"/><line class="cls-3" x1="375.94" y1="353.43" x2="509.24" y2="353.98"/><line class="cls-3" x1="525.38" y1="361.11" x2="542.56" y2="375.2"/><line class="cls-3" x1="415.86" y1="406.19" x2="425.36" y2="440.94"/><line class="cls-3" x1="315.45" y1="255.4" x2="315.82" y2="372.03"/><line class="cls-3" x1="316.52" y1="371.91" x2="340.13" y2="277.63"/><line class="cls-3" x1="322.61" y1="252.69" x2="334.87" y2="262.64"/><line class="cls-3" x1="325.65" y1="245.2" x2="431.2" y2="226.27"/><line class="cls-3" x1="432.49" y1="189.62" x2="435.88" y2="216.03"/><line class="cls-3" x1="448.69" y1="227.14" x2="539.75" y2="247.16"/><line class="cls-3" x1="433.29" y1="442.92" x2="511.43" y2="360.45"/><line class="cls-3" x1="443.16" y1="232.99" x2="514.62" y2="346.69"/><line class="cls-3" x1="435.94" y1="231.54" x2="371.03" y2="346.72"/><line class="cls-3" x1="545.89" y1="257.71" x2="521.35" y2="345.69"/><line class="cls-3" x1="316.76" y1="254.84" x2="362.81" y2="346.8"/><line class="cls-3" x1="371.4" y1="362.97" x2="424.52" y2="442.07"/><g class="cls-2"><path class="cls-4" d="M439.74,180.9a9.16,9.16,0,1,0-9.15,9.16A9.15,9.15,0,0,0,439.74,180.9Z"/><path class="cls-4" d="M325.21,246a9.16,9.16,0,1,0-9.16,9.15A9.16,9.16,0,0,0,325.21,246Z"/><path class="cls-4" d="M449,224.13a9.16,9.16,0,1,0-9.15,9.16A9.15,9.15,0,0,0,449,224.13Z"/><path class="cls-4" d="M324,381.34a9.16,9.16,0,1,0-9.15,9.15A9.15,9.15,0,0,0,324,381.34Z"/><path class="cls-4" d="M437.61,450a9.15,9.15,0,1,0-9.15,9.15A9.14,9.14,0,0,0,437.61,450Z"/><path class="cls-4" d="M558.39,381.34a9.16,9.16,0,1,0-9.15,9.15A9.15,9.15,0,0,0,558.39,381.34Z"/><path class="cls-4" d="M423.94,397.1a9.16,9.16,0,1,0-9.16,9.15A9.16,9.16,0,0,0,423.94,397.1Z"/><path class="cls-4" d="M527.46,354.48a9.16,9.16,0,1,0-9.16,9.15A9.16,9.16,0,0,0,527.46,354.48Z"/><path class="cls-4" d="M376.39,354.86a9.15,9.15,0,1,0-9.15,9.16A9.15,9.15,0,0,0,376.39,354.86Z"/><path class="cls-4" d="M350.86,269.08a9.16,9.16,0,1,0-9.15,9.16A9.15,9.15,0,0,0,350.86,269.08Z"/><path class="cls-4" d="M495.77,267.49a9.16,9.16,0,1,0-9.16,9.16A9.16,9.16,0,0,0,495.77,267.49Z"/><path class="cls-4" d="M557.39,249.46a9.16,9.16,0,1,0-9.15,9.16A9.15,9.15,0,0,0,557.39,249.46Z"/></g></g></svg>