<svg id="Calque_1" data-name="Calque 1" xmlns="http://www.w3.org/2000/svg" xmlns:xlink="http://www.w3.org/1999/xlink" viewBox="0 0 841.89 595.28"><defs><style>.cls-1,.cls-3,.cls-4{fill:none;}.cls-2{clip-path:url(#clip-path);}.cls-3{stroke:#000;}.cls-4{stroke:#020202;stroke-width:2px;}</style><clipPath id="clip-path"><rect class="cls-1" width="841.89" height="595.28"/></clipPath></defs><title>Plan de travail 13</title><g class="cls-2"><line class="cls-3" x1="413.62" y1="165.67" x2="289.29" y2="289.26"/><line class="cls-3" x1="290.17" y1="301.67" x2="363.15" y2="342.35"/><line class="cls-3" x1="416.84" y1="169.26" x2="374.63" y2="337.11"/><line class="cls-3" x1="373.07" y1="353.64" x2="415.56" y2="427.69"/><line class="cls-3" x1="289.29" y1="302.35" x2="413.59" y2="429.3"/><line class="cls-3" x1="554.17" y1="303.71" x2="426.68" y2="429.29"/><line class="cls-3" x1="379.96" y1="345.01" x2="552.49" y2="301.99"/><line class="cls-3" x1="428.17" y1="163.54" x2="552.5" y2="289.58"/><line class="cls-3" x1="291.24" y1="293.64" x2="461.81" y2="249.59"/><line class="cls-3" x1="551.67" y1="292.57" x2="476.99" y2="252.06"/><g class="cls-2"><path class="cls-4" d="M429.59,160.28a9.16,9.16,0,1,0-9.16,9.16A9.16,9.16,0,0,0,429.59,160.28Z"/><path class="cls-4" d="M568.4,296.33a9.16,9.16,0,1,0-9.16,9.15A9.16,9.16,0,0,0,568.4,296.33Z"/><path class="cls-4" d="M478.85,246.93a9.16,9.16,0,1,0-9.16,9.16A9.16,9.16,0,0,0,478.85,246.93Z"/><path class="cls-4" d="M291.8,296.17a9.16,9.16,0,1,0-9.15,9.15A9.15,9.15,0,0,0,291.8,296.17Z"/><path class="cls-4" d="M380.74,345.29a9.16,9.16,0,1,0-9.16,9.16A9.16,9.16,0,0,0,380.74,345.29Z"/><path class="cls-4" d="M429.59,435a9.16,9.16,0,1,0-9.16,9.16A9.16,9.16,0,0,0,429.59,435Z"/></g><line class="cls-3" x1="467.81" y1="238.13" x2="426.76" y2="168.56"/><line class="cls-3" x1="467.51" y1="255.51" x2="421.18" y2="425.04"/></g></svg>